<?xml version="1.0" encoding="utf-8"?>
<!-- Generator: Adobe Illustrator 27.9.0, SVG Export Plug-In . SVG Version: 6.00 Build 0)  -->
<svg version="1.1" id="Layer_1" xmlns="http://www.w3.org/2000/svg" xmlns:xlink="http://www.w3.org/1999/xlink" x="0px" y="0px"
	 viewBox="0 0 765.6 360" style="enable-background:new 0 0 765.6 360;" xml:space="preserve">
<style type="text/css">
	.st0{fill:#FFFFFF;stroke:#000000;stroke-miterlimit:10;}
	.st1{fill:#FFFFFF;}
	
		.st2{clip-path:url(#SVGID_00000028326037590306064880000002830257518792013962_);fill:#1F77B4;fill-opacity:0.2;stroke:#1F77B4;stroke-linejoin:round;stroke-opacity:0.2;}
	
		.st3{clip-path:url(#SVGID_00000019652647505313916870000012993776012404272567_);fill:#1F77B4;fill-opacity:0.2;stroke:#1F77B4;stroke-linejoin:round;stroke-opacity:0.2;}
	.st4{clip-path:url(#SVGID_00000094595707286249329470000013656217617278721205_);}
	.st5{fill:#FF7F0E;fill-opacity:0.2;stroke:#FF7F0E;stroke-linejoin:round;stroke-opacity:0.2;}
	
		.st6{clip-path:url(#SVGID_00000147900649151838440810000012584681512468728230_);fill:#808080;fill-opacity:0.2;stroke:#808080;stroke-linejoin:round;stroke-opacity:0.2;}
	
		.st7{clip-path:url(#SVGID_00000165914249906720523850000017606538684381811380_);fill:#808080;fill-opacity:0.2;stroke:#808080;stroke-linejoin:round;stroke-opacity:0.2;}
	
		.st8{clip-path:url(#SVGID_00000114069412874421622120000002201809514226633876_);fill:#808080;fill-opacity:0.2;stroke:#808080;stroke-linejoin:round;stroke-opacity:0.2;}
	
		.st9{clip-path:url(#SVGID_00000163751192103899183290000014696977959996344972_);fill:#2CA02C;fill-opacity:0.2;stroke:#2CA02C;stroke-linejoin:round;stroke-opacity:0.2;}
	
		.st10{clip-path:url(#SVGID_00000003076176861565621040000000796866129770092431_);fill:#2CA02C;fill-opacity:0.2;stroke:#2CA02C;stroke-linejoin:round;stroke-opacity:0.2;}
	.st11{stroke:#000000;stroke-width:0.8;stroke-linejoin:round;}
	
		.st12{clip-path:url(#SVGID_00000040577341837621468330000015998864811956298635_);fill:none;stroke:#1F77B4;stroke-width:1.5;stroke-linecap:square;stroke-linejoin:round;}
	
		.st13{clip-path:url(#SVGID_00000000214335154927327770000000757134916501142165_);fill:none;stroke:#808080;stroke-width:1.5;stroke-linecap:square;stroke-linejoin:round;stroke-opacity:0.5;}
	
		.st14{clip-path:url(#SVGID_00000052810354042755241440000016979189656648890548_);fill:none;stroke:#FF7F0E;stroke-width:1.5;stroke-linecap:square;stroke-linejoin:round;}
	
		.st15{clip-path:url(#SVGID_00000129927445055158222100000009710865506054641842_);fill:none;stroke:#808080;stroke-width:1.5;stroke-linecap:square;stroke-linejoin:round;stroke-opacity:0.5;}
	
		.st16{clip-path:url(#SVGID_00000019651453563260056060000003678382618878446015_);fill:none;stroke:#2CA02C;stroke-width:1.5;stroke-linecap:square;stroke-linejoin:round;}
	
		.st17{clip-path:url(#SVGID_00000135690107935810213990000015267169806914864555_);fill:none;stroke:#808080;stroke-width:1.5;stroke-linecap:square;stroke-linejoin:round;stroke-opacity:0.5;}
	.st18{fill:none;stroke:#000000;stroke-width:0.8;stroke-linecap:square;}
	.st19{fill:none;}
	.st20{opacity:0.4;enable-background:new    ;}
	.st21{font-family:'ArialMT';}
	.st22{font-size:12px;}
	.st23{fill:#158040;}
	.st24{fill:#495DAA;}
	.st25{fill:#D37328;}
</style>
<rect x="691.3" class="st0" width="74.3" height="360"/>
<rect x="692.7" class="st0" width="72.9" height="360"/>
<g id="figure_1">
	<g id="patch_1">
		<path class="st1" d="M0,360h720V0H0V360z"/>
	</g>
	<g id="axes_1">
		<g id="patch_2">
			<path class="st1" d="M44.7,318h664.5V49.3H44.7V318z"/>
		</g>
		<g id="PolyCollection_1">
			<g>
				<g>
					<defs>
						<rect id="SVGID_1_" x="44.7" y="49.3" width="664.5" height="268.7"/>
					</defs>
					<clipPath id="SVGID_00000062181311509539421800000007528676643618166419_">
						<use xlink:href="#SVGID_1_"  style="overflow:visible;"/>
					</clipPath>
					
						<path style="clip-path:url(#SVGID_00000062181311509539421800000007528676643618166419_);fill:#1F77B4;fill-opacity:0.2;stroke:#1F77B4;stroke-linejoin:round;stroke-opacity:0.2;" d="
						M628.5,204.3v2.1V204.3L628.5,204.3z"/>
				</g>
			</g>
			<g>
				<g>
					<defs>
						<rect id="SVGID_00000130606179539460567960000008543243253360173237_" x="44.7" y="49.3" width="664.5" height="268.7"/>
					</defs>
					<clipPath id="SVGID_00000026885089942900849660000007726385864806885763_">
						<use xlink:href="#SVGID_00000130606179539460567960000008543243253360173237_"  style="overflow:visible;"/>
					</clipPath>
					
						<path style="clip-path:url(#SVGID_00000026885089942900849660000007726385864806885763_);fill:#1F77B4;fill-opacity:0.2;stroke:#1F77B4;stroke-linejoin:round;stroke-opacity:0.2;" d="
						M656,186.4v2.6V186.4L656,186.4z"/>
				</g>
			</g>
		</g>
		<g id="PolyCollection_2">
		</g>
		<g id="PolyCollection_3">
			<g>
				<g>
					<defs>
						<rect id="SVGID_00000171691515189795333850000016443009678537457839_" x="44.7" y="49.3" width="664.5" height="268.7"/>
					</defs>
					<clipPath id="SVGID_00000065033181881132607330000005314836598265417908_">
						<use xlink:href="#SVGID_00000171691515189795333850000016443009678537457839_"  style="overflow:visible;"/>
					</clipPath>
					<g style="clip-path:url(#SVGID_00000065033181881132607330000005314836598265417908_);">
						<g>
							<path id="me52c99509c" class="st5" d="M685.2,117.5v1.3V117.5L685.2,117.5z"/>
						</g>
					</g>
				</g>
			</g>
		</g>
		<g id="PolyCollection_4">
			<g>
				<g>
					<defs>
						<rect id="SVGID_00000097501596309893652990000017726191903953677190_" x="44.7" y="49.3" width="664.5" height="268.7"/>
					</defs>
					<clipPath id="SVGID_00000041274189249159897660000008308724531996876954_">
						<use xlink:href="#SVGID_00000097501596309893652990000017726191903953677190_"  style="overflow:visible;"/>
					</clipPath>
					
						<path style="clip-path:url(#SVGID_00000041274189249159897660000008308724531996876954_);fill:#808080;fill-opacity:0.2;stroke:#808080;stroke-linejoin:round;stroke-opacity:0.2;" d="
						M589,153.9v0.9V153.9L589,153.9z"/>
				</g>
			</g>
			<g>
				<g>
					<defs>
						<rect id="SVGID_00000034786908463881486580000017537979711689888150_" x="44.7" y="49.3" width="664.5" height="268.7"/>
					</defs>
					<clipPath id="SVGID_00000088825606360730119000000004186847265862525059_">
						<use xlink:href="#SVGID_00000034786908463881486580000017537979711689888150_"  style="overflow:visible;"/>
					</clipPath>
					
						<path style="clip-path:url(#SVGID_00000088825606360730119000000004186847265862525059_);fill:#808080;fill-opacity:0.2;stroke:#808080;stroke-linejoin:round;stroke-opacity:0.2;" d="
						M599.3,145v1V145L599.3,145z"/>
				</g>
			</g>
			<g>
				<g>
					<defs>
						<rect id="SVGID_00000031167395607816889560000004580912558466692261_" x="44.7" y="49.3" width="664.5" height="268.7"/>
					</defs>
					<clipPath id="SVGID_00000096761702274771062900000011345003131685626531_">
						<use xlink:href="#SVGID_00000031167395607816889560000004580912558466692261_"  style="overflow:visible;"/>
					</clipPath>
					
						<path style="clip-path:url(#SVGID_00000096761702274771062900000011345003131685626531_);fill:#808080;fill-opacity:0.2;stroke:#808080;stroke-linejoin:round;stroke-opacity:0.2;" d="
						M616.5,141.3v0.6V141.3L616.5,141.3z"/>
				</g>
			</g>
		</g>
		<g id="PolyCollection_5">
			<g>
				<g>
					<defs>
						<rect id="SVGID_00000109749525743357367880000002134348053155275677_" x="44.7" y="49.3" width="664.5" height="268.7"/>
					</defs>
					<clipPath id="SVGID_00000036243100037192209550000014509115638642322327_">
						<use xlink:href="#SVGID_00000109749525743357367880000002134348053155275677_"  style="overflow:visible;"/>
					</clipPath>
					
						<path style="clip-path:url(#SVGID_00000036243100037192209550000014509115638642322327_);fill:#2CA02C;fill-opacity:0.2;stroke:#2CA02C;stroke-linejoin:round;stroke-opacity:0.2;" d="
						M631.9,89.5V91V89.5L631.9,89.5z"/>
				</g>
			</g>
			<g>
				<g>
					<defs>
						<rect id="SVGID_00000159444327615641015290000013252906025127438270_" x="44.7" y="49.3" width="664.5" height="268.7"/>
					</defs>
					<clipPath id="SVGID_00000119834759516105301350000006721504013681281720_">
						<use xlink:href="#SVGID_00000159444327615641015290000013252906025127438270_"  style="overflow:visible;"/>
					</clipPath>
					
						<path style="clip-path:url(#SVGID_00000119834759516105301350000006721504013681281720_);fill:#2CA02C;fill-opacity:0.2;stroke:#2CA02C;stroke-linejoin:round;stroke-opacity:0.2;" d="
						M652.5,85.8v0.7V85.8L652.5,85.8z"/>
				</g>
			</g>
		</g>
		<g id="PolyCollection_6">
		</g>
		<g id="matplotlib.axis_1">
			<g id="xtick_1">
				<g id="line2d_1">
					<g>
						<g>
							<path id="mc3a5dbed08" class="st11" d="M73.9,318v3.5"/>
						</g>
					</g>
				</g>
				<g id="text_1">
					<g transform="translate(67.48918 332.638438) scale(0.1 -0.1)">
						<g>
							<path id="DejaVuSans-34" d="M37.8,64.3L12.9,25.4h24.9V64.3z M35.2,72.9h12.4V25.4H58v-8.2H47.6V0h-9.8v17.2H4.9v9.5
								L35.2,72.9z"/>
						</g>
						<g>
							<path id="DejaVuSans-35" d="M74.4,72.9h38.7v-8.3H83.5V46.7c1.4,0.5,2.9,0.9,4.3,1.1c1.4,0.2,2.9,0.4,4.3,0.4
								c8.1,0,14.6-2.2,19.3-6.7c4.8-4.5,7.1-10.5,7.1-18.1c0-7.8-2.4-13.9-7.3-18.3c-4.9-4.3-11.8-6.5-20.7-6.5
								c-3.1,0-6.2,0.3-9.4,0.8c-3.2,0.5-6.4,1.3-9.8,2.3v9.9c2.9-1.6,6-2.8,9.1-3.6s6.4-1.2,9.9-1.2c5.6,0,10.1,1.5,13.4,4.4
								c3.3,3,4.9,7,4.9,12.1s-1.6,9.1-4.9,12c-3.3,3-7.7,4.5-13.4,4.5c-2.6,0-5.3-0.3-7.9-0.9c-2.6-0.6-5.3-1.5-8-2.7
								C74.4,36.2,74.4,72.9,74.4,72.9z"/>
						</g>
					</g>
				</g>
			</g>
			<g id="xtick_2">
				<g id="line2d_2">
					<g>
						<g>
							<path id="mc3a5dbed08_00000073690384664890384780000001679065637688902076_" class="st11" d="M159.7,318v3.5"/>
						</g>
					</g>
				</g>
				<g id="text_2">
					<g transform="translate(153.347061 332.638438) scale(0.1 -0.1)">
						<g>
							<path id="DejaVuSans-35_00000032607653105154486830000018377360767707471513_" d="M10.8,72.9h38.7v-8.3H19.8V46.7
								c1.4,0.5,2.9,0.9,4.3,1.1c1.4,0.2,2.9,0.4,4.3,0.4c8.1,0,14.6-2.2,19.3-6.7c4.8-4.5,7.1-10.5,7.1-18.1
								c0-7.8-2.4-13.9-7.3-18.3c-4.9-4.3-11.8-6.5-20.7-6.5c-3.1,0-6.2,0.3-9.4,0.8S11,0.7,7.6,1.7v9.9c2.9-1.6,6-2.8,9.1-3.6
								s6.4-1.2,9.9-1.2c5.6,0,10.1,1.5,13.4,4.4c3.3,3,4.9,7,4.9,12.1s-1.6,9.1-4.9,12c-3.3,3-7.7,4.5-13.4,4.5
								c-2.6,0-5.3-0.3-7.9-0.9c-2.6-0.6-5.3-1.5-8-2.7v36.7H10.8z"/>
						</g>
						<g>
							<path id="DejaVuSans-30" d="M95.4,66.4c-5.1,0-8.9-2.5-11.5-7.5s-3.8-12.5-3.8-22.5s1.3-17.5,3.8-22.5
								c2.6-5,6.4-7.5,11.5-7.5s8.9,2.5,11.5,7.5s3.8,12.5,3.8,22.5s-1.3,17.5-3.8,22.5S100.5,66.4,95.4,66.4z M95.4,74.2
								c8.2,0,14.4-3.2,18.7-9.7s6.5-15.8,6.5-28.1s-2.2-21.6-6.5-28.1s-10.6-9.7-18.7-9.7c-8.2,0-14.4,3.2-18.7,9.7
								c-4.3,6.5-6.5,15.8-6.5,28.1s2.2,21.7,6.5,28.1C81,71,87.2,74.2,95.4,74.2z"/>
						</g>
					</g>
				</g>
			</g>
			<g id="xtick_3">
				<g id="line2d_3">
					<g>
						<g>
							<path id="mc3a5dbed08_00000078013988026360529580000013246518269828570023_" class="st11" d="M245.6,318v3.5"/>
						</g>
					</g>
				</g>
				<g id="text_3">
					<g transform="translate(239.204942 332.638438) scale(0.1 -0.1)">
						<g>
							<path id="DejaVuSans-35_00000169516279672221083960000005586121338453265850_" d="M10.8,72.9h38.7v-8.3H19.8V46.7
								c1.4,0.5,2.9,0.9,4.3,1.1c1.4,0.2,2.9,0.4,4.3,0.4c8.1,0,14.6-2.2,19.3-6.7c4.8-4.5,7.1-10.5,7.1-18.1
								c0-7.8-2.4-13.9-7.3-18.3c-4.9-4.3-11.8-6.5-20.7-6.5c-3.1,0-6.2,0.3-9.4,0.8S11,0.7,7.6,1.7v9.9c2.9-1.6,6-2.8,9.1-3.6
								s6.4-1.2,9.9-1.2c5.6,0,10.1,1.5,13.4,4.4c3.3,3,4.9,7,4.9,12.1s-1.6,9.1-4.9,12c-3.3,3-7.7,4.5-13.4,4.5
								c-2.6,0-5.3-0.3-7.9-0.9c-2.6-0.6-5.3-1.5-8-2.7v36.7H10.8z"/>
						</g>
						<g>
							<path id="DejaVuSans-35_00000120532303088329232510000005593275544747519644_" d="M74.4,72.9h38.7v-8.3H83.5V46.7
								c1.4,0.5,2.9,0.9,4.3,1.1c1.4,0.2,2.9,0.4,4.3,0.4c8.1,0,14.6-2.2,19.3-6.7c4.8-4.5,7.1-10.5,7.1-18.1
								c0-7.8-2.4-13.9-7.3-18.3c-4.9-4.3-11.8-6.5-20.7-6.5c-3.1,0-6.2,0.3-9.4,0.8c-3.2,0.5-6.4,1.3-9.8,2.3v9.9
								c2.9-1.6,6-2.8,9.1-3.6s6.4-1.2,9.9-1.2c5.6,0,10.1,1.5,13.4,4.4c3.3,3,4.9,7,4.9,12.1s-1.6,9.1-4.9,12
								c-3.3,3-7.7,4.5-13.4,4.5c-2.6,0-5.3-0.3-7.9-0.9c-2.6-0.6-5.3-1.5-8-2.7C74.4,36.2,74.4,72.9,74.4,72.9z"/>
						</g>
					</g>
				</g>
			</g>
			<g id="xtick_4">
				<g id="line2d_4">
					<g>
						<g>
							<path id="mc3a5dbed08_00000050640991618295858070000006767757524977382314_" class="st11" d="M331.4,318v3.5"/>
						</g>
					</g>
				</g>
				<g id="text_4">
					<g transform="translate(325.062823 332.638438) scale(0.1 -0.1)">
						<g>
							<path id="DejaVuSans-36" d="M33,40.4c-4.4,0-7.9-1.5-10.5-4.5s-3.9-7.2-3.9-12.4s1.3-9.4,3.9-12.4S28.6,6.5,33,6.5
								s7.9,1.5,10.5,4.6s3.9,7.2,3.9,12.4c0,5.3-1.3,9.4-3.9,12.4C40.9,38.9,37.4,40.4,33,40.4z M52.6,71.3v-9
								c-2.5,1.2-5,2.1-7.5,2.7s-5,0.9-7.5,0.9c-6.5,0-11.5-2.2-14.9-6.6s-5.4-11-5.9-19.9c1.9,2.8,4.3,5,7.2,6.5s6.1,2.3,9.6,2.3
								c7.3,0,13.1-2.2,17.4-6.7c4.2-4.4,6.4-10.5,6.4-18.1c0-7.5-2.2-13.5-6.6-18C46.3,0.8,40.4-1.4,33-1.4
								c-8.4,0-14.9,3.2-19.3,9.7C9.2,14.7,7,24.1,7,36.4C7,47.9,9.7,57.1,15.2,64c5.5,6.9,12.8,10.3,22,10.3c2.5,0,5-0.2,7.5-0.7
								S49.9,72.3,52.6,71.3z"/>
						</g>
						<g>
							<path id="DejaVuSans-30_00000164499326587730442050000003084296451678434998_" d="M95.4,66.4c-5.1,0-8.9-2.5-11.5-7.5
								s-3.8-12.5-3.8-22.5s1.3-17.5,3.8-22.5c2.6-5,6.4-7.5,11.5-7.5s8.9,2.5,11.5,7.5s3.8,12.5,3.8,22.5s-1.3,17.5-3.8,22.5
								S100.5,66.4,95.4,66.4z M95.4,74.2c8.2,0,14.4-3.2,18.7-9.7s6.5-15.8,6.5-28.1s-2.2-21.6-6.5-28.1s-10.6-9.7-18.7-9.7
								c-8.2,0-14.4,3.2-18.7,9.7c-4.3,6.5-6.5,15.8-6.5,28.1s2.2,21.7,6.5,28.1C81,71,87.2,74.2,95.4,74.2z"/>
						</g>
					</g>
				</g>
			</g>
			<g id="xtick_5">
				<g id="line2d_5">
					<g>
						<g>
							<path id="mc3a5dbed08_00000022531645228387142150000002208151414774018955_" class="st11" d="M417.3,318v3.5"/>
						</g>
					</g>
				</g>
				<g id="text_5">
					<g transform="translate(410.920704 332.638438) scale(0.1 -0.1)">
						<g>
							<path id="DejaVuSans-36_00000100377731117125976120000005789425413216794497_" d="M33,40.4c-4.4,0-7.9-1.5-10.5-4.5
								s-3.9-7.2-3.9-12.4s1.3-9.4,3.9-12.4S28.6,6.5,33,6.5s7.9,1.5,10.5,4.6s3.9,7.2,3.9,12.4c0,5.3-1.3,9.4-3.9,12.4
								C40.9,38.9,37.4,40.4,33,40.4z M52.6,71.3v-9c-2.5,1.2-5,2.1-7.5,2.7s-5,0.9-7.5,0.9c-6.5,0-11.5-2.2-14.9-6.6
								s-5.4-11-5.9-19.9c1.9,2.8,4.3,5,7.2,6.5s6.1,2.3,9.6,2.3c7.3,0,13.1-2.2,17.4-6.7c4.2-4.4,6.4-10.5,6.4-18.1
								c0-7.5-2.2-13.5-6.6-18C46.3,0.8,40.4-1.4,33-1.4c-8.4,0-14.9,3.2-19.3,9.7C9.2,14.7,7,24.1,7,36.4C7,47.9,9.7,57.1,15.2,64
								c5.5,6.9,12.8,10.3,22,10.3c2.5,0,5-0.2,7.5-0.7S49.9,72.3,52.6,71.3z"/>
						</g>
						<g>
							<path id="DejaVuSans-35_00000008151000624726178980000001862752313585487778_" d="M74.4,72.9h38.7v-8.3H83.5V46.7
								c1.4,0.5,2.9,0.9,4.3,1.1c1.4,0.2,2.9,0.4,4.3,0.4c8.1,0,14.6-2.2,19.3-6.7c4.8-4.5,7.1-10.5,7.1-18.1
								c0-7.8-2.4-13.9-7.3-18.3c-4.9-4.3-11.8-6.5-20.7-6.5c-3.1,0-6.2,0.3-9.4,0.8c-3.2,0.5-6.4,1.3-9.8,2.3v9.9
								c2.9-1.6,6-2.8,9.1-3.6s6.4-1.2,9.9-1.2c5.6,0,10.1,1.5,13.4,4.4c3.3,3,4.9,7,4.9,12.1s-1.6,9.1-4.9,12
								c-3.3,3-7.7,4.5-13.4,4.5c-2.6,0-5.3-0.3-7.9-0.9c-2.6-0.6-5.3-1.5-8-2.7C74.4,36.2,74.4,72.9,74.4,72.9z"/>
						</g>
					</g>
				</g>
			</g>
			<g id="xtick_6">
				<g id="line2d_6">
					<g>
						<g>
							<path id="mc3a5dbed08_00000114064296590172441980000016652605666864549255_" class="st11" d="M503.1,318v3.5"/>
						</g>
					</g>
				</g>
				<g id="text_6">
					<g transform="translate(496.778585 332.638438) scale(0.1 -0.1)">
						<g>
							<path id="DejaVuSans-37" d="M8.2,72.9h46.9v-4.2L28.6,0H18.3l24.9,64.6h-35C8.2,64.6,8.2,72.9,8.2,72.9z"/>
						</g>
						<g>
							<path id="DejaVuSans-30_00000039101484352875826900000017769709330764143009_" d="M95.4,66.4c-5.1,0-8.9-2.5-11.5-7.5
								s-3.8-12.5-3.8-22.5s1.3-17.5,3.8-22.5c2.6-5,6.4-7.5,11.5-7.5s8.9,2.5,11.5,7.5s3.8,12.5,3.8,22.5s-1.3,17.5-3.8,22.5
								S100.5,66.4,95.4,66.4z M95.4,74.2c8.2,0,14.4-3.2,18.7-9.7s6.5-15.8,6.5-28.1s-2.2-21.6-6.5-28.1s-10.6-9.7-18.7-9.7
								c-8.2,0-14.4,3.2-18.7,9.7c-4.3,6.5-6.5,15.8-6.5,28.1s2.2,21.7,6.5,28.1C81,71,87.2,74.2,95.4,74.2z"/>
						</g>
					</g>
				</g>
			</g>
			<g id="xtick_7">
				<g id="line2d_7">
					<g>
						<g>
							<path id="mc3a5dbed08_00000092424842453970696770000013087120571786719630_" class="st11" d="M589,318v3.5"/>
						</g>
					</g>
				</g>
				<g id="text_7">
					<g transform="translate(582.636466 332.638438) scale(0.1 -0.1)">
						<g>
							<path id="DejaVuSans-37_00000123413599052498478220000002487271344109631374_" d="M8.2,72.9h46.9v-4.2L28.6,0H18.3l24.9,64.6
								h-35C8.2,64.6,8.2,72.9,8.2,72.9z"/>
						</g>
						<g>
							<path id="DejaVuSans-35_00000039835985873511767650000003877239571171039894_" d="M74.4,72.9h38.7v-8.3H83.5V46.7
								c1.4,0.5,2.9,0.9,4.3,1.1c1.4,0.2,2.9,0.4,4.3,0.4c8.1,0,14.6-2.2,19.3-6.7c4.8-4.5,7.1-10.5,7.1-18.1
								c0-7.8-2.4-13.9-7.3-18.3c-4.9-4.3-11.8-6.5-20.7-6.5c-3.1,0-6.2,0.3-9.4,0.8c-3.2,0.5-6.4,1.3-9.8,2.3v9.9
								c2.9-1.6,6-2.8,9.1-3.6s6.4-1.2,9.9-1.2c5.6,0,10.1,1.5,13.4,4.4c3.3,3,4.9,7,4.9,12.1s-1.6,9.1-4.9,12
								c-3.3,3-7.7,4.5-13.4,4.5c-2.6,0-5.3-0.3-7.9-0.9c-2.6-0.6-5.3-1.5-8-2.7C74.4,36.2,74.4,72.9,74.4,72.9z"/>
						</g>
					</g>
				</g>
			</g>
			<g id="xtick_8">
				<g id="line2d_8">
					<g>
						<g>
							<path id="mc3a5dbed08_00000069358950189877750690000004972046858898521786_" class="st11" d="M674.9,318v3.5"/>
						</g>
					</g>
				</g>
				<g id="text_8">
					<g transform="translate(668.494348 332.638438) scale(0.1 -0.1)">
						<g>
							<path id="DejaVuSans-38" d="M31.8,34.6c-4.7,0-8.4-1.3-11.1-3.8s-4-6-4-10.3c0-4.4,1.3-7.8,4-10.4c2.7-2.5,6.4-3.8,11.1-3.8
								s8.4,1.3,11.1,3.8c2.7,2.5,4.1,6,4.1,10.3c0,4.4-1.3,7.8-4,10.3C40.2,33.4,36.5,34.6,31.8,34.6z M21.9,38.8
								c-4.2,1-7.5,3-9.9,5.9s-3.5,6.4-3.5,10.6c0,5.8,2.1,10.4,6.2,13.8c4.2,3.4,9.8,5.1,17.1,5.1s13-1.7,17.1-5.1s6.2-8,6.2-13.8
								c0-4.2-1.2-7.7-3.5-10.6c-2.4-2.9-5.6-4.9-9.8-5.9c4.8-1.1,8.4-3.3,11.1-6.5s4-7.2,4-11.8c0-7.1-2.2-12.5-6.5-16.3
								C46,0.5,39.8-1.4,31.8-1.4S17.6,0.5,13.3,4.3C8.9,8,6.8,13.4,6.8,20.5c0,4.6,1.3,8.6,4,11.8S17.2,37.7,21.9,38.8z M18.3,54.4
								c0-3.8,1.2-6.7,3.5-8.8c2.4-2.1,5.7-3.2,9.9-3.2s7.6,1.1,9.9,3.2c2.4,2.1,3.6,5.1,3.6,8.8c0,3.8-1.2,6.7-3.6,8.8
								c-2.4,2.1-5.7,3.2-9.9,3.2c-4.3,0-7.6-1.1-9.9-3.2C19.5,61.1,18.3,58.2,18.3,54.4z"/>
						</g>
						<g>
							<path id="DejaVuSans-30_00000129907002120724231090000017146893539637929882_" d="M95.4,66.4c-5.1,0-8.9-2.5-11.5-7.5
								s-3.8-12.5-3.8-22.5s1.3-17.5,3.8-22.5c2.6-5,6.4-7.5,11.5-7.5s8.9,2.5,11.5,7.5s3.8,12.5,3.8,22.5s-1.3,17.5-3.8,22.5
								S100.5,66.4,95.4,66.4z M95.4,74.2c8.2,0,14.4-3.2,18.7-9.7s6.5-15.8,6.5-28.1s-2.2-21.6-6.5-28.1s-10.6-9.7-18.7-9.7
								c-8.2,0-14.4,3.2-18.7,9.7c-4.3,6.5-6.5,15.8-6.5,28.1s2.2,21.7,6.5,28.1C81,71,87.2,74.2,95.4,74.2z"/>
						</g>
					</g>
				</g>
			</g>
			<g id="text_9">
				<g transform="translate(308.569063 346.316563) scale(0.1 -0.1)">
					<g>
						<path id="DejaVuSans-4c" d="M9.8,72.9h9.9V8.3h35.5V0H9.8V72.9z"/>
					</g>
					<g>
						<path id="DejaVuSans-69" d="M65.1,54.7h9V0h-9V54.7z M65.1,76h9V64.6h-9V76z"/>
					</g>
					<g>
						<path id="DejaVuSans-66" d="M120.6,76v-7.5H112c-3.2,0-5.5-0.7-6.7-2s-1.9-3.6-1.9-7v-4.8h14.8v-7h-14.8V0h-9v47.7h-8.6v7h8.6
							v3.8c0,6.1,1.4,10.5,4.2,13.3c2.8,2.8,7.3,4.2,13.5,4.2H120.6z"/>
					</g>
					<g>
						<path id="DejaVuSans-65" d="M174.9,29.6v-4.4h-41.3c0.4-6.2,2.3-10.9,5.6-14.1s8-4.9,13.9-4.9c3.4,0,6.8,0.4,10,1.3
							c3.2,0.8,6.5,2.1,9.7,3.8V2.8c-3.2-1.4-6.5-2.4-9.9-3.1s-6.8-1.1-10.3-1.1c-8.7,0-15.6,2.5-20.7,7.6s-7.6,12-7.6,20.6
							c0,8.9,2.4,16,7.2,21.3c4.8,5.3,11.4,7.9,19.6,7.9c7.4,0,13.2-2.4,17.5-7.1C172.8,44.2,174.9,37.7,174.9,29.6z M165.9,32.2
							c-0.1,4.9-1.4,8.8-4.1,11.8c-2.7,2.9-6.2,4.4-10.7,4.4c-5,0-9-1.4-12-4.2s-4.7-6.8-5.2-12H165.9z"/>
					</g>
					<g>
						<path id="DejaVuSans-20" d="M180.2,0"/>
					</g>
					<g>
						<path id="DejaVuSans-45" d="M221.8,72.9h46.1v-8.3h-36.2V43h34.7v-8.3h-34.7V8.3h37.1V0h-47C221.8,0,221.8,72.9,221.8,72.9z"
							/>
					</g>
					<g>
						<path id="DejaVuSans-78" d="M330.1,54.7l-19.8-26.6L331.1,0h-10.6l-15.9,21.5L288.7,0h-10.6l21.2,28.6l-19.4,26.1h10.6
							L305,35.2l14.5,19.5H330.1z"/>
					</g>
					<g>
						<path id="DejaVuSans-70" d="M352.5,8.2v-29h-9v75.5h9v-8.3c1.9,3.2,4.3,5.7,7.2,7.2c2.9,1.6,6.3,2.4,10.3,2.4
							c6.6,0,12-2.6,16.2-7.9s6.2-12.2,6.2-20.8s-2.1-15.5-6.2-20.8s-9.5-7.9-16.2-7.9c-4,0-7.4,0.8-10.3,2.4
							C356.8,2.5,354.4,5,352.5,8.2z M383.1,27.3c0,6.6-1.4,11.8-4.1,15.5s-6.5,5.6-11.2,5.6c-4.8,0-8.5-1.9-11.2-5.6
							s-4.1-8.9-4.1-15.5s1.4-11.8,4.1-15.5s6.5-5.6,11.2-5.6c4.8,0,8.5,1.9,11.2,5.6S383.1,20.7,383.1,27.3z"/>
					</g>
					<g>
						<path id="DejaVuSans-65_00000085935852022466830310000000090586922942522030_" d="M454.1,29.6v-4.4h-41.3
							c0.4-6.2,2.3-10.9,5.6-14.1c3.3-3.2,8-4.9,13.9-4.9c3.4,0,6.8,0.4,10,1.3c3.2,0.8,6.5,2.1,9.7,3.8V2.8
							c-3.2-1.4-6.5-2.4-9.9-3.1s-6.8-1.1-10.3-1.1c-8.7,0-15.6,2.5-20.7,7.6s-7.6,12-7.6,20.6c0,8.9,2.4,16,7.2,21.3
							c4.8,5.3,11.4,7.9,19.6,7.9c7.4,0,13.2-2.4,17.5-7.1C451.9,44.2,454.1,37.7,454.1,29.6z M445.1,32.2C445,37.1,443.7,41,441,44
							c-2.7,2.9-6.2,4.4-10.7,4.4c-5,0-9-1.4-12-4.2s-4.7-6.8-5.2-12H445.1z"/>
					</g>
					<g>
						<path id="DejaVuSans-63" d="M508.2,52.6v-8.4c-2.5,1.4-5.1,2.5-7.6,3.2c-2.6,0.7-5.1,1-7.7,1c-5.8,0-10.4-1.8-13.6-5.5
							s-4.8-8.9-4.8-15.5s1.6-11.9,4.8-15.6c3.2-3.7,7.8-5.5,13.6-5.5c2.6,0,5.2,0.3,7.7,1c2.6,0.7,5.1,1.8,7.6,3.2V2.1
							c-2.5-1.2-5.1-2-7.8-2.6c-2.7-0.6-5.5-0.9-8.6-0.9c-8.2,0-14.8,2.6-19.6,7.8c-4.8,5.2-7.3,12.2-7.3,21c0,8.9,2.4,15.9,7.3,21
							s11.6,7.7,20.2,7.7c2.8,0,5.5-0.3,8.1-0.9C503.1,54.6,505.7,53.7,508.2,52.6z"/>
					</g>
					<g>
						<path id="DejaVuSans-74" d="M532.7,70.2V54.7h18.5v-7h-18.5V18c0-4.5,0.6-7.3,1.8-8.6s3.7-1.9,7.5-1.9h9.2V0H542
							c-6.9,0-11.7,1.3-14.4,3.9c-2.6,2.6-4,7.3-4,14.1v29.7H517v7h6.6v15.5H532.7z"/>
					</g>
					<g>
						<path id="DejaVuSans-61" d="M587.8,27.5c-7.3,0-12.3-0.8-15.1-2.5s-4.2-4.5-4.2-8.5c0-3.2,1.1-5.7,3.2-7.6
							c2.1-1.9,5-2.8,8.6-2.8c5,0,9,1.8,12,5.3s4.5,8.2,4.5,14.1v2H587.8z M605.8,31.2V0h-9v8.3c-2.1-3.3-4.6-5.8-7.7-7.3
							s-6.8-2.4-11.2-2.4c-5.6,0-10,1.6-13.4,4.7c-3.3,3.1-5,7.4-5,12.6c0,6.1,2.1,10.8,6.2,13.9c4.1,3.1,10.3,4.7,18.4,4.7h12.6
							v0.9c0,4.1-1.4,7.3-4.1,9.6s-6.5,3.4-11.5,3.4c-3.1,0-6.2-0.4-9.1-1.1c-3-0.8-5.8-1.9-8.5-3.4v8.3c3.3,1.3,6.5,2.2,9.6,2.8
							s6.1,1,9,1c7.9,0,13.8-2.1,17.7-6.2C603.8,45.8,605.8,39.5,605.8,31.2z"/>
					</g>
					<g>
						<path id="DejaVuSans-6e" d="M669.7,33V0h-9v32.7c0,5.2-1,9-3,11.6c-2,2.6-5,3.9-9.1,3.9c-4.9,0-8.7-1.5-11.5-4.6
							s-4.2-7.3-4.2-12.6V0h-9v54.7h9v-8.5c2.2,3.3,4.7,5.8,7.6,7.4c2.9,1.6,6.3,2.4,10.1,2.4c6.3,0,11-1.9,14.2-5.8
							C668.1,46.3,669.7,40.6,669.7,33z"/>
					</g>
					<g>
						<path id="DejaVuSans-63_00000176734057896758030820000013397266651215160716_" d="M727,52.6v-8.4c-2.5,1.4-5.1,2.5-7.6,3.2
							c-2.6,0.7-5.1,1-7.7,1c-5.8,0-10.4-1.8-13.6-5.5c-3.2-3.7-4.8-8.9-4.8-15.5s1.6-11.9,4.8-15.6s7.8-5.5,13.6-5.5
							c2.6,0,5.2,0.3,7.7,1c2.6,0.7,5.1,1.8,7.6,3.2V2.1c-2.5-1.2-5.1-2-7.8-2.6s-5.5-0.9-8.6-0.9c-8.2,0-14.8,2.6-19.6,7.8
							s-7.3,12.2-7.3,21c0,8.9,2.4,15.9,7.3,21c4.9,5.1,11.6,7.7,20.2,7.7c2.8,0,5.5-0.3,8.1-0.9C722,54.6,724.5,53.7,727,52.6z"/>
					</g>
					<g>
						<path id="DejaVuSans-79" d="M765.4-5.1c-2.5-6.5-5-10.8-7.4-12.7c-2.4-2-5.6-3-9.7-3h-7.2v7.5h5.3c2.5,0,4.4,0.6,5.8,1.8
							c1.4,1.2,2.9,3.9,4.5,8.3l1.6,4.1l-22.1,53.8h9.5l17.1-42.8l17.1,42.8h9.5L765.4-5.1z"/>
					</g>
					<g>
						<path id="DejaVuSans-20_00000005254592163409301540000006334618421069989003_" d="M792.4,0"/>
					</g>
					<g>
						<path id="DejaVuSans-53" d="M877.7,70.5v-9.6c-3.7,1.8-7.3,3.1-10.6,4s-6.5,1.3-9.6,1.3c-5.4,0-9.5-1-12.4-3.1
							c-2.9-2.1-4.4-5-4.4-8.9c0-3.2,1-5.7,2.9-7.3s5.6-3,11-4l6-1.2c7.4-1.4,12.8-3.9,16.3-7.4s5.2-8.3,5.2-14.2
							c0-7.1-2.4-12.4-7.1-16.1c-4.7-3.6-11.7-5.5-20.8-5.5c-3.4,0-7.1,0.4-11,1.2s-7.9,1.9-12.1,3.5v10.2c4-2.2,7.9-3.9,11.8-5.1
							c3.8-1.1,7.6-1.7,11.3-1.7c5.6,0,10,1.1,13,3.3c3.1,2.2,4.6,5.4,4.6,9.5c0,3.6-1.1,6.4-3.3,8.4s-5.8,3.5-10.8,4.5l-6,1.2
							c-7.4,1.5-12.7,3.8-16,6.9c-3.3,3.1-4.9,7.5-4.9,13c0,6.4,2.3,11.5,6.8,15.2s10.8,5.6,18.8,5.6c3.4,0,6.9-0.3,10.5-0.9
							C870.3,72.7,874,71.7,877.7,70.5z"/>
					</g>
					<g>
						<path id="DejaVuSans-69_00000040552311158064544840000007435000294660586907_" d="M897.1,54.7h9V0h-9V54.7z M897.1,76h9V64.6
							h-9V76z"/>
					</g>
					<g>
						<path id="DejaVuSans-6e_00000003806914893211078380000008857002323768878996_" d="M970.3,33V0h-9v32.7c0,5.2-1,9-3,11.6
							c-2,2.6-5,3.9-9.1,3.9c-4.9,0-8.7-1.5-11.5-4.6s-4.2-7.3-4.2-12.6V0h-9v54.7h9v-8.5c2.2,3.3,4.7,5.8,7.6,7.4
							c2.9,1.6,6.3,2.4,10.1,2.4c6.3,0,11-1.9,14.2-5.8C968.7,46.3,970.3,40.6,970.3,33z"/>
					</g>
					<g>
						<path id="DejaVuSans-63_00000033370340792738346680000001340438763762147501_" d="M1027.6,52.6v-8.4c-2.5,1.4-5.1,2.5-7.6,3.2
							c-2.6,0.7-5.1,1-7.7,1c-5.8,0-10.4-1.8-13.6-5.5c-3.2-3.7-4.8-8.9-4.8-15.5s1.6-11.9,4.8-15.6s7.8-5.5,13.6-5.5
							c2.6,0,5.2,0.3,7.7,1c2.6,0.7,5.1,1.8,7.6,3.2V2.1c-2.5-1.2-5.1-2-7.8-2.6s-5.5-0.9-8.6-0.9c-8.2,0-14.8,2.6-19.6,7.8
							s-7.3,12.2-7.3,21c0,8.9,2.4,15.9,7.3,21c4.9,5.1,11.6,7.7,20.2,7.7c2.8,0,5.5-0.3,8.1-0.9
							C1022.6,54.6,1025.1,53.7,1027.6,52.6z"/>
					</g>
					<g>
						<path id="DejaVuSans-65_00000147914101057904062310000017865489037203894956_" d="M1090,29.6v-4.4h-41.3
							c0.4-6.2,2.3-10.9,5.6-14.1s8-4.9,13.9-4.9c3.4,0,6.8,0.4,10,1.3s6.5,2.1,9.7,3.8V2.8c-3.2-1.4-6.5-2.4-9.9-3.1
							s-6.8-1.1-10.3-1.1c-8.7,0-15.6,2.5-20.7,7.6s-7.6,12-7.6,20.6c0,8.9,2.4,16,7.2,21.3c4.8,5.3,11.4,7.9,19.6,7.9
							c7.4,0,13.2-2.4,17.5-7.1C1087.9,44.2,1090,37.7,1090,29.6z M1081,32.2c-0.1,4.9-1.4,8.8-4.1,11.8c-2.7,2.9-6.2,4.4-10.7,4.4
							c-5,0-9-1.4-12-4.2s-4.7-6.8-5.2-12H1081z"/>
					</g>
					<g>
						<path id="DejaVuSans-20_00000052783645395339459330000002529816237513627801_" d="M1095.3,0"/>
					</g>
					<g>
						<path id="DejaVuSans-42" d="M1146.8,34.8V8.1h15.8c5.3,0,9.2,1.1,11.8,3.3c2.6,2.2,3.8,5.6,3.8,10.1c0,4.6-1.3,7.9-3.8,10.1
							c-2.6,2.2-6.5,3.3-11.8,3.3h-15.8V34.8z M1146.8,64.8v-22h14.6c4.8,0,8.4,0.9,10.8,2.7s3.5,4.6,3.5,8.3s-1.2,6.4-3.5,8.2
							c-2.4,1.8-5.9,2.7-10.8,2.7L1146.8,64.8L1146.8,64.8z M1136.9,72.9h25.2c7.5,0,13.3-1.6,17.4-4.7s6.1-7.6,6.1-13.3
							c0-4.5-1-8-3.1-10.7c-2.1-2.6-5.1-4.3-9.2-4.9c4.9-1,8.6-3.2,11.3-6.5c2.7-3.3,4-7.4,4-12.4c0-6.5-2.2-11.5-6.6-15.1
							c-4.4-3.5-10.7-5.3-18.9-5.3h-26.2L1136.9,72.9L1136.9,72.9z"/>
					</g>
					<g>
						<path id="DejaVuSans-69_00000070841565457590143780000011157705545072554371_" d="M1205.1,54.7h9V0h-9V54.7z M1205.1,76h9
							V64.6h-9V76z"/>
					</g>
					<g>
						<path id="DejaVuSans-72" d="M1264.6,46.3c-1,0.6-2.1,1-3.3,1.3c-1.2,0.3-2.5,0.4-3.9,0.4c-5.1,0-9-1.7-11.7-5s-4.1-8-4.1-14.2
							V0h-9v54.7h9v-8.5c1.9,3.3,4.4,5.8,7.4,7.4c3,1.6,6.7,2.4,11,2.4c0.6,0,1.3,0,2-0.1c0.8-0.1,1.6-0.2,2.5-0.4L1264.6,46.3z"/>
					</g>
					<g>
						<path id="DejaVuSans-74_00000066497061064383204590000002248960496858265739_" d="M1282.9,70.2V54.7h18.5v-7h-18.5V18
							c0-4.5,0.6-7.3,1.8-8.6s3.7-1.9,7.5-1.9h9.2V0h-9.2c-6.9,0-11.7,1.3-14.4,3.9c-2.6,2.6-4,7.3-4,14.1v29.7h-6.6v7h6.6v15.5
							H1282.9z"/>
					</g>
					<g>
						<path id="DejaVuSans-68" d="M1358.7,33V0h-9v32.7c0,5.2-1,9-3,11.6c-2,2.6-5,3.9-9.1,3.9c-4.9,0-8.7-1.5-11.5-4.6
							s-4.2-7.3-4.2-12.6V0h-9v76h9V46.2c2.2,3.3,4.7,5.8,7.6,7.4c2.9,1.6,6.3,2.4,10.1,2.4c6.3,0,11-1.9,14.2-5.8
							C1357.1,46.3,1358.7,40.6,1358.7,33z"/>
					</g>
				</g>
			</g>
		</g>
		<g id="matplotlib.axis_2">
			<g id="ytick_1">
				<g id="line2d_9">
					<g>
						<g>
							<path id="m97cd9ee5df" class="st11" d="M44.7,318h-3.5"/>
						</g>
					</g>
				</g>
				<g id="text_10">
					<g transform="translate(24.935 321.839219) scale(0.1 -0.1)">
						<g>
							<path id="DejaVuSans-32" d="M19.2,8.3h34.4V0H7.3v8.3c3.7,3.9,8.8,9.1,15.3,15.6s10.5,10.7,12.2,12.6c3.2,3.5,5.4,6.5,6.6,9
								c1.3,2.5,1.9,4.9,1.9,7.2c0,3.9-1.4,7-4.1,9.5c-2.7,2.4-6.3,3.7-10.6,3.7c-3.1,0-6.4-0.5-9.8-1.6c-3.4-1.1-7.1-2.7-11-4.9v10
								c4,1.6,7.7,2.8,11.1,3.6c3.5,0.8,6.6,1.2,9.5,1.2c7.6,0,13.6-1.9,18.1-5.7c4.5-3.8,6.7-8.8,6.7-15.1c0-3-0.6-5.8-1.7-8.5
								c-1.1-2.7-3.2-5.8-6.1-9.5c-0.8-0.9-3.4-3.7-7.8-8.2C33.3,22.7,27.1,16.4,19.2,8.3z"/>
						</g>
						<g>
							<path id="DejaVuSans-30_00000044882689111723111500000006231848863020787135_" d="M95.4,66.4c-5.1,0-8.9-2.5-11.5-7.5
								s-3.8-12.5-3.8-22.5s1.3-17.5,3.8-22.5c2.6-5,6.4-7.5,11.5-7.5s8.9,2.5,11.5,7.5s3.8,12.5,3.8,22.5s-1.3,17.5-3.8,22.5
								S100.5,66.4,95.4,66.4z M95.4,74.2c8.2,0,14.4-3.2,18.7-9.7s6.5-15.8,6.5-28.1s-2.2-21.6-6.5-28.1s-10.6-9.7-18.7-9.7
								c-8.2,0-14.4,3.2-18.7,9.7c-4.3,6.5-6.5,15.8-6.5,28.1s2.2,21.7,6.5,28.1C81,71,87.2,74.2,95.4,74.2z"/>
						</g>
					</g>
				</g>
			</g>
			<g id="ytick_2">
				<g id="line2d_10">
					<g>
						<g>
							<path id="m97cd9ee5df_00000084515759707804188260000008003518979969920700_" class="st11" d="M44.7,273.3h-3.5"/>
						</g>
					</g>
				</g>
				<g id="text_11">
					<g transform="translate(24.935 277.052552) scale(0.1 -0.1)">
						<g>
							<path id="DejaVuSans-32_00000145755916233165320230000003456521809600351142_" d="M19.2,8.3h34.4V0H7.3v8.3
								c3.7,3.9,8.8,9.1,15.3,15.6s10.5,10.7,12.2,12.6c3.2,3.5,5.4,6.5,6.6,9c1.3,2.5,1.9,4.9,1.9,7.2c0,3.9-1.4,7-4.1,9.5
								c-2.7,2.4-6.3,3.7-10.6,3.7c-3.1,0-6.4-0.5-9.8-1.6s-7.1-2.7-11-4.9v10c4,1.6,7.7,2.8,11.1,3.6c3.5,0.8,6.6,1.2,9.5,1.2
								c7.6,0,13.6-1.9,18.1-5.7c4.5-3.8,6.7-8.8,6.7-15.1c0-3-0.6-5.8-1.7-8.5c-1.1-2.7-3.2-5.8-6.1-9.5c-0.8-0.9-3.4-3.7-7.8-8.2
								C33.3,22.7,27.1,16.4,19.2,8.3z"/>
						</g>
						<g>
							<path id="DejaVuSans-32_00000157278827314330223850000012163602934638501302_" d="M82.8,8.3h34.4V0H71v8.3
								c3.7,3.9,8.8,9.1,15.3,15.6s10.5,10.7,12.2,12.6c3.2,3.5,5.4,6.5,6.6,9c1.3,2.5,1.9,4.9,1.9,7.2c0,3.9-1.4,7-4.1,9.5
								c-2.7,2.4-6.3,3.7-10.6,3.7c-3.1,0-6.4-0.5-9.8-1.6s-7.1-2.7-11-4.9v10c4,1.6,7.7,2.8,11.1,3.6c3.5,0.8,6.6,1.2,9.5,1.2
								c7.6,0,13.6-1.9,18.1-5.7c4.5-3.8,6.7-8.8,6.7-15.1c0-3-0.6-5.8-1.7-8.5s-3.2-5.8-6.1-9.5c-0.8-0.9-3.4-3.7-7.8-8.2
								C96.9,22.7,90.8,16.4,82.8,8.3z"/>
						</g>
					</g>
				</g>
			</g>
			<g id="ytick_3">
				<g id="line2d_11">
					<g>
						<g>
							<path id="m97cd9ee5df_00000018208225828396290110000008670845208601613709_" class="st11" d="M44.7,228.5h-3.5"/>
						</g>
					</g>
				</g>
				<g id="text_12">
					<g transform="translate(24.935 232.265885) scale(0.1 -0.1)">
						<g>
							<path id="DejaVuSans-32_00000061439058230092984550000013739560293776402329_" d="M19.2,8.3h34.4V0H7.3v8.3
								c3.7,3.9,8.8,9.1,15.3,15.6s10.5,10.7,12.2,12.6c3.2,3.5,5.4,6.5,6.6,9c1.3,2.5,1.9,4.9,1.9,7.2c0,3.9-1.4,7-4.1,9.5
								c-2.7,2.4-6.3,3.7-10.6,3.7c-3.1,0-6.4-0.5-9.8-1.6c-3.4-1.1-7.1-2.7-11-4.9v10c4,1.6,7.7,2.8,11.1,3.6
								c3.5,0.8,6.6,1.2,9.5,1.2c7.6,0,13.6-1.9,18.1-5.7c4.5-3.8,6.7-8.8,6.7-15.1c0-3-0.6-5.8-1.7-8.5c-1.1-2.7-3.2-5.8-6.1-9.5
								c-0.8-0.9-3.4-3.7-7.8-8.2C33.3,22.7,27.1,16.4,19.2,8.3z"/>
						</g>
						<g>
							<path id="DejaVuSans-34_00000005269130141982327460000005849332501466441602_" d="M101.4,64.3L76.5,25.4h24.9V64.3z
								 M98.8,72.9h12.4V25.4h10.4v-8.2h-10.4V0h-9.8v17.2H68.5v9.5L98.8,72.9z"/>
						</g>
					</g>
				</g>
			</g>
			<g id="ytick_4">
				<g id="line2d_12">
					<g>
						<g>
							<path id="m97cd9ee5df_00000096035968674630118340000015829008247186313886_" class="st11" d="M44.7,183.7h-3.5"/>
						</g>
					</g>
				</g>
				<g id="text_13">
					<g transform="translate(24.935 187.479219) scale(0.1 -0.1)">
						<g>
							<path id="DejaVuSans-32_00000115479928478128773630000011907411916136644780_" d="M19.2,8.3h34.4V0H7.3v8.3
								c3.7,3.9,8.8,9.1,15.3,15.6s10.5,10.7,12.2,12.6c3.2,3.5,5.4,6.5,6.6,9c1.3,2.5,1.9,4.9,1.9,7.2c0,3.9-1.4,7-4.1,9.5
								c-2.7,2.4-6.3,3.7-10.6,3.7c-3.1,0-6.4-0.5-9.8-1.6c-3.4-1.1-7.1-2.7-11-4.9v10c4,1.6,7.7,2.8,11.1,3.6
								c3.5,0.8,6.6,1.2,9.5,1.2c7.6,0,13.6-1.9,18.1-5.7c4.5-3.8,6.7-8.8,6.7-15.1c0-3-0.6-5.8-1.7-8.5c-1.1-2.7-3.2-5.8-6.1-9.5
								c-0.8-0.9-3.4-3.7-7.8-8.2C33.3,22.7,27.1,16.4,19.2,8.3z"/>
						</g>
						<g>
							<path id="DejaVuSans-36_00000173880871677141217560000001676709869656287149_" d="M96.6,40.4c-4.4,0-7.9-1.5-10.5-4.5
								s-3.9-7.2-3.9-12.4s1.3-9.4,3.9-12.4s6.1-4.6,10.5-4.6s7.9,1.5,10.5,4.6s3.9,7.2,3.9,12.4c0,5.3-1.3,9.4-3.9,12.4
								C104.6,38.9,101.1,40.4,96.6,40.4z M116.2,71.3v-9c-2.5,1.2-5,2.1-7.5,2.7s-5,0.9-7.5,0.9c-6.5,0-11.5-2.2-14.9-6.6
								s-5.4-11-5.9-19.9c1.9,2.8,4.3,5,7.2,6.5c2.9,1.5,6.1,2.3,9.6,2.3c7.3,0,13.1-2.2,17.4-6.7c4.2-4.4,6.4-10.5,6.4-18.1
								c0-7.5-2.2-13.5-6.6-18s-10.3-6.8-17.7-6.8c-8.4,0-14.9,3.2-19.3,9.7c-4.5,6.5-6.7,15.8-6.7,28.1c0,11.5,2.7,20.7,8.2,27.6
								c5.5,6.9,12.8,10.3,22,10.3c2.5,0,5-0.2,7.5-0.7C110.8,73,113.5,72.3,116.2,71.3z"/>
						</g>
					</g>
				</g>
			</g>
			<g id="ytick_5">
				<g id="line2d_13">
					<g>
						<g>
							<path id="m97cd9ee5df_00000007398399140906885630000016812572806523613097_" class="st11" d="M44.7,138.9h-3.5"/>
						</g>
					</g>
				</g>
				<g id="text_14">
					<g transform="translate(24.935 142.692552) scale(0.1 -0.1)">
						<g>
							<path id="DejaVuSans-32_00000092438742188175073470000009184095253603095211_" d="M19.2,8.3h34.4V0H7.3v8.3
								c3.7,3.9,8.8,9.1,15.3,15.6s10.5,10.7,12.2,12.6c3.2,3.5,5.4,6.5,6.6,9c1.3,2.5,1.9,4.9,1.9,7.2c0,3.9-1.4,7-4.1,9.5
								c-2.7,2.4-6.3,3.7-10.6,3.7c-3.1,0-6.4-0.5-9.8-1.6c-3.4-1.1-7.1-2.7-11-4.9v10c4,1.6,7.7,2.8,11.1,3.6
								c3.5,0.8,6.6,1.2,9.5,1.2c7.6,0,13.6-1.9,18.1-5.7c4.5-3.8,6.7-8.8,6.7-15.1c0-3-0.6-5.8-1.7-8.5c-1.1-2.7-3.2-5.8-6.1-9.5
								c-0.8-0.9-3.4-3.7-7.8-8.2C33.3,22.7,27.1,16.4,19.2,8.3z"/>
						</g>
						<g>
							<path id="DejaVuSans-38_00000175285066275448214870000012560048981870374042_" d="M95.4,34.6c-4.7,0-8.4-1.3-11.1-3.8
								s-4-6-4-10.3c0-4.4,1.3-7.8,4-10.4c2.7-2.5,6.4-3.8,11.1-3.8s8.4,1.3,11.1,3.8s4.1,6,4.1,10.3c0,4.4-1.3,7.8-4,10.3
								C103.8,33.4,100.1,34.6,95.4,34.6z M85.5,38.8c-4.2,1-7.5,3-9.9,5.9s-3.5,6.4-3.5,10.6c0,5.8,2.1,10.4,6.2,13.8
								c4.2,3.4,9.8,5.1,17.1,5.1c7.3,0,13-1.7,17.1-5.1s6.2-8,6.2-13.8c0-4.2-1.2-7.7-3.5-10.6c-2.4-2.9-5.6-4.9-9.8-5.9
								c4.8-1.1,8.4-3.3,11.1-6.5s4-7.2,4-11.8c0-7.1-2.2-12.5-6.5-16.3s-10.5-5.7-18.5-5.7S81.3,0.4,77,4.2s-6.5,9.2-6.5,16.3
								c0,4.6,1.3,8.6,4,11.8C77.1,35.5,80.8,37.7,85.5,38.8z M81.9,54.4c0-3.8,1.2-6.7,3.5-8.8c2.4-2.1,5.7-3.2,9.9-3.2
								c4.2,0,7.6,1.1,9.9,3.2c2.4,2.1,3.6,5.1,3.6,8.8c0,3.8-1.2,6.7-3.6,8.8c-2.4,2.1-5.7,3.2-9.9,3.2c-4.3,0-7.6-1.1-9.9-3.2
								C83.1,61.1,81.9,58.2,81.9,54.4z"/>
						</g>
					</g>
				</g>
			</g>
			<g id="ytick_6">
				<g id="line2d_14">
					<g>
						<g>
							<path id="m97cd9ee5df_00000139285944446563739200000013050112381937244058_" class="st11" d="M44.7,94.1h-3.5"/>
						</g>
					</g>
				</g>
				<g id="text_15">
					<g transform="translate(24.935 97.905885) scale(0.1 -0.1)">
						<g>
							<path id="DejaVuSans-33" d="M40.6,39.3c4.7-1,8.4-3.1,11-6.3c2.7-3.2,4-7.1,4-11.8c0-7.2-2.5-12.8-7.4-16.7s-12-5.9-21.1-5.9
								c-3.1,0-6.2,0.3-9.4,0.9S11.1,1,7.6,2.2v9.5c2.7-1.6,5.7-2.8,9-3.6s6.7-1.2,10.2-1.2c6.2,0,10.9,1.2,14.1,3.7s4.9,6,4.9,10.6
								c0,4.3-1.5,7.7-4.5,10.1s-7.2,3.6-12.6,3.6h-8.5V43h8.9c4.8,0,8.6,1,11.1,2.9s3.9,4.7,3.9,8.4s-1.3,6.6-4,8.6
								c-2.6,2-6.4,3-11.4,3c-2.7,0-5.6-0.3-8.7-0.9s-6.5-1.5-10.2-2.7v8.8c3.8,1,7.3,1.8,10.5,2.3s6.4,0.8,9.2,0.8
								c7.5,0,13.4-1.7,17.8-5.1s6.5-8,6.5-13.8c0-4-1.2-7.5-3.5-10.2S44.8,40.4,40.6,39.3z"/>
						</g>
						<g>
							<path id="DejaVuSans-30_00000104679403804066798580000003375738513812021899_" d="M95.4,66.4c-5.1,0-8.9-2.5-11.5-7.5
								s-3.8-12.5-3.8-22.5s1.3-17.5,3.8-22.5c2.6-5,6.4-7.5,11.5-7.5s8.9,2.5,11.5,7.5s3.8,12.5,3.8,22.5s-1.3,17.5-3.8,22.5
								S100.5,66.4,95.4,66.4z M95.4,74.2c8.2,0,14.4-3.2,18.7-9.7s6.5-15.8,6.5-28.1s-2.2-21.6-6.5-28.1s-10.6-9.7-18.7-9.7
								c-8.2,0-14.4,3.2-18.7,9.7c-4.3,6.5-6.5,15.8-6.5,28.1s2.2,21.7,6.5,28.1C81,71,87.2,74.2,95.4,74.2z"/>
						</g>
					</g>
				</g>
			</g>
			<g id="ytick_7">
				<g id="line2d_15">
					<g>
						<g>
							<path id="m97cd9ee5df_00000107547804440962768480000016723352844372555925_" class="st11" d="M44.7,49.3h-3.5"/>
						</g>
					</g>
				</g>
				<g id="text_16">
					<g transform="translate(24.935 53.119219) scale(0.1 -0.1)">
						<g>
							<path id="DejaVuSans-33_00000029017333546280390350000005827006201087561635_" d="M40.6,39.3c4.7-1,8.4-3.1,11-6.3
								c2.7-3.2,4-7.1,4-11.8c0-7.2-2.5-12.8-7.4-16.7s-12-5.9-21.1-5.9c-3.1,0-6.2,0.3-9.4,0.9S11.1,1,7.6,2.2v9.5
								c2.7-1.6,5.7-2.8,9-3.6c3.3-0.8,6.7-1.2,10.2-1.2c6.2,0,10.9,1.2,14.1,3.7s4.9,6,4.9,10.6c0,4.3-1.5,7.7-4.5,10.1
								s-7.2,3.6-12.6,3.6h-8.5V43h8.9c4.8,0,8.6,1,11.1,2.9s3.9,4.7,3.9,8.4s-1.3,6.6-4,8.6c-2.6,2-6.4,3-11.4,3
								c-2.7,0-5.6-0.3-8.7-0.9s-6.5-1.5-10.2-2.7v8.8c3.8,1,7.3,1.8,10.5,2.3s6.4,0.8,9.2,0.8c7.5,0,13.4-1.7,17.8-5.1
								s6.5-8,6.5-13.8c0-4-1.2-7.5-3.5-10.2S44.8,40.4,40.6,39.3z"/>
						</g>
						<g>
							<path id="DejaVuSans-32_00000178172149214343041580000009564828583464954811_" d="M82.8,8.3h34.4V0H71v8.3
								c3.7,3.9,8.8,9.1,15.3,15.6s10.5,10.7,12.2,12.6c3.2,3.5,5.4,6.5,6.6,9c1.3,2.5,1.9,4.9,1.9,7.2c0,3.9-1.4,7-4.1,9.5
								c-2.7,2.4-6.3,3.7-10.6,3.7c-3.1,0-6.4-0.5-9.8-1.6c-3.4-1.1-7.1-2.7-11-4.9v10c4,1.6,7.7,2.8,11.1,3.6
								c3.5,0.8,6.6,1.2,9.5,1.2c7.6,0,13.6-1.9,18.1-5.7c4.5-3.8,6.7-8.8,6.7-15.1c0-3-0.6-5.8-1.7-8.5s-3.2-5.8-6.1-9.5
								c-0.8-0.9-3.4-3.7-7.8-8.2C96.9,22.7,90.8,16.4,82.8,8.3z"/>
						</g>
					</g>
				</g>
			</g>
			<g id="text_17">
				<g transform="translate(18.855313 208.841719) rotate(-90) scale(0.1 -0.1)">
					<g>
						<path id="DejaVuSans-47" d="M59.5,10.4V30H43.4v8.1h25.9V6.8c-3.8-2.7-8-4.7-12.6-6.1C52.1-0.7,47.2-1.4,42-1.4
							c-11.4,0-20.3,3.3-26.8,10c-6.4,6.7-9.6,15.9-9.6,27.8s3.2,21.2,9.6,27.9c6.4,6.7,15.4,10,26.8,10c4.8,0,9.3-0.6,13.5-1.8
							c4.3-1.2,8.2-2.9,11.8-5.2V56.8c-3.6,3.1-7.5,5.4-11.6,7c-4.1,1.6-8.4,2.3-12.9,2.3c-8.9,0-15.6-2.5-20.1-7.5S16,46.2,16,36.3
							c0-9.8,2.2-17.2,6.7-22.2s11.2-7.5,20.1-7.5c3.5,0,6.6,0.3,9.3,0.9C54.9,8.2,57.3,9.1,59.5,10.4z"/>
					</g>
					<g>
						<path id="DejaVuSans-44" d="M97.2,64.8V8.1h11.9c10.1,0,17.4,2.3,22.1,6.8c4.7,4.6,7,11.8,7,21.6s-2.3,16.9-7,21.5
							c-4.7,4.5-12,6.8-22.1,6.8H97.2z M87.3,72.9h20.3c14.1,0,24.5-2.9,31.1-8.8s9.9-15.1,9.9-27.6c0-12.6-3.3-21.8-10-27.7
							c-6.6-5.9-17-8.8-31-8.8H87.3V72.9z"/>
					</g>
					<g>
						<path id="DejaVuSans-50" d="M174.2,64.8V37.4h12.4c4.6,0,8.1,1.2,10.6,3.6c2.5,2.4,3.8,5.8,3.8,10.2s-1.3,7.7-3.8,10.1
							s-6,3.6-10.6,3.6L174.2,64.8L174.2,64.8z M164.3,72.9h22.3c8.2,0,14.4-1.8,18.5-5.5c4.2-3.7,6.3-9.1,6.3-16.2
							c0-7.2-2.1-12.6-6.3-16.3c-4.2-3.7-10.4-5.5-18.5-5.5h-12.4V0h-9.9C164.3,0,164.3,72.9,164.3,72.9z"/>
					</g>
					<g>
						<path id="DejaVuSans-20_00000120559957464940875120000017214022249918491786_" d="M214.8,0"/>
					</g>
					<g>
						<path id="DejaVuSans-5b" d="M255.2,76h20.7v-7h-11.7V-6.2h11.7v-7h-20.7V76z"/>
					</g>
					<g>
						<path id="DejaVuSans-4c_00000165216966497440277520000007461881442141594516_" d="M295.4,72.9h9.9V8.3h35.5V0h-45.4V72.9z"/>
					</g>
					<g>
						<path id="DejaVuSans-6f" d="M370.2,48.4c-4.8,0-8.6-1.9-11.4-5.6c-2.8-3.8-4.2-8.9-4.2-15.5s1.4-11.7,4.2-15.5
							c2.8-3.8,6.6-5.6,11.5-5.6c4.8,0,8.6,1.9,11.4,5.7s4.2,8.9,4.2,15.4s-1.4,11.6-4.2,15.4C378.8,46.5,375,48.4,370.2,48.4z
							 M370.2,56c7.8,0,13.9-2.5,18.4-7.6s6.7-12.1,6.7-21.1c0-8.9-2.2-16-6.7-21.1S378-1.4,370.2-1.4s-14,2.5-18.4,7.6
							s-6.7,12.1-6.7,21.1s2.2,16,6.7,21.1C356.2,53.5,362.3,56,370.2,56z"/>
					</g>
					<g>
						<path id="DejaVuSans-67" d="M446.1,28c0,6.5-1.3,11.6-4,15.1c-2.7,3.6-6.4,5.4-11.3,5.4c-4.8,0-8.6-1.8-11.2-5.4
							c-2.7-3.6-4-8.6-4-15.1s1.3-11.5,4-15.1s6.4-5.4,11.2-5.4c4.9,0,8.6,1.8,11.3,5.4S446.1,21.5,446.1,28z M455.1,6.8
							c0-9.3-2.1-16.2-6.2-20.8c-4.1-4.5-10.5-6.8-19-6.8c-3.2,0-6.1,0.2-8.9,0.7s-5.5,1.2-8.2,2.2v8.7c2.6-1.4,5.2-2.5,7.8-3.2
							c2.6-0.7,5.2-1,7.9-1c5.9,0,10.3,1.5,13.2,4.6c2.9,3.1,4.4,7.7,4.4,13.9v4.5c-1.9-3.2-4.2-5.6-7.1-7.2S432.6,0,428.6,0
							c-6.7,0-12.1,2.6-16.2,7.7s-6.2,11.9-6.2,20.3c0,8.5,2.1,15.2,6.2,20.3s9.5,7.7,16.2,7.7c4,0,7.5-0.8,10.4-2.4
							c2.9-1.6,5.3-4,7.1-7.2v8.3h9C455.1,54.7,455.1,6.8,455.1,6.8z"/>
					</g>
					<g>
						<path id="DejaVuSans-5d" d="M494.6,76v-89.2h-20.7v7h11.7V69h-11.7v7H494.6z"/>
					</g>
				</g>
			</g>
		</g>
		<g id="line2d_16">
			<g>
				<g>
					<defs>
						<rect id="SVGID_00000147927911424587716270000011578450141629137560_" x="44.7" y="49.3" width="664.5" height="268.7"/>
					</defs>
					<clipPath id="SVGID_00000050628808449536200760000005155203981339332766_">
						<use xlink:href="#SVGID_00000147927911424587716270000011578450141629137560_"  style="overflow:visible;"/>
					</clipPath>
					
						<path style="clip-path:url(#SVGID_00000050628808449536200760000005155203981339332766_);fill:none;stroke:#1F77B4;stroke-width:1.5;stroke-linecap:square;stroke-linejoin:round;" d="
						M628.5,205.4l8.6,1.4l1.7-1.8l1.7-6.1l6.9-4.8l8.6-6.4l3.4-6.4l3.4,5.3l5.2-0.9l3.4-7.6l1.7-1.3l3.4-0.9l3.4,1.4l3.4,1.6"/>
				</g>
			</g>
		</g>
		<g id="line2d_17">
			<g>
				<g>
					<defs>
						<rect id="SVGID_00000103950950099953177100000003631277699787425156_" x="44.7" y="49.3" width="664.5" height="268.7"/>
					</defs>
					<clipPath id="SVGID_00000096059814903728952910000017312402540188218536_">
						<use xlink:href="#SVGID_00000103950950099953177100000003631277699787425156_"  style="overflow:visible;"/>
					</clipPath>
					
						<path style="clip-path:url(#SVGID_00000096059814903728952910000017312402540188218536_);fill:none;stroke:#808080;stroke-width:1.5;stroke-linecap:square;stroke-linejoin:round;stroke-opacity:0.5;" d="
						M532.3,142.9l8.6-2.3l8.6-2.1l6.9-2.7l6.9-3.7l6.9-3.5l5.2-4.2l3.4-5.7l1.7-5.8l6.9-2.4l1.7-4l3.4-4.8l3.4-2.7l3.4-2.6l3.4-2
						l5.2-1.2"/>
				</g>
			</g>
		</g>
		<g id="line2d_18">
			<g>
				<g>
					<defs>
						<rect id="SVGID_00000152980280034740557070000007311031248072389527_" x="44.7" y="49.3" width="664.5" height="268.7"/>
					</defs>
					<clipPath id="SVGID_00000106863192957564706100000009641388864396732095_">
						<use xlink:href="#SVGID_00000152980280034740557070000007311031248072389527_"  style="overflow:visible;"/>
					</clipPath>
					
						<path style="clip-path:url(#SVGID_00000106863192957564706100000009641388864396732095_);fill:none;stroke:#FF7F0E;stroke-width:1.5;stroke-linecap:square;stroke-linejoin:round;" d="
						M640.5,132.2h5.2l1.7-1.4l1.7-4.2l10.3-2.6l1.7-0.3l6.9-1.1l3.4-3l1.7-1.9l1.7,2.1h1.7l6.9-2.1l1.7,0.7l5.2-1.4l1.7,3.2"/>
				</g>
			</g>
		</g>
		<g id="line2d_19">
			<g>
				<g>
					<defs>
						<rect id="SVGID_00000136390405915940184170000015447885290424035241_" x="44.7" y="49.3" width="664.5" height="268.7"/>
					</defs>
					<clipPath id="SVGID_00000030463240927339541490000015619930533302599054_">
						<use xlink:href="#SVGID_00000136390405915940184170000015447885290424035241_"  style="overflow:visible;"/>
					</clipPath>
					
						<path style="clip-path:url(#SVGID_00000030463240927339541490000015619930533302599054_);fill:none;stroke:#808080;stroke-width:1.5;stroke-linecap:square;stroke-linejoin:round;stroke-opacity:0.5;" d="
						M585.6,155.7l3.4-1.4l5.2-3.9l1.7,2.6l3.4-7.5l1.7,4.1l1.7-1.7l3.4-1.7l1.7-2.6l3.4-0.3l5.2-1.7l1.7,2.4"/>
				</g>
			</g>
		</g>
		<g id="line2d_20">
			<g>
				<g>
					<defs>
						<rect id="SVGID_00000018943252295718293250000009032700153060141486_" x="44.7" y="49.3" width="664.5" height="268.7"/>
					</defs>
					<clipPath id="SVGID_00000027587805801980324840000014580579067231138957_">
						<use xlink:href="#SVGID_00000018943252295718293250000009032700153060141486_"  style="overflow:visible;"/>
					</clipPath>
					
						<path style="clip-path:url(#SVGID_00000027587805801980324840000014580579067231138957_);fill:none;stroke:#2CA02C;stroke-width:1.5;stroke-linecap:square;stroke-linejoin:round;" d="
						M619.9,94.9l1.7-0.6l1.7-0.8l3.4-1l5.2-2.2l5.2-2l5.2-0.9l1.7-0.3l5.2,0.5l3.4-1.3l1.7-1.4l1.7-0.7l3.4-0.9l3.4-0.9"/>
				</g>
			</g>
		</g>
		<g id="line2d_21">
			<g>
				<g>
					<defs>
						<rect id="SVGID_00000034783567648201584620000008224753569282790025_" x="44.7" y="49.3" width="664.5" height="268.7"/>
					</defs>
					<clipPath id="SVGID_00000160873720276918097190000018146969956766413235_">
						<use xlink:href="#SVGID_00000034783567648201584620000008224753569282790025_"  style="overflow:visible;"/>
					</clipPath>
					
						<path style="clip-path:url(#SVGID_00000160873720276918097190000018146969956766413235_);fill:none;stroke:#808080;stroke-width:1.5;stroke-linecap:square;stroke-linejoin:round;stroke-opacity:0.5;" d="
						M61.8,262.5l3.4,0.3l1.7-0.1l3.4-2.2L79,259l1.7,4.9l10.3-4.6l10.3,5.2l27.5,4.1l30.9-15l41.2-3.6l42.9-4l29.2-3.7l24-1.8
						l20.6-0.6l25.8-0.6"/>
				</g>
			</g>
		</g>
		<g id="patch_3">
			<path class="st18" d="M44.7,318V49.3"/>
		</g>
		<g id="patch_4">
			<path class="st18" d="M709.2,318V49.3"/>
		</g>
		<g id="patch_5">
			<path class="st18" d="M44.7,318h664.5"/>
		</g>
		<g id="patch_6">
			<path class="st18" d="M44.7,49.3h664.5"/>
		</g>
	</g>
	<g id="text_24">
		<g transform="translate(38.870625 25.43625) scale(0.24 -0.24)">
			<g>
				<path id="DejaVuSans-4c_00000146496162617577563440000006351723482392006562_" d="M365.4,35.6h7.7v-50.7H401v-6.5h-35.6V35.6z"
					/>
			</g>
			<g>
				<path id="DejaVuSans-69_00000093882436372331007240000015989514645641852325_" d="M408.9,21.3h7.1v-42.9h-7.1V21.3z M408.9,38
					h7.1v-9h-7.1V38z"/>
			</g>
			<g>
				<path id="DejaVuSans-66_00000047756975479358424560000017202426001962585768_" d="M452.4,38v-5.9h-6.7c-2.5,0-4.3-0.5-5.3-1.5
					s-1.5-2.9-1.5-5.5v-3.8h11.6v-5.5h-11.6v-37.5h-7.1v37.5h-6.7v5.5h6.7v3c0,4.8,1.1,8.3,3.3,10.4c2.2,2.2,5.7,3.3,10.6,3.3
					C445.7,38,452.4,38,452.4,38z"/>
			</g>
			<g>
				<path id="DejaVuSans-65_00000062915181523830692590000000550535377514586537_" d="M495,1.6v-3.4h-32.4c0.3-4.9,1.8-8.6,4.4-11.1
					s6.3-3.8,10.9-3.8c2.7,0,5.3,0.3,7.9,1c2.5,0.7,5.1,1.7,7.6,3v-6.7c-2.5-1.1-5.1-1.9-7.8-2.5c-2.7-0.6-5.4-0.8-8.1-0.8
					c-6.9,0-12.3,2-16.3,6s-6,9.4-6,16.2c0,7,1.9,12.6,5.7,16.7c3.8,4.1,8.9,6.2,15.4,6.2c5.8,0,10.3-1.9,13.7-5.6
					C493.4,13,495,8,495,1.6z M488,3.6c0,3.9-1.1,6.9-3.2,9.2s-4.9,3.5-8.4,3.5c-3.9,0-7.1-1.1-9.4-3.3s-3.7-5.4-4.1-9.4L488,3.6z"
					/>
			</g>
			<g>
				<path id="DejaVuSans-20_00000099660196329883698140000017187627010891252375_" d="M499.2-21.7"/>
			</g>
			<g>
				<path id="DejaVuSans-45_00000123399992212840586490000009903235221844345516_" d="M531.9,35.6h36.2V29h-28.4V12.1H567V5.6h-27.3
					v-20.7h29.1v-6.5h-36.9L531.9,35.6L531.9,35.6z"/>
			</g>
			<g>
				<path id="DejaVuSans-78_00000147906219706523069140000010061610359795804078_" d="M616.9,21.3L601.3,0.4l16.3-22h-8.3L596.9-4.8
					l-12.5-16.9H576l16.7,22.5l-15.3,20.5h8.3L597.2,6l11.4,15.3H616.9z"/>
			</g>
			<g>
				<path id="DejaVuSans-70_00000099634634920360560630000010358987536577471166_" d="M634.5-15.2V-38h-7.1v59.3h7.1v-6.5
					c1.5,2.6,3.4,4.4,5.6,5.7c2.3,1.2,5,1.9,8.1,1.9c5.2,0,9.5-2.1,12.7-6.2c3.3-4.1,4.9-9.6,4.9-16.3s-1.6-12.2-4.9-16.3
					c-3.3-4.1-7.5-6.2-12.7-6.2c-3.1,0-5.8,0.6-8.1,1.9C637.8-19.7,635.9-17.8,634.5-15.2z M658.5-0.2c0,5.2-1.1,9.3-3.2,12.2
					s-5.1,4.4-8.8,4.4s-6.7-1.5-8.8-4.4s-3.2-7-3.2-12.2s1.1-9.3,3.2-12.2s5.1-4.4,8.8-4.4s6.7,1.5,8.8,4.4S658.5-5.4,658.5-0.2z"/>
			</g>
			<g>
				<path id="DejaVuSans-65_00000124143379556888683060000005603725203053074085_" d="M714.2,1.6v-3.4h-32.4
					c0.3-4.9,1.8-8.6,4.4-11.1c2.6-2.5,6.3-3.8,10.9-3.8c2.7,0,5.3,0.3,7.9,1c2.5,0.7,5.1,1.7,7.6,3v-6.7c-2.5-1.1-5.1-1.9-7.8-2.5
					s-5.4-0.8-8.1-0.8c-6.9,0-12.3,2-16.3,6s-6,9.4-6,16.2c0,7,1.9,12.6,5.7,16.7s8.9,6.2,15.4,6.2c5.8,0,10.3-1.9,13.7-5.6
					C712.5,13,714.2,8,714.2,1.6z M707.1,3.6c0,3.9-1.1,6.9-3.2,9.2c-2.1,2.3-4.9,3.5-8.4,3.5c-3.9,0-7.1-1.1-9.4-3.3
					s-3.7-5.4-4.1-9.4L707.1,3.6z"/>
			</g>
			<g>
				<path id="DejaVuSans-63_00000070822753477058934160000012008787442527436172_" d="M756.7,19.6V13c-2,1.1-4,1.9-6,2.5
					c-2,0.6-4,0.8-6.1,0.8c-4.6,0-8.1-1.5-10.7-4.4c-2.5-2.9-3.8-7-3.8-12.2s1.3-9.3,3.8-12.2s6.1-4.3,10.7-4.3c2,0,4.1,0.3,6.1,0.8
					c2,0.5,4,1.4,6,2.5V-20c-2-0.9-4-1.6-6.1-2.1s-4.3-0.7-6.7-0.7c-6.5,0-11.6,2-15.4,6.1c-3.8,4.1-5.7,9.5-5.7,16.5
					s1.9,12.5,5.8,16.5c3.9,4,9.1,6,15.8,6c2.2,0,4.3-0.2,6.4-0.7C752.7,21.2,754.7,20.5,756.7,19.6z"/>
			</g>
			<g>
				<path id="DejaVuSans-74_00000110448903474253505130000000236044778324120503_" d="M775.9,33.5V21.3h14.5v-5.5h-14.5V-7.5
					c0-3.5,0.5-5.7,1.4-6.7c1-1,2.9-1.5,5.9-1.5h7.2v-5.9h-7.2c-5.4,0-9.2,1-11.3,3s-3.1,5.7-3.1,11.1v23.3h-5.2v5.5h5.2v12.2H775.9
					z"/>
			</g>
			<g>
				<path id="DejaVuSans-61_00000136384258048975265830000004400003408861275567_" d="M819.2-0.1c-5.7,0-9.7-0.7-11.9-2
					S804-5.6,804-8.8c0-2.5,0.8-4.5,2.5-6s3.9-2.2,6.7-2.2c3.9,0,7.1,1.4,9.4,4.2s3.5,6.5,3.5,11.1v1.6
					C826.1-0.1,819.2-0.1,819.2-0.1z M833.3,2.8v-24.5h-7.1v6.5c-1.6-2.6-3.6-4.5-6-5.8c-2.4-1.2-5.3-1.9-8.8-1.9
					c-4.4,0-7.9,1.2-10.5,3.7s-3.9,5.8-3.9,9.9c0,4.8,1.6,8.5,4.8,10.9c3.2,2.5,8.1,3.7,14.5,3.7h9.9V6c0,3.2-1.1,5.8-3.2,7.5
					s-5.1,2.7-9,2.7c-2.5,0-4.8-0.3-7.2-0.9c-2.3-0.6-4.6-1.5-6.7-2.6v6.5c2.6,1,5.1,1.7,7.5,2.2s4.8,0.7,7.1,0.7
					c6.2,0,10.9-1.6,13.9-4.8C831.8,14.3,833.3,9.4,833.3,2.8z"/>
			</g>
			<g>
				<path id="DejaVuSans-6e_00000067223372414758707320000017687633997718691734_" d="M883.5,4.3v-25.9h-7.1V4
					c0,4.1-0.8,7.1-2.4,9.1c-1.6,2-4,3-7.1,3c-3.8,0-6.8-1.2-9-3.6s-3.3-5.7-3.3-9.9v-24.3h-7.1v42.9h7.1v-6.7
					c1.7,2.6,3.7,4.5,6,5.8s4.9,1.9,7.9,1.9c4.9,0,8.7-1.5,11.2-4.6C882.3,14.7,883.5,10.2,883.5,4.3z"/>
			</g>
			<g>
				<path id="DejaVuSans-63_00000178200320802582308810000010434959146860200364_" d="M928.5,19.6V13c-2,1.1-4,1.9-6,2.5
					c-2,0.6-4,0.8-6.1,0.8c-4.6,0-8.1-1.5-10.7-4.4c-2.5-2.9-3.8-7-3.8-12.2s1.3-9.3,3.8-12.2s6.1-4.3,10.7-4.3c2,0,4.1,0.3,6.1,0.8
					c2,0.5,4,1.4,6,2.5V-20c-2-0.9-4-1.6-6.1-2.1s-4.3-0.7-6.7-0.7c-6.5,0-11.6,2-15.4,6.1c-3.8,4.1-5.7,9.5-5.7,16.5
					s1.9,12.5,5.8,16.5c3.9,4,9.1,6,15.8,6c2.2,0,4.3-0.2,6.4-0.7C924.5,21.2,926.6,20.5,928.5,19.6z"/>
			</g>
			<g>
				<path id="DejaVuSans-79_00000015348345459082277650000012110956051185136060_" d="M958.6-25.7c-2-5.1-3.9-8.4-5.8-10
					c-1.9-1.6-4.4-2.3-7.6-2.3h-5.6v5.9h4.1c1.9,0,3.4,0.5,4.5,1.4s2.3,3.1,3.6,6.5l1.3,3.2l-17.4,42.2h7.5l13.4-33.6L970,21.3h7.5
					L958.6-25.7z"/>
			</g>
			<g>
				<path id="DejaVuSans-20_00000013897053020528059230000018303168183272376230_" d="M979.8-21.7"/>
			</g>
			<g>
				<path id="DejaVuSans-70_00000116217242707579630170000005291220309427450003_" d="M1019-15.2V-38h-7.1v59.3h7.1v-6.5
					c1.5,2.6,3.4,4.4,5.6,5.7c2.3,1.2,5,1.9,8.1,1.9c5.2,0,9.5-2.1,12.7-6.2c3.3-4.1,4.9-9.6,4.9-16.3s-1.6-12.2-4.9-16.3
					s-7.5-6.2-12.7-6.2c-3.1,0-5.8,0.6-8.1,1.9C1022.4-19.7,1020.5-17.8,1019-15.2z M1043-0.2c0,5.2-1.1,9.3-3.2,12.2
					s-5.1,4.4-8.8,4.4c-3.7,0-6.7-1.5-8.8-4.4s-3.2-7-3.2-12.2s1.1-9.3,3.2-12.2s5.1-4.4,8.8-4.4s6.7,1.5,8.8,4.4S1043-5.4,1043-0.2
					z"/>
			</g>
			<g>
				<path id="DejaVuSans-65_00000181053174755079429860000001869139342690300060_" d="M1098.7,1.6v-3.4h-32.4
					c0.3-4.9,1.8-8.6,4.4-11.1s6.3-3.8,10.9-3.8c2.7,0,5.3,0.3,7.9,1c2.5,0.7,5.1,1.7,7.6,3v-6.7c-2.5-1.1-5.1-1.9-7.8-2.5
					c-2.7-0.6-5.4-0.8-8.1-0.8c-6.9,0-12.3,2-16.3,6s-6,9.4-6,16.2c0,7,1.9,12.6,5.7,16.7c3.8,4.1,8.9,6.2,15.4,6.2
					c5.8,0,10.3-1.9,13.7-5.6C1097.1,13,1098.7,8,1098.7,1.6z M1091.7,3.6c0,3.9-1.1,6.9-3.2,9.2s-4.9,3.5-8.4,3.5
					c-3.9,0-7.1-1.1-9.4-3.3s-3.7-5.4-4.1-9.4L1091.7,3.6z"/>
			</g>
			<g>
				<path id="DejaVuSans-72_00000139270254208797281970000014204835441188144819_" d="M1135.2,14.7c-0.8,0.5-1.7,0.8-2.6,1
					s-2,0.3-3.1,0.3c-4,0-7.1-1.3-9.2-3.9s-3.2-6.3-3.2-11.2v-22.6h-7.1v42.9h7.1v-6.7c1.5,2.6,3.4,4.5,5.8,5.8
					c2.4,1.3,5.3,1.9,8.7,1.9c0.5,0,1,0,1.6-0.1s1.2-0.2,2-0.3L1135.2,14.7z"/>
			</g>
			<g>
				<path id="DejaVuSans-20_00000064315092068492799570000009214172821717543868_" d="M1135.2-21.7"/>
			</g>
			<g>
				<path id="DejaVuSans-43_00000036937619109974621030000007168065452277499058_" d="M1210.7,31.2V23c-2.6,2.4-5.4,4.2-8.3,5.4
					c-3,1.2-6.1,1.8-9.4,1.8c-6.5,0-11.6-2-15-6c-3.5-4-5.2-9.8-5.2-17.3s1.7-13.3,5.2-17.3s8.5-6,15-6c3.3,0,6.5,0.6,9.4,1.8
					s5.7,3,8.3,5.4v-8.1c-2.7-1.8-5.6-3.2-8.6-4.1s-6.2-1.4-9.6-1.4c-8.7,0-15.5,2.6-20.5,7.9s-7.5,12.5-7.5,21.7s2.5,16.5,7.5,21.8
					s11.8,8,20.5,8c3.4,0,6.6-0.5,9.7-1.4C1205.2,34.3,1208.1,33,1210.7,31.2z"/>
			</g>
			<g>
				<path id="DejaVuSans-6f_00000005986558259172181460000011308732132242520472_" d="M1239,16.3c-3.8,0-6.8-1.5-9-4.4
					s-3.3-7-3.3-12.1s1.1-9.2,3.3-12.1c2.2-3,5.2-4.4,9-4.4s6.7,1.5,8.9,4.4c2.2,3,3.3,7,3.3,12.1s-1.1,9.1-3.3,12.1
					C1245.8,14.8,1242.8,16.3,1239,16.3z M1239,22.3c6.1,0,11-2,14.5-6s5.3-9.5,5.3-16.5s-1.8-12.5-5.3-16.5s-8.3-6-14.5-6
					s-11,2-14.5,6s-5.2,9.5-5.2,16.5s1.7,12.6,5.2,16.5C1228,20.3,1232.9,22.3,1239,22.3z"/>
			</g>
			<g>
				<path id="DejaVuSans-75" d="M1269.7-4.7v26h7.1V-4.5c0-4.1,0.8-7.1,2.4-9.2c1.6-2,4-3,7.1-3c3.8,0,6.8,1.2,9,3.6
					s3.3,5.7,3.3,9.9v24.3h7.1v-42.9h-7.1v6.6c-1.7-2.6-3.7-4.5-6-5.8c-2.3-1.3-4.9-1.9-7.9-1.9c-4.9,0-8.7,1.5-11.2,4.6
					C1271-15.1,1269.7-10.6,1269.7-4.7z M1287.4,22.3L1287.4,22.3z"/>
			</g>
			<g>
				<path id="DejaVuSans-6e_00000008829682812423492430000002629408498103185050_" d="M1355.9,4.3v-25.9h-7.1V4
					c0,4.1-0.8,7.1-2.4,9.1s-4,3-7.1,3c-3.8,0-6.8-1.2-9-3.6s-3.3-5.7-3.3-9.9v-24.3h-7.1v42.9h7.1v-6.7c1.7,2.6,3.7,4.5,6,5.8
					s4.9,1.9,7.9,1.9c4.9,0,8.7-1.5,11.2-4.6C1354.6,14.7,1355.9,10.2,1355.9,4.3z"/>
			</g>
			<g>
				<path id="DejaVuSans-74_00000040567164265992093890000001783280486917049532_" d="M1376.9,33.5V21.3h14.5v-5.5h-14.5V-7.5
					c0-3.5,0.5-5.7,1.4-6.7s2.9-1.5,5.9-1.5h7.2v-5.9h-7.2c-5.4,0-9.2,1-11.3,3c-2.1,2-3.1,5.7-3.1,11.1v23.3h-5.2v5.5h5.2v12.2
					H1376.9z"/>
			</g>
			<g>
				<path id="DejaVuSans-72_00000151527623067349098420000017722768130795929737_" d="M1425.6,14.7c-0.8,0.5-1.7,0.8-2.6,1
					s-2,0.3-3.1,0.3c-4,0-7.1-1.3-9.2-3.9s-3.2-6.3-3.2-11.2v-22.6h-7.1v42.9h7.1v-6.7c1.5,2.6,3.4,4.5,5.8,5.8
					c2.4,1.3,5.3,1.9,8.7,1.9c0.5,0,1,0,1.6-0.1s1.2-0.2,2-0.3L1425.6,14.7z"/>
			</g>
			<g>
				<path id="DejaVuSans-79_00000174603510312643678450000005702841810757563528_" d="M1450.9-25.7c-2-5.1-3.9-8.4-5.8-10
					c-1.9-1.6-4.4-2.3-7.6-2.3h-5.6v5.9h4.1c1.9,0,3.4,0.5,4.5,1.4s2.3,3.1,3.6,6.5l1.3,3.2L1428,21.2h7.5l13.4-33.6l13.4,33.6h7.5
					L1450.9-25.7z"/>
			</g>
			<g>
				<path id="DejaVuSans-20_00000041279496659231084200000009440556984477506690_" d="M1472.1-21.7"/>
			</g>
			<g>
				<path id="DejaVuSans-62_00000059276776021384275150000015126356088071121059_" d="M1535.2-0.2c0,5.2-1.1,9.3-3.2,12.2
					c-2.1,3-5.1,4.4-8.8,4.4c-3.7,0-6.7-1.5-8.8-4.4s-3.2-7-3.2-12.2s1.1-9.3,3.2-12.2s5.1-4.4,8.8-4.4c3.7,0,6.7,1.5,8.8,4.4
					C1534.2-9.5,1535.2-5.4,1535.2-0.2z M1511.2,14.8c1.5,2.6,3.4,4.4,5.6,5.7c2.3,1.2,5,1.9,8.1,1.9c5.2,0,9.5-2.1,12.7-6.2
					c3.3-4.1,4.9-9.6,4.9-16.3s-1.6-12.2-4.9-16.3s-7.5-6.2-12.7-6.2c-3.1,0-5.8,0.6-8.1,1.9c-2.3,1.2-4.1,3.1-5.6,5.7v-6.4h-7.1V38
					h7.1V14.8z"/>
			</g>
			<g>
				<path id="DejaVuSans-65_00000142139306485546035890000006048931277437333150_" d="M1591,1.6v-3.4h-32.4
					c0.3-4.9,1.8-8.6,4.4-11.1s6.3-3.8,10.9-3.8c2.7,0,5.3,0.3,7.9,1c2.5,0.7,5.1,1.7,7.6,3v-6.7c-2.5-1.1-5.1-1.9-7.8-2.5
					c-2.7-0.6-5.4-0.8-8.1-0.8c-6.9,0-12.3,2-16.3,6s-6,9.4-6,16.2c0,7,1.9,12.6,5.7,16.7c3.8,4.1,8.9,6.2,15.4,6.2
					c5.8,0,10.3-1.9,13.7-5.6C1589.3,13,1591,8,1591,1.6z M1583.9,3.6c0,3.9-1.1,6.9-3.2,9.2s-4.9,3.5-8.4,3.5
					c-3.9,0-7.1-1.1-9.4-3.3s-3.7-5.4-4.1-9.4L1583.9,3.6z"/>
			</g>
			<g>
				<path id="DejaVuSans-74_00000126298120120673696470000006981536164997066419_" d="M1609.5,33.5V21.3h14.5v-5.5h-14.5V-7.5
					c0-3.5,0.5-5.7,1.4-6.7c1-1,2.9-1.5,5.9-1.5h7.2v-5.9h-7.2c-5.4,0-9.2,1-11.3,3c-2.1,2-3.1,5.7-3.1,11.1v23.3h-5.2v5.5h5.2v12.2
					H1609.5z"/>
			</g>
			<g>
				<path id="DejaVuSans-77_00000147195283671793042130000007687702848594368936_" d="M1629.2,21.3h7.1l8.8-33.5l8.8,33.5h8.3
					l8.8-33.5l8.8,33.5h7.1l-11.2-42.9h-8.3l-9.2,35.2l-9.3-35.2h-8.3L1629.2,21.3z"/>
			</g>
			<g>
				<path id="DejaVuSans-65_00000163036163468617960080000011336999379693488051_" d="M1734.3,1.6v-3.4h-32.4
					c0.3-4.9,1.8-8.6,4.4-11.1s6.3-3.8,10.9-3.8c2.7,0,5.3,0.3,7.9,1c2.5,0.7,5.1,1.7,7.6,3v-6.7c-2.5-1.1-5.1-1.9-7.8-2.5
					c-2.7-0.6-5.4-0.8-8.1-0.8c-6.9,0-12.3,2-16.3,6s-6,9.4-6,16.2c0,7,1.9,12.6,5.7,16.7c3.8,4.1,8.9,6.2,15.4,6.2
					c5.8,0,10.3-1.9,13.7-5.6C1732.6,13,1734.3,8,1734.3,1.6z M1727.2,3.6c0,3.9-1.1,6.9-3.2,9.2s-4.9,3.5-8.4,3.5
					c-3.9,0-7.1-1.1-9.4-3.3s-3.7-5.4-4.1-9.4L1727.2,3.6z"/>
			</g>
			<g>
				<path id="DejaVuSans-65_00000124125504900577055460000006753012219393954956_" d="M1782.6,1.6v-3.4h-32.4
					c0.3-4.9,1.8-8.6,4.4-11.1s6.3-3.8,10.9-3.8c2.7,0,5.3,0.3,7.9,1c2.5,0.7,5.1,1.7,7.6,3v-6.7c-2.5-1.1-5.1-1.9-7.8-2.5
					c-2.7-0.6-5.4-0.8-8.1-0.8c-6.9,0-12.3,2-16.3,6s-6,9.4-6,16.2c0,7,1.9,12.6,5.7,16.7c3.8,4.1,8.9,6.2,15.4,6.2
					c5.8,0,10.3-1.9,13.7-5.6C1780.9,13,1782.6,8,1782.6,1.6z M1775.5,3.6c0,3.9-1.1,6.9-3.2,9.2s-4.9,3.5-8.4,3.5
					c-3.9,0-7.1-1.1-9.4-3.3s-3.7-5.4-4.1-9.4L1775.5,3.6z"/>
			</g>
			<g>
				<path id="DejaVuSans-6e_00000137099994786553185110000013549427231021570206_" d="M1829.9,4.3v-25.9h-7.1V4
					c0,4.1-0.8,7.1-2.4,9.1s-4,3-7.1,3c-3.8,0-6.8-1.2-9-3.6s-3.3-5.7-3.3-9.9v-24.3h-7.1v42.9h7.1v-6.7c1.7,2.6,3.7,4.5,6,5.8
					s4.9,1.9,7.9,1.9c4.9,0,8.7-1.5,11.2-4.6C1828.6,14.7,1829.9,10.2,1829.9,4.3z"/>
			</g>
			<g>
				<path id="DejaVuSans-20_00000126283634156563142750000018007034940487193988_" d="M1836.5-21.7"/>
			</g>
			<g>
				<path id="DejaVuSans-32_00000082335871782773919080000018023141987988160658_" d="M1876.5-15.2h27v-6.5h-36.3v6.5
					c2.9,3,6.9,7.1,12,12.2s8.3,8.4,9.6,9.9c2.5,2.8,4.2,5.1,5.2,7.1c1,1.9,1.5,3.8,1.5,5.7c0,3-1.1,5.5-3.2,7.4s-4.9,2.9-8.3,2.9
					c-2.4,0-5-0.4-7.7-1.3c-2.7-0.8-5.6-2.1-8.6-3.8v7.8c3.1,1.3,6,2.2,8.7,2.8s5.2,1,7.4,1c5.9,0,10.7-1.5,14.2-4.5
					s5.3-6.9,5.3-11.9c0-2.4-0.4-4.6-1.3-6.7s-2.5-4.6-4.8-7.4c-0.6-0.7-2.7-2.9-6.1-6.4C1887.6-3.8,1882.8-8.8,1876.5-15.2z"/>
			</g>
			<g>
				<path id="DejaVuSans-30_00000070826493216668407410000018060071425440217232_" d="M1936.4,30.5c-4,0-7-2-9-5.9s-3-9.8-3-17.7
					c0-7.8,1-13.7,3-17.7c2-3.9,5-5.9,9-5.9s7,2,9,5.9s3,9.8,3,17.7s-1,13.8-3,17.7S1940.4,30.5,1936.4,30.5z M1936.4,36.6
					c6.4,0,11.3-2.5,14.7-7.6c3.4-5.1,5.1-12.4,5.1-22.1c0-9.6-1.7-17-5.1-22.1s-8.3-7.6-14.7-7.6c-6.4,0-11.3,2.5-14.7,7.6
					c-3.4,5.1-5.1,12.4-5.1,22.1s1.7,17,5.1,22.1C1925.1,34.1,1930,36.6,1936.4,36.6z"/>
			</g>
			<g>
				<path id="DejaVuSans-30_00000101084813398947522740000013307484273191912875_" d="M1986.3,30.5c-4,0-7-2-9-5.9s-3-9.8-3-17.7
					c0-7.8,1-13.7,3-17.7c2-3.9,5-5.9,9-5.9s7,2,9,5.9s3,9.8,3,17.7s-1,13.8-3,17.7C1993.4,28.5,1990.3,30.5,1986.3,30.5z
					 M1986.3,36.6c6.4,0,11.3-2.5,14.7-7.6c3.4-5.1,5.1-12.4,5.1-22.1c0-9.6-1.7-17-5.1-22.1s-8.3-7.6-14.7-7.6
					c-6.4,0-11.3,2.5-14.7,7.6c-3.4,5.1-5.1,12.4-5.1,22.1s1.7,17,5.1,22.1C1975,34.1,1979.9,36.6,1986.3,36.6z"/>
			</g>
			<g>
				<path id="DejaVuSans-30_00000181773842060362932810000008977417206924769957_" d="M2036.3,30.5c-4,0-7-2-9-5.9s-3-9.8-3-17.7
					c0-7.8,1-13.7,3-17.7c2-3.9,5-5.9,9-5.9s7,2,9,5.9s3,9.8,3,17.7s-1,13.8-3,17.7S2040.3,30.5,2036.3,30.5z M2036.3,36.6
					c6.4,0,11.3-2.5,14.7-7.6s5.1-12.4,5.1-22.1c0-9.6-1.7-17-5.1-22.1c-3.4-5.1-8.3-7.6-14.7-7.6c-6.4,0-11.3,2.5-14.7,7.6
					c-3.4,5.1-5.1,12.4-5.1,22.1s1.7,17,5.1,22.1C2025,34.1,2029.9,36.6,2036.3,36.6z"/>
			</g>
			<g>
				<path id="DejaVuSans-20_00000105410729106334341910000001820581092153198771_" d="M2061.3-21.7"/>
			</g>
			<g>
				<path id="DejaVuSans-61_00000155107113476134130570000008314438320268793512_" d="M2113.1-0.1c-5.7,0-9.7-0.7-11.9-2
					s-3.3-3.5-3.3-6.7c0-2.5,0.8-4.5,2.5-6s3.9-2.2,6.7-2.2c3.9,0,7.1,1.4,9.4,4.2s3.5,6.5,3.5,11.1v1.6
					C2120-0.1,2113.1-0.1,2113.1-0.1z M2127.2,2.8v-24.5h-7.1v6.5c-1.6-2.6-3.6-4.5-6-5.8c-2.4-1.2-5.3-1.9-8.8-1.9
					c-4.4,0-7.9,1.2-10.5,3.7s-3.9,5.8-3.9,9.9c0,4.8,1.6,8.5,4.8,10.9c3.2,2.5,8.1,3.7,14.5,3.7h9.9V6c0,3.2-1.1,5.8-3.2,7.5
					c-2.1,1.8-5.1,2.7-9,2.7c-2.5,0-4.8-0.3-7.2-0.9c-2.3-0.6-4.6-1.5-6.7-2.6v6.5c2.6,1,5.1,1.7,7.5,2.2s4.8,0.7,7.1,0.7
					c6.2,0,10.9-1.6,13.9-4.8C2125.7,14.3,2127.2,9.4,2127.2,2.8z"/>
			</g>
			<g>
				<path id="DejaVuSans-6e_00000041294697592310017080000007543399449328530070_" d="M2177.4,4.3v-25.9h-7.1V4
					c0,4.1-0.8,7.1-2.4,9.1c-1.6,2-4,3-7.1,3c-3.8,0-6.8-1.2-9-3.6s-3.3-5.7-3.3-9.9v-24.3h-7.1v42.9h7.1v-6.7
					c1.7,2.6,3.7,4.5,6,5.8s4.9,1.9,7.9,1.9c4.9,0,8.7-1.5,11.2-4.6C2176.2,14.7,2177.4,10.2,2177.4,4.3z"/>
			</g>
			<g>
				<path id="DejaVuSans-64" d="M2219.8,14.8V38h7.1v-59.7h-7.1v6.4c-1.5-2.6-3.4-4.4-5.6-5.7c-2.3-1.2-5-1.9-8.1-1.9
					c-5.2,0-9.4,2.1-12.7,6.2s-4.9,9.6-4.9,16.3s1.6,12.2,4.9,16.3c3.3,4.1,7.5,6.2,12.7,6.2c3.2,0,5.9-0.6,8.1-1.9
					C2216.4,19.2,2218.3,17.3,2219.8,14.8z M2195.7-0.2c0-5.2,1.1-9.3,3.2-12.2s5.1-4.4,8.8-4.4s6.7,1.5,8.8,4.4
					c2.2,3,3.2,7,3.2,12.2s-1.1,9.3-3.2,12.2c-2.1,3-5.1,4.4-8.8,4.4s-6.7-1.5-8.8-4.4S2195.7,5,2195.7-0.2z"/>
			</g>
			<g>
				<path id="DejaVuSans-20_00000080192997489996091740000014294835297873171898_" d="M2233.9-21.7"/>
			</g>
			<g>
				<path id="DejaVuSans-32_00000062915172150259438240000007942033704349344956_" d="M2274-15.2h27v-6.5h-36.3v6.5
					c2.9,3,6.9,7.1,12,12.2s8.3,8.4,9.6,9.9c2.5,2.8,4.2,5.1,5.2,7.1c1,1.9,1.5,3.8,1.5,5.7c0,3-1.1,5.5-3.2,7.4
					c-2.1,1.9-4.9,2.9-8.3,2.9c-2.4,0-5-0.4-7.7-1.3c-2.7-0.8-5.6-2.1-8.6-3.8v7.8c3.1,1.3,6,2.2,8.7,2.8s5.2,1,7.4,1
					c5.9,0,10.7-1.5,14.2-4.5s5.3-6.9,5.3-11.9c0-2.4-0.4-4.6-1.3-6.7c-0.9-2.1-2.5-4.6-4.8-7.4c-0.6-0.7-2.7-2.9-6.1-6.4
					C2285-3.8,2280.2-8.8,2274-15.2z"/>
			</g>
			<g>
				<path id="DejaVuSans-30_00000134224049825527460720000001562080315363865012_" d="M2333.8,30.5c-4,0-7-2-9-5.9s-3-9.8-3-17.7
					c0-7.8,1-13.7,3-17.7c2-3.9,5-5.9,9-5.9s7,2,9,5.9s3,9.8,3,17.7s-1,13.8-3,17.7S2337.8,30.5,2333.8,30.5z M2333.8,36.6
					c6.4,0,11.3-2.5,14.7-7.6s5.1-12.4,5.1-22.1c0-9.6-1.7-17-5.1-22.1c-3.4-5.1-8.3-7.6-14.7-7.6s-11.3,2.5-14.7,7.6
					S2314-2.8,2314,6.9s1.7,17,5.1,22.1C2322.5,34.1,2327.4,36.6,2333.8,36.6z"/>
			</g>
			<g>
				<path id="DejaVuSans-31" d="M2368.5-15.2h12.6v43.7l-13.8-2.8v7.1l13.7,2.8h7.7v-50.7h12.6v-6.5h-33v6.4H2368.5z"/>
			</g>
			<g>
				<path id="DejaVuSans-35_00000056425591331148494410000014015756602484523171_" d="M2417.2,35.6h30.4V29h-23.3V15
					c1.1,0.4,2.2,0.7,3.4,0.9c1.1,0.2,2.3,0.3,3.4,0.3c6.4,0,11.4-1.8,15.2-5.3c3.7-3.5,5.6-8.2,5.6-14.2c0-6.2-1.9-10.9-5.8-14.4
					c-3.8-3.4-9.2-5.1-16.2-5.1c-2.4,0-4.9,0.2-7.3,0.6c-2.5,0.4-5.1,1-7.7,1.8v7.8c2.3-1.3,4.7-2.2,7.1-2.8c2.5-0.6,5-0.9,7.8-0.9
					c4.4,0,7.9,1.2,10.5,3.5s3.9,5.5,3.9,9.5s-1.3,7.1-3.9,9.5c-2.6,2.3-6.1,3.5-10.5,3.5c-2.1,0-4.1-0.2-6.2-0.7
					c-2.1-0.5-4.2-1.2-6.3-2.1L2417.2,35.6L2417.2,35.6z"/>
			</g>
		</g>
	</g>
</g>
<rect x="347.8" y="235.1" class="st19" width="140.7" height="25.4"/>
<text transform="matrix(1 0 0 1 347.7613 243.6126)" class="st20 st21 st22">Zimbabwe</text>
<rect x="615" y="149.2" class="st19" width="113.4" height="17.9"/>
<text transform="matrix(1 0 0 1 614.9805 157.7545)" class="st20 st21 st22">Mexico</text>
<rect x="45.1" y="41.2" class="st1" width="670.6" height="9.9"/>
<rect x="708.5" y="43.6" class="st1" width="8.1" height="274"/>
<rect x="666.6" y="75" class="st19" width="87" height="32.5"/>
<text transform="matrix(1 0 0 1 666.5787 83.5339)" class="st23 st21 st22">USA</text>
<rect x="688" y="178.1" class="st19" width="77.6" height="24"/>
<text transform="matrix(1 0 0 1 687.962 186.6069)" class="st24 st21 st22">Chile</text>
<rect x="588.8" y="78.5" class="st19" width="77.2" height="17.9"/>
<text transform="matrix(1 0 0 1 588.77 87.0137)" class="st20 st21 st22">China</text>
<rect x="692.1" y="123.3" class="st19" width="102.6" height="21.2"/>
<text transform="matrix(1 0 0 1 692.0673 131.7734)" class="st25 st21 st22">Germany</text>
</svg>
