<?xml version="1.0" encoding="utf-8"?>
<!-- Generator: Adobe Illustrator 27.9.0, SVG Export Plug-In . SVG Version: 6.00 Build 0)  -->
<svg version="1.1" id="Layer_1" xmlns="http://www.w3.org/2000/svg" xmlns:xlink="http://www.w3.org/1999/xlink" x="0px" y="0px"
	 viewBox="0 0 720 360" style="enable-background:new 0 0 720 360;" xml:space="preserve">
<style type="text/css">
	.st0{fill:#FFFFFF;}
	.st1{clip-path:url(#SVGID_00000129166947568940049320000016052697380649354404_);}
	.st2{fill:#1F77B4;stroke:#FFFFFF;stroke-width:0.48;stroke-linejoin:round;}
	.st3{clip-path:url(#SVGID_00000094609068642230050850000009912178314841423746_);}
	.st4{fill:#FF7F0E;stroke:#FFFFFF;stroke-width:0.48;stroke-linejoin:round;}
	.st5{clip-path:url(#SVGID_00000076567720686268945280000011528385963948156594_);}
	.st6{fill:#2CA02C;stroke:#FFFFFF;stroke-width:0.48;stroke-linejoin:round;}
	.st7{stroke:#000000;stroke-width:0.8;stroke-linejoin:round;}
	
		.st8{clip-path:url(#SVGID_00000163072596687855200410000004645174592933147309_);fill:none;stroke:#FF0000;stroke-width:1.5;stroke-linecap:square;stroke-linejoin:round;}
	.st9{fill:none;stroke:#000000;stroke-width:0.8;stroke-linecap:square;}
	.st10{fill:none;}
	.st11{fill:#4A5FAB;}
	.st12{font-family:'Helvetica-Bold';}
	.st13{font-size:12px;}
	.st14{fill:#F89938;}
	.st15{fill:#17B24F;}
	.st16{opacity:4.000000e-02;fill:#4A5FAB;}
	.st17{font-size:8px;}
	.st18{fill:#0C8040;}
	.st19{fill:#F2AB1E;}
	.st20{fill:#3C57A7;}
</style>
<g id="patch_1">
	<path class="st0" d="M0,360h720V0H0V360z"/>
</g>
<g id="axes_1">
	<g id="patch_2">
		<path class="st0" d="M90,320.4h558V43.2H90V320.4z"/>
	</g>
	<g id="PathCollection_1">
		<g>
			<defs>
				<rect id="SVGID_1_" x="90" y="43.2" width="558" height="277.2"/>
			</defs>
			<clipPath id="SVGID_00000175303833019083927490000009761926809574263725_">
				<use xlink:href="#SVGID_1_"  style="overflow:visible;"/>
			</clipPath>
			<g style="clip-path:url(#SVGID_00000175303833019083927490000009761926809574263725_);">
				<g>
					<path id="m5bae49bc01" class="st2" d="M310.3,305.8c0.8,0,1.6-0.3,2.1-0.9c0.6-0.6,0.9-1.3,0.9-2.1s-0.3-1.6-0.9-2.1
						c-0.6-0.6-1.3-0.9-2.1-0.9s-1.6,0.3-2.1,0.9c-0.6,0.6-0.9,1.3-0.9,2.1s0.3,1.6,0.9,2.1C308.7,305.5,309.5,305.8,310.3,305.8z"
						/>
				</g>
				<g>
					<path id="m5bae49bc01_00000083772332988886455650000010223335177727006855_" class="st2" d="M310.3,310c0.8,0,1.6-0.3,2.1-0.9
						c0.6-0.6,0.9-1.3,0.9-2.1s-0.3-1.6-0.9-2.1c-0.6-0.6-1.3-0.9-2.1-0.9s-1.6,0.3-2.1,0.9c-0.6,0.6-0.9,1.3-0.9,2.1
						s0.3,1.6,0.9,2.1C308.7,309.7,309.5,310,310.3,310z"/>
				</g>
				<g>
					<path id="m5bae49bc01_00000029745416860915683410000012557993326385403561_" class="st2" d="M323.6,310.8
						c0.8,0,1.6-0.3,2.1-0.9c0.6-0.6,0.9-1.3,0.9-2.1s-0.3-1.6-0.9-2.1c-0.6-0.6-1.3-0.9-2.1-0.9s-1.6,0.3-2.1,0.9
						c-0.6,0.6-0.9,1.3-0.9,2.1s0.3,1.6,0.9,2.1C322.1,310.5,322.8,310.8,323.6,310.8z"/>
				</g>
				<g>
					<path id="m5bae49bc01_00000056409680955384193640000009780707015998938269_" class="st2" d="M326.3,307.1
						c0.8,0,1.6-0.3,2.1-0.9c0.6-0.6,0.9-1.3,0.9-2.1s-0.3-1.6-0.9-2.1c-0.6-0.6-1.3-0.9-2.1-0.9s-1.6,0.3-2.1,0.9
						c-0.6,0.6-0.9,1.3-0.9,2.1s0.3,1.6,0.9,2.1C324.7,306.8,325.5,307.1,326.3,307.1z"/>
				</g>
				<g>
					<path id="m5bae49bc01_00000036945474240300583840000012210358420108035502_" class="st2" d="M329,294.8c0.8,0,1.6-0.3,2.1-0.9
						c0.6-0.6,0.9-1.3,0.9-2.1s-0.3-1.6-0.9-2.1c-0.6-0.6-1.3-0.9-2.1-0.9s-1.6,0.3-2.1,0.9c-0.6,0.6-0.9,1.3-0.9,2.1
						s0.3,1.6,0.9,2.1C327.4,294.5,328.2,294.8,329,294.8z"/>
				</g>
				<g>
					<path id="m5bae49bc01_00000056414754114743086950000007437582071866180283_" class="st2" d="M339.6,285.1
						c0.8,0,1.6-0.3,2.1-0.9c0.6-0.6,0.9-1.3,0.9-2.1s-0.3-1.6-0.9-2.1c-0.6-0.6-1.3-0.9-2.1-0.9s-1.6,0.3-2.1,0.9
						c-0.6,0.6-0.9,1.3-0.9,2.1s0.3,1.6,0.9,2.1C338.1,284.8,338.8,285.1,339.6,285.1z"/>
				</g>
				<g>
					<path id="m5bae49bc01_00000124128087804788648540000003550081812906036125_" class="st2" d="M353,274.7c0.8,0,1.6-0.3,2.1-0.9
						c0.6-0.6,0.9-1.3,0.9-2.1s-0.3-1.6-0.9-2.1c-0.6-0.6-1.3-0.9-2.1-0.9s-1.6,0.3-2.1,0.9c-0.6,0.6-0.9,1.3-0.9,2.1
						s0.3,1.6,0.9,2.1C351.4,274.3,352.2,274.7,353,274.7z"/>
				</g>
				<g>
					<path id="m5bae49bc01_00000098924727919830856060000016923056300270795413_" class="st2" d="M353,269.5c0.8,0,1.6-0.3,2.1-0.9
						c0.6-0.6,0.9-1.3,0.9-2.1s-0.3-1.6-0.9-2.1c-0.6-0.6-1.3-0.9-2.1-0.9s-1.6,0.3-2.1,0.9c-0.6,0.6-0.9,1.3-0.9,2.1
						s0.3,1.6,0.9,2.1C351.4,269.1,352.2,269.5,353,269.5z"/>
				</g>
				<g>
					<path id="m5bae49bc01_00000142136034931474977760000003938551916825130130_" class="st2" d="M371.7,267.9
						c0.8,0,1.6-0.3,2.1-0.9c0.6-0.6,0.9-1.3,0.9-2.1s-0.3-1.6-0.9-2.1c-0.6-0.6-1.3-0.9-2.1-0.9s-1.6,0.3-2.1,0.9
						c-0.6,0.6-0.9,1.3-0.9,2.1s0.3,1.6,0.9,2.1C370.1,267.6,370.9,267.9,371.7,267.9z"/>
				</g>
				<g>
					<path id="m5bae49bc01_00000121960330711457685280000017054314883717774494_" class="st2" d="M363.7,269.8
						c0.8,0,1.6-0.3,2.1-0.9c0.6-0.6,0.9-1.3,0.9-2.1s-0.3-1.6-0.9-2.1c-0.6-0.6-1.3-0.9-2.1-0.9s-1.6,0.3-2.1,0.9
						c-0.6,0.6-0.9,1.3-0.9,2.1s0.3,1.6,0.9,2.1C362.1,269.5,362.9,269.8,363.7,269.8z"/>
				</g>
				<g>
					<path id="m5bae49bc01_00000093897567630975441190000016070753404781640083_" class="st2" d="M358.3,259c0.8,0,1.6-0.3,2.1-0.9
						c0.6-0.6,0.9-1.3,0.9-2.1c0-0.8-0.3-1.6-0.9-2.1c-0.6-0.6-1.3-0.9-2.1-0.9s-1.6,0.3-2.1,0.9c-0.6,0.6-0.9,1.3-0.9,2.1
						c0,0.8,0.3,1.6,0.9,2.1C356.8,258.7,357.5,259,358.3,259z"/>
				</g>
				<g>
					<path id="m5bae49bc01_00000096737913241970239460000010381503705073394618_" class="st2" d="M377,252.5c0.8,0,1.6-0.3,2.1-0.9
						c0.6-0.6,0.9-1.3,0.9-2.1s-0.3-1.6-0.9-2.1c-0.6-0.6-1.3-0.9-2.1-0.9s-1.6,0.3-2.1,0.9c-0.6,0.6-0.9,1.3-0.9,2.1
						s0.3,1.6,0.9,2.1C375.5,252.2,376.2,252.5,377,252.5z"/>
				</g>
				<g>
					<path id="m5bae49bc01_00000023978547025043524940000010266958946499980696_" class="st2" d="M379.7,249.9
						c0.8,0,1.6-0.3,2.1-0.9c0.6-0.6,0.9-1.3,0.9-2.1s-0.3-1.6-0.9-2.1c-0.6-0.6-1.3-0.9-2.1-0.9s-1.6,0.3-2.1,0.9
						c-0.6,0.6-0.9,1.3-0.9,2.1s0.3,1.6,0.9,2.1C378.1,249.6,378.9,249.9,379.7,249.9z"/>
				</g>
				<g>
					<path id="m5bae49bc01_00000090296540841658848510000012231124307503914657_" class="st2" d="M385,248c0.8,0,1.6-0.3,2.1-0.9
						c0.6-0.6,0.9-1.3,0.9-2.1s-0.3-1.6-0.9-2.1c-0.6-0.6-1.3-0.9-2.1-0.9s-1.6,0.3-2.1,0.9c-0.6,0.6-0.9,1.3-0.9,2.1
						s0.3,1.6,0.9,2.1C383.5,247.7,384.2,248,385,248z"/>
				</g>
				<g>
					<path id="m5bae49bc01_00000121264568265286833550000015861204987923183492_" class="st2" d="M390.4,251c0.8,0,1.6-0.3,2.1-0.9
						c0.6-0.6,0.9-1.3,0.9-2.1s-0.3-1.6-0.9-2.1c-0.6-0.6-1.3-0.9-2.1-0.9s-1.6,0.3-2.1,0.9c-0.6,0.6-0.9,1.3-0.9,2.1
						s0.3,1.6,0.9,2.1C388.8,250.7,389.6,251,390.4,251z"/>
				</g>
				<g>
					<path id="m5bae49bc01_00000034789945528182074130000017422114892132833431_" class="st2" d="M395.7,254.3
						c0.8,0,1.6-0.3,2.1-0.9c0.6-0.6,0.9-1.3,0.9-2.1s-0.3-1.6-0.9-2.1c-0.6-0.6-1.3-0.9-2.1-0.9s-1.6,0.3-2.1,0.9
						c-0.6,0.6-0.9,1.3-0.9,2.1s0.3,1.6,0.9,2.1C394.1,254,394.9,254.3,395.7,254.3z"/>
				</g>
			</g>
		</g>
	</g>
	<g id="PathCollection_2">
		<g>
			<defs>
				<rect id="SVGID_00000089545163910393094990000004258306747003159231_" x="90" y="43.2" width="558" height="277.2"/>
			</defs>
			<clipPath id="SVGID_00000127025296946138941460000010041508917285717632_">
				<use xlink:href="#SVGID_00000089545163910393094990000004258306747003159231_"  style="overflow:visible;"/>
			</clipPath>
			<g style="clip-path:url(#SVGID_00000127025296946138941460000010041508917285717632_);">
				<g>
					<path id="m0229a68b34" class="st4" d="M329,159.8c0.8,0,1.6-0.3,2.1-0.9c0.6-0.6,0.9-1.3,0.9-2.1s-0.3-1.6-0.9-2.1
						c-0.6-0.6-1.3-0.9-2.1-0.9s-1.6,0.3-2.1,0.9c-0.6,0.6-0.9,1.3-0.9,2.1s0.3,1.6,0.9,2.1C327.4,159.5,328.2,159.8,329,159.8z"/>
				</g>
				<g>
					<path id="m0229a68b34_00000071560645045791036850000012547985752255284101_" class="st4" d="M337,159.8c0.8,0,1.6-0.3,2.1-0.9
						c0.6-0.6,0.9-1.3,0.9-2.1s-0.3-1.6-0.9-2.1c-0.6-0.6-1.3-0.9-2.1-0.9s-1.6,0.3-2.1,0.9c-0.6,0.6-0.9,1.3-0.9,2.1
						s0.3,1.6,0.9,2.1C335.4,159.5,336.2,159.8,337,159.8z"/>
				</g>
				<g>
					<path id="m0229a68b34_00000038400259441442765790000015956816206750561445_" class="st4" d="M339.6,156.9
						c0.8,0,1.6-0.3,2.1-0.9c0.6-0.6,0.9-1.3,0.9-2.1s-0.3-1.6-0.9-2.1c-0.6-0.6-1.3-0.9-2.1-0.9s-1.6,0.3-2.1,0.9
						c-0.6,0.6-0.9,1.3-0.9,2.1s0.3,1.6,0.9,2.1C338.1,156.6,338.8,156.9,339.6,156.9z"/>
				</g>
				<g>
					<path id="m0229a68b34_00000141423718129440367400000011179533613774574747_" class="st4" d="M342.3,148.4
						c0.8,0,1.6-0.3,2.1-0.9c0.6-0.6,0.9-1.3,0.9-2.1s-0.3-1.6-0.9-2.1c-0.6-0.6-1.3-0.9-2.1-0.9s-1.6,0.3-2.1,0.9
						c-0.6,0.6-0.9,1.3-0.9,2.1s0.3,1.6,0.9,2.1C340.7,148.1,341.5,148.4,342.3,148.4z"/>
				</g>
				<g>
					<path id="m0229a68b34_00000078042565508812709580000009403709647537043633_" class="st4" d="M358.3,143.1
						c0.8,0,1.6-0.3,2.1-0.9c0.6-0.6,0.9-1.3,0.9-2.1s-0.3-1.6-0.9-2.1c-0.6-0.6-1.3-0.9-2.1-0.9s-1.6,0.3-2.1,0.9
						c-0.6,0.6-0.9,1.3-0.9,2.1s0.3,1.6,0.9,2.1C356.8,142.8,357.5,143.1,358.3,143.1z"/>
				</g>
				<g>
					<path id="m0229a68b34_00000043415302506183856040000004961431784474638469_" class="st4" d="M361,142.4c0.8,0,1.6-0.3,2.1-0.9
						c0.6-0.6,0.9-1.3,0.9-2.1s-0.3-1.6-0.9-2.1c-0.6-0.6-1.3-0.9-2.1-0.9s-1.6,0.3-2.1,0.9c-0.6,0.6-0.9,1.3-0.9,2.1
						s0.3,1.6,0.9,2.1C359.4,142.1,360.2,142.4,361,142.4z"/>
				</g>
				<g>
					<path id="m0229a68b34_00000005950432070080616000000000869103786068789393_" class="st4" d="M371.7,140.2
						c0.8,0,1.6-0.3,2.1-0.9c0.6-0.6,0.9-1.3,0.9-2.1s-0.3-1.6-0.9-2.1c-0.6-0.6-1.3-0.9-2.1-0.9s-1.6,0.3-2.1,0.9
						c-0.6,0.6-0.9,1.3-0.9,2.1s0.3,1.6,0.9,2.1C370.1,139.9,370.9,140.2,371.7,140.2z"/>
				</g>
				<g>
					<path id="m0229a68b34_00000013161923637863106390000018348061261127592597_" class="st4" d="M377,134.1c0.8,0,1.6-0.3,2.1-0.9
						c0.6-0.6,0.9-1.3,0.9-2.1s-0.3-1.6-0.9-2.1c-0.6-0.6-1.3-0.9-2.1-0.9s-1.6,0.3-2.1,0.9c-0.6,0.6-0.9,1.3-0.9,2.1
						s0.3,1.6,0.9,2.1C375.5,133.8,376.2,134.1,377,134.1z"/>
				</g>
				<g>
					<path id="m0229a68b34_00000011004137387314767530000007782235210519660939_" class="st4" d="M379.7,130.1
						c0.8,0,1.6-0.3,2.1-0.9c0.6-0.6,0.9-1.3,0.9-2.1s-0.3-1.6-0.9-2.1c-0.6-0.6-1.3-0.9-2.1-0.9s-1.6,0.3-2.1,0.9
						c-0.6,0.6-0.9,1.3-0.9,2.1s0.3,1.6,0.9,2.1C378.1,129.8,378.9,130.1,379.7,130.1z"/>
				</g>
				<g>
					<path id="m0229a68b34_00000044897160738547177490000006205572993709642936_" class="st4" d="M382.3,134.4
						c0.8,0,1.6-0.3,2.1-0.9c0.6-0.6,0.9-1.3,0.9-2.1s-0.3-1.6-0.9-2.1c-0.6-0.6-1.3-0.9-2.1-0.9s-1.6,0.3-2.1,0.9
						c-0.6,0.6-0.9,1.3-0.9,2.1s0.3,1.6,0.9,2.1C380.8,134,381.6,134.4,382.3,134.4z"/>
				</g>
				<g>
					<path id="m0229a68b34_00000007428086219462565610000016358727944086496938_" class="st4" d="M385,134.4c0.8,0,1.6-0.3,2.1-0.9
						c0.6-0.6,0.9-1.3,0.9-2.1s-0.3-1.6-0.9-2.1c-0.6-0.6-1.3-0.9-2.1-0.9s-1.6,0.3-2.1,0.9c-0.6,0.6-0.9,1.3-0.9,2.1
						s0.3,1.6,0.9,2.1C383.5,134.1,384.2,134.4,385,134.4z"/>
				</g>
				<g>
					<path id="m0229a68b34_00000020380085726098405280000016353427131186434698_" class="st4" d="M395.7,130.1
						c0.8,0,1.6-0.3,2.1-0.9c0.6-0.6,0.9-1.3,0.9-2.1s-0.3-1.6-0.9-2.1c-0.6-0.6-1.3-0.9-2.1-0.9s-1.6,0.3-2.1,0.9
						c-0.6,0.6-0.9,1.3-0.9,2.1s0.3,1.6,0.9,2.1C394.1,129.8,394.9,130.1,395.7,130.1z"/>
				</g>
				<g>
					<path id="m0229a68b34_00000122721759545256696090000001118835835852853640_" class="st4" d="M398.4,132.7
						c0.8,0,1.6-0.3,2.1-0.9c0.6-0.6,0.9-1.3,0.9-2.1s-0.3-1.6-0.9-2.1c-0.6-0.6-1.3-0.9-2.1-0.9s-1.6,0.3-2.1,0.9
						c-0.6,0.6-0.9,1.3-0.9,2.1s0.3,1.6,0.9,2.1C396.8,132.4,397.6,132.7,398.4,132.7z"/>
				</g>
				<g>
					<path id="m0229a68b34_00000006688996003128508520000010252785977904969896_" class="st4" d="M398.4,130.1
						c0.8,0,1.6-0.3,2.1-0.9c0.6-0.6,0.9-1.3,0.9-2.1s-0.3-1.6-0.9-2.1c-0.6-0.6-1.3-0.9-2.1-0.9s-1.6,0.3-2.1,0.9
						c-0.6,0.6-0.9,1.3-0.9,2.1s0.3,1.6,0.9,2.1C396.8,129.8,397.6,130.1,398.4,130.1z"/>
				</g>
				<g>
					<path id="m0229a68b34_00000121969289287927005910000004624677720205037963_" class="st4" d="M406.4,128.5
						c0.8,0,1.6-0.3,2.1-0.9c0.6-0.6,0.9-1.3,0.9-2.1s-0.3-1.6-0.9-2.1c-0.6-0.6-1.3-0.9-2.1-0.9s-1.6,0.3-2.1,0.9
						c-0.6,0.6-0.9,1.3-0.9,2.1s0.3,1.6,0.9,2.1C404.8,128.2,405.6,128.5,406.4,128.5z"/>
				</g>
				<g>
					<path id="m0229a68b34_00000023243488504892406340000002228568468870351746_" class="st4" d="M409,134.9c0.8,0,1.6-0.3,2.1-0.9
						c0.6-0.6,0.9-1.3,0.9-2.1s-0.3-1.6-0.9-2.1c-0.6-0.6-1.3-0.9-2.1-0.9s-1.6,0.3-2.1,0.9c-0.6,0.6-0.9,1.3-0.9,2.1
						s0.3,1.6,0.9,2.1C407.5,134.6,408.3,134.9,409,134.9z"/>
				</g>
			</g>
		</g>
	</g>
	<g id="PathCollection_3">
		<g>
			<defs>
				<rect id="SVGID_00000008139438629658844010000015645250707127601822_" x="90" y="43.2" width="558" height="277.2"/>
			</defs>
			<clipPath id="SVGID_00000013183546013080241840000007456144934303831956_">
				<use xlink:href="#SVGID_00000008139438629658844010000015645250707127601822_"  style="overflow:visible;"/>
			</clipPath>
			<g style="clip-path:url(#SVGID_00000013183546013080241840000007456144934303831956_);">
				<g>
					<path id="m5140980dcb" class="st6" d="M296.9,84.4c0.8,0,1.6-0.3,2.1-0.9c0.6-0.6,0.9-1.3,0.9-2.1s-0.3-1.6-0.9-2.1
						c-0.6-0.6-1.3-0.9-2.1-0.9s-1.6,0.3-2.1,0.9c-0.6,0.6-0.9,1.3-0.9,2.1s0.3,1.6,0.9,2.1C295.4,84,296.1,84.4,296.9,84.4z"/>
				</g>
				<g>
					<path id="m5140980dcb_00000039134209010606481270000000264137798563231154_" class="st6" d="M299.6,83.1c0.8,0,1.6-0.3,2.1-0.9
						c0.6-0.6,0.9-1.3,0.9-2.1s-0.3-1.6-0.9-2.1c-0.6-0.6-1.3-0.9-2.1-0.9s-1.6,0.3-2.1,0.9c-0.6,0.6-0.9,1.3-0.9,2.1
						s0.3,1.6,0.9,2.1C298,82.7,298.8,83.1,299.6,83.1z"/>
				</g>
				<g>
					<path id="m5140980dcb_00000007421021438003261610000013330147719059673014_" class="st6" d="M302.3,81.4c0.8,0,1.6-0.3,2.1-0.9
						c0.6-0.6,0.9-1.3,0.9-2.1s-0.3-1.6-0.9-2.1c-0.6-0.6-1.3-0.9-2.1-0.9s-1.6,0.3-2.1,0.9c-0.6,0.6-0.9,1.3-0.9,2.1
						s0.3,1.6,0.9,2.1C300.7,81.1,301.5,81.4,302.3,81.4z"/>
				</g>
				<g>
					<path id="m5140980dcb_00000060722005082074963580000006333567454380701351_" class="st6" d="M307.6,79.4c0.8,0,1.6-0.3,2.1-0.9
						c0.6-0.6,0.9-1.3,0.9-2.1s-0.3-1.6-0.9-2.1c-0.6-0.6-1.3-0.9-2.1-0.9s-1.6,0.3-2.1,0.9c-0.6,0.6-0.9,1.3-0.9,2.1
						s0.3,1.6,0.9,2.1C306,79,306.8,79.4,307.6,79.4z"/>
				</g>
				<g>
					<path id="m5140980dcb_00000139268525858476985570000015440991692378773179_" class="st6" d="M315.6,76.3c0.8,0,1.6-0.3,2.1-0.9
						c0.6-0.6,0.9-1.3,0.9-2.1s-0.3-1.6-0.9-2.1c-0.6-0.6-1.3-0.9-2.1-0.9s-1.6,0.3-2.1,0.9c-0.6,0.6-0.9,1.3-0.9,2.1
						s0.3,1.6,0.9,2.1C314,76,314.8,76.3,315.6,76.3z"/>
				</g>
				<g>
					<path id="m5140980dcb_00000083067431934502334390000008695079076081587630_" class="st6" d="M315.6,73.5c0.8,0,1.6-0.3,2.1-0.9
						c0.6-0.6,0.9-1.3,0.9-2.1s-0.3-1.6-0.9-2.1c-0.6-0.6-1.3-0.9-2.1-0.9s-1.6,0.3-2.1,0.9c-0.6,0.6-0.9,1.3-0.9,2.1
						s0.3,1.6,0.9,2.1C314,73.1,314.8,73.5,315.6,73.5z"/>
				</g>
				<g>
					<path id="m5140980dcb_00000039835619103653709600000004917311181483691909_" class="st6" d="M323.6,70.8c0.8,0,1.6-0.3,2.1-0.9
						c0.6-0.6,0.9-1.3,0.9-2.1s-0.3-1.6-0.9-2.1c-0.6-0.6-1.3-0.9-2.1-0.9s-1.6,0.3-2.1,0.9c-0.6,0.6-0.9,1.3-0.9,2.1
						s0.3,1.6,0.9,2.1C322.1,70.5,322.8,70.8,323.6,70.8z"/>
				</g>
				<g>
					<path id="m5140980dcb_00000039102170192229044410000000055929689773288123_" class="st6" d="M331.6,68.9c0.8,0,1.6-0.3,2.1-0.9
						c0.6-0.6,0.9-1.3,0.9-2.1s-0.3-1.6-0.9-2.1c-0.6-0.6-1.3-0.9-2.1-0.9s-1.6,0.3-2.1,0.9c-0.6,0.6-0.9,1.3-0.9,2.1
						s0.3,1.6,0.9,2.1C330.1,68.5,330.8,68.9,331.6,68.9z"/>
				</g>
				<g>
					<path id="m5140980dcb_00000041997056453118112350000017008164913218312114_" class="st6" d="M334.3,68.2c0.8,0,1.6-0.3,2.1-0.9
						c0.6-0.6,0.9-1.3,0.9-2.1s-0.3-1.6-0.9-2.1c-0.6-0.6-1.3-0.9-2.1-0.9s-1.6,0.3-2.1,0.9c-0.6,0.6-0.9,1.3-0.9,2.1
						s0.3,1.6,0.9,2.1C332.7,67.9,333.5,68.2,334.3,68.2z"/>
				</g>
				<g>
					<path id="m5140980dcb_00000001629962012946016110000017561820897747692206_" class="st6" d="M342.3,69.2c0.8,0,1.6-0.3,2.1-0.9
						c0.6-0.6,0.9-1.3,0.9-2.1s-0.3-1.6-0.9-2.1c-0.6-0.6-1.3-0.9-2.1-0.9s-1.6,0.3-2.1,0.9c-0.6,0.6-0.9,1.3-0.9,2.1
						s0.3,1.6,0.9,2.1C340.7,68.9,341.5,69.2,342.3,69.2z"/>
				</g>
				<g>
					<path id="m5140980dcb_00000139281671508928167170000018294891832383505057_" class="st6" d="M347.6,67.3c0.8,0,1.6-0.3,2.1-0.9
						c0.6-0.6,0.9-1.3,0.9-2.1s-0.3-1.6-0.9-2.1c-0.6-0.6-1.3-0.9-2.1-0.9s-1.6,0.3-2.1,0.9c-0.6,0.6-0.9,1.3-0.9,2.1
						s0.3,1.6,0.9,2.1C346.1,67,346.8,67.3,347.6,67.3z"/>
				</g>
				<g>
					<path id="m5140980dcb_00000176731131061316518340000003656413566208694169_" class="st6" d="M347.6,65.8c0.8,0,1.6-0.3,2.1-0.9
						c0.6-0.6,0.9-1.3,0.9-2.1s-0.3-1.6-0.9-2.1c-0.6-0.6-1.3-0.9-2.1-0.9s-1.6,0.3-2.1,0.9c-0.6,0.6-0.9,1.3-0.9,2.1
						s0.3,1.6,0.9,2.1C346.1,65.5,346.8,65.8,347.6,65.8z"/>
				</g>
				<g>
					<path id="m5140980dcb_00000165194143934859321590000011336414862448233642_" class="st6" d="M350.3,63.8c0.8,0,1.6-0.3,2.1-0.9
						c0.6-0.6,0.9-1.3,0.9-2.1s-0.3-1.6-0.9-2.1c-0.6-0.6-1.3-0.9-2.1-0.9s-1.6,0.3-2.1,0.9c-0.6,0.6-0.9,1.3-0.9,2.1
						s0.3,1.6,0.9,2.1C348.8,63.5,349.5,63.8,350.3,63.8z"/>
				</g>
				<g>
					<path id="m5140980dcb_00000158741222057965369880000011140487716221897614_" class="st6" d="M353,62.4c0.8,0,1.6-0.3,2.1-0.9
						c0.6-0.6,0.9-1.3,0.9-2.1s-0.3-1.6-0.9-2.1c-0.6-0.6-1.3-0.9-2.1-0.9s-1.6,0.3-2.1,0.9c-0.6,0.6-0.9,1.3-0.9,2.1
						s0.3,1.6,0.9,2.1C351.4,62.1,352.2,62.4,353,62.4z"/>
				</g>
				<g>
					<path id="m5140980dcb_00000131361309043919614040000004099905735793608576_" class="st6" d="M358.3,60.6c0.8,0,1.6-0.3,2.1-0.9
						c0.6-0.6,0.9-1.3,0.9-2.1s-0.3-1.6-0.9-2.1c-0.6-0.6-1.3-0.9-2.1-0.9s-1.6,0.3-2.1,0.9c-0.6,0.6-0.9,1.3-0.9,2.1
						s0.3,1.6,0.9,2.1C356.8,60.3,357.5,60.6,358.3,60.6z"/>
				</g>
				<g>
					<path id="m5140980dcb_00000173877314745010854530000010437471466564328370_" class="st6" d="M363.7,58.8c0.8,0,1.6-0.3,2.1-0.9
						c0.6-0.6,0.9-1.3,0.9-2.1s-0.3-1.6-0.9-2.1c-0.6-0.6-1.3-0.9-2.1-0.9s-1.6,0.3-2.1,0.9c-0.6,0.6-0.9,1.3-0.9,2.1
						s0.3,1.6,0.9,2.1C362.1,58.5,362.9,58.8,363.7,58.8z"/>
				</g>
			</g>
		</g>
	</g>
	<g id="matplotlib.axis_1">
		<g id="xtick_1">
			<g id="line2d_1">
				<g>
					<g>
						<path id="m9cfe8a372a" class="st7" d="M115.4,320.4v3.5"/>
					</g>
				</g>
			</g>
			<g id="text_1">
				<g transform="translate(104.230824 334.998438) scale(0.1 -0.1)">
					<g>
						<path id="DejaVuSans-37" d="M8.2,72.9h46.9v-4.2L28.6,0H18.3l24.9,64.6h-35V72.9z"/>
					</g>
					<g>
						<path id="DejaVuSans-30" d="M95.4,66.4c-5.1,0-8.9-2.5-11.5-7.5c-2.6-5-3.8-12.5-3.8-22.5c0-10,1.3-17.5,3.8-22.5
							c2.6-5,6.4-7.5,11.5-7.5c5.1,0,8.9,2.5,11.5,7.5c2.6,5,3.8,12.5,3.8,22.5c0,10-1.3,17.5-3.8,22.5
							C104.4,63.9,100.5,66.4,95.4,66.4z M95.4,74.2c8.2,0,14.4-3.2,18.7-9.7c4.3-6.5,6.5-15.8,6.5-28.1c0-12.3-2.2-21.6-6.5-28.1
							c-4.3-6.5-10.6-9.7-18.7-9.7c-8.2,0-14.4,3.2-18.7,9.7c-4.3,6.5-6.5,15.8-6.5,28.1c0,12.3,2.2,21.7,6.5,28.1
							C81,71,87.2,74.2,95.4,74.2z"/>
					</g>
					<g>
						<path id="DejaVuSans-2e" d="M137.9,12.4h10.3V0h-10.3V12.4z"/>
					</g>
					<g>
						<path id="DejaVuSans-30_00000153671127033988184380000018138481777623885475_" d="M190.8,66.4c-5.1,0-8.9-2.5-11.5-7.5
							c-2.6-5-3.8-12.5-3.8-22.5c0-10,1.3-17.5,3.8-22.5c2.6-5,6.4-7.5,11.5-7.5c5.1,0,8.9,2.5,11.5,7.5c2.6,5,3.8,12.5,3.8,22.5
							c0,10-1.3,17.5-3.8,22.5C199.8,63.9,195.9,66.4,190.8,66.4z M190.8,74.2c8.2,0,14.4-3.2,18.7-9.7c4.3-6.5,6.5-15.8,6.5-28.1
							c0-12.3-2.2-21.6-6.5-28.1c-4.3-6.5-10.6-9.7-18.7-9.7c-8.2,0-14.4,3.2-18.7,9.7c-4.3,6.5-6.5,15.8-6.5,28.1
							c0,12.3,2.2,21.7,6.5,28.1C176.4,71,182.6,74.2,190.8,74.2z"/>
					</g>
				</g>
			</g>
		</g>
		<g id="xtick_2">
			<g id="line2d_2">
				<g>
					<g>
						<path id="m9cfe8a372a_00000039815382427917945730000008253835340758124202_" class="st7" d="M182.1,320.4v3.5"/>
					</g>
				</g>
			</g>
			<g id="text_2">
				<g transform="translate(170.977235 334.998438) scale(0.1 -0.1)">
					<g>
						<path id="DejaVuSans-37_00000036251476292018633910000014459407741393650340_" d="M8.2,72.9h46.9v-4.2L28.6,0H18.3l24.9,64.6
							h-35V72.9z"/>
					</g>
					<g>
						<path id="DejaVuSans-32" d="M82.8,8.3h34.4V0H71v8.3c3.7,3.9,8.8,9.1,15.3,15.6c6.5,6.5,10.5,10.7,12.2,12.6
							c3.2,3.5,5.4,6.5,6.6,9c1.3,2.5,1.9,4.9,1.9,7.2c0,3.9-1.4,7-4.1,9.5c-2.7,2.4-6.3,3.7-10.6,3.7c-3.1,0-6.4-0.5-9.8-1.6
							c-3.4-1.1-7.1-2.7-11-4.9v10c4,1.6,7.7,2.8,11.1,3.6c3.5,0.8,6.6,1.2,9.5,1.2c7.6,0,13.6-1.9,18.1-5.7
							c4.5-3.8,6.7-8.8,6.7-15.1c0-3-0.6-5.8-1.7-8.5c-1.1-2.7-3.2-5.8-6.1-9.5c-0.8-0.9-3.4-3.7-7.8-8.2
							C96.9,22.7,90.8,16.4,82.8,8.3z"/>
					</g>
					<g>
						<path id="DejaVuSans-2e_00000041278537069859351200000016206736879342818453_" d="M137.9,12.4h10.3V0h-10.3V12.4z"/>
					</g>
					<g>
						<path id="DejaVuSans-35" d="M169.8,72.9h38.7v-8.3h-29.7V46.7c1.4,0.5,2.9,0.9,4.3,1.1c1.4,0.2,2.9,0.4,4.3,0.4
							c8.1,0,14.6-2.2,19.3-6.7c4.8-4.5,7.1-10.5,7.1-18.1c0-7.8-2.4-13.9-7.3-18.3c-4.9-4.3-11.8-6.5-20.7-6.5
							c-3.1,0-6.2,0.3-9.4,0.8c-3.2,0.5-6.4,1.3-9.8,2.3v9.9c2.9-1.6,6-2.8,9.1-3.6s6.4-1.2,9.9-1.2c5.6,0,10.1,1.5,13.4,4.4
							c3.3,3,4.9,7,4.9,12.1c0,5.1-1.6,9.1-4.9,12c-3.3,3-7.7,4.5-13.4,4.5c-2.6,0-5.3-0.3-7.9-0.9c-2.6-0.6-5.3-1.5-8-2.7V72.9z"/>
					</g>
				</g>
			</g>
		</g>
		<g id="xtick_3">
			<g id="line2d_3">
				<g>
					<g>
						<path id="m9cfe8a372a_00000142154824076342153880000007821737908181109685_" class="st7" d="M248.9,320.4v3.5"/>
					</g>
				</g>
			</g>
			<g id="text_3">
				<g transform="translate(237.723647 334.998438) scale(0.1 -0.1)">
					<g>
						<path id="DejaVuSans-37_00000067235243666448202970000003022977700278542735_" d="M8.2,72.9h46.9v-4.2L28.6,0H18.3l24.9,64.6
							h-35V72.9z"/>
					</g>
					<g>
						<path id="DejaVuSans-35_00000051343227020012821080000003043675379781158588_" d="M74.4,72.9h38.7v-8.3H83.5V46.7
							c1.4,0.5,2.9,0.9,4.3,1.1c1.4,0.2,2.9,0.4,4.3,0.4c8.1,0,14.6-2.2,19.3-6.7c4.8-4.5,7.1-10.5,7.1-18.1
							c0-7.8-2.4-13.9-7.3-18.3c-4.9-4.3-11.8-6.5-20.7-6.5c-3.1,0-6.2,0.3-9.4,0.8c-3.2,0.5-6.4,1.3-9.8,2.3v9.9
							c2.9-1.6,6-2.8,9.1-3.6s6.4-1.2,9.9-1.2c5.6,0,10.1,1.5,13.4,4.4c3.3,3,4.9,7,4.9,12.1c0,5.1-1.6,9.1-4.9,12
							c-3.3,3-7.7,4.5-13.4,4.5c-2.6,0-5.3-0.3-7.9-0.9c-2.6-0.6-5.3-1.5-8-2.7V72.9z"/>
					</g>
					<g>
						<path id="DejaVuSans-2e_00000020374990385966817960000014300482964129274813_" d="M137.9,12.4h10.3V0h-10.3V12.4z"/>
					</g>
					<g>
						<path id="DejaVuSans-30_00000050645529465390806320000004216244645855772299_" d="M190.8,66.4c-5.1,0-8.9-2.5-11.5-7.5
							c-2.6-5-3.8-12.5-3.8-22.5c0-10,1.3-17.5,3.8-22.5c2.6-5,6.4-7.5,11.5-7.5c5.1,0,8.9,2.5,11.5,7.5c2.6,5,3.8,12.5,3.8,22.5
							c0,10-1.3,17.5-3.8,22.5C199.8,63.9,195.9,66.4,190.8,66.4z M190.8,74.2c8.2,0,14.4-3.2,18.7-9.7c4.3-6.5,6.5-15.8,6.5-28.1
							c0-12.3-2.2-21.6-6.5-28.1c-4.3-6.5-10.6-9.7-18.7-9.7c-8.2,0-14.4,3.2-18.7,9.7c-4.3,6.5-6.5,15.8-6.5,28.1
							c0,12.3,2.2,21.7,6.5,28.1C176.4,71,182.6,74.2,190.8,74.2z"/>
					</g>
				</g>
			</g>
		</g>
		<g id="xtick_4">
			<g id="line2d_4">
				<g>
					<g>
						<path id="m9cfe8a372a_00000112600855057526931630000016869699170420329098_" class="st7" d="M315.6,320.4v3.5"/>
					</g>
				</g>
			</g>
			<g id="text_4">
				<g transform="translate(304.470058 334.998438) scale(0.1 -0.1)">
					<g>
						<path id="DejaVuSans-37_00000080208156084340078850000012854092810792764035_" d="M8.2,72.9h46.9v-4.2L28.6,0H18.3l24.9,64.6
							h-35V72.9z"/>
					</g>
					<g>
						<path id="DejaVuSans-37_00000070812230601213956800000016901702491709061805_" d="M71.8,72.9h46.9v-4.2L92.2,0H81.9l24.9,64.6
							h-35V72.9z"/>
					</g>
					<g>
						<path id="DejaVuSans-2e_00000153674867193713242400000002777473649583725713_" d="M137.9,12.4h10.3V0h-10.3V12.4z"/>
					</g>
					<g>
						<path id="DejaVuSans-35_00000089551136807947152670000009286076186376686507_" d="M169.8,72.9h38.7v-8.3h-29.7V46.7
							c1.4,0.5,2.9,0.9,4.3,1.1c1.4,0.2,2.9,0.4,4.3,0.4c8.1,0,14.6-2.2,19.3-6.7c4.8-4.5,7.1-10.5,7.1-18.1
							c0-7.8-2.4-13.9-7.3-18.3c-4.9-4.3-11.8-6.5-20.7-6.5c-3.1,0-6.2,0.3-9.4,0.8c-3.2,0.5-6.4,1.3-9.8,2.3v9.9
							c2.9-1.6,6-2.8,9.1-3.6s6.4-1.2,9.9-1.2c5.6,0,10.1,1.5,13.4,4.4c3.3,3,4.9,7,4.9,12.1c0,5.1-1.6,9.1-4.9,12
							c-3.3,3-7.7,4.5-13.4,4.5c-2.6,0-5.3-0.3-7.9-0.9c-2.6-0.6-5.3-1.5-8-2.7V72.9z"/>
					</g>
				</g>
			</g>
		</g>
		<g id="xtick_5">
			<g id="line2d_5">
				<g>
					<g>
						<path id="m9cfe8a372a_00000183209447208530005150000009474004105479837067_" class="st7" d="M382.3,320.4v3.5"/>
					</g>
				</g>
			</g>
			<g id="text_5">
				<g transform="translate(371.21647 334.998438) scale(0.1 -0.1)">
					<g>
						<path id="DejaVuSans-38" d="M31.8,34.6c-4.7,0-8.4-1.3-11.1-3.8c-2.7-2.5-4-6-4-10.3c0-4.4,1.3-7.8,4-10.4
							c2.7-2.5,6.4-3.8,11.1-3.8s8.4,1.3,11.1,3.8c2.7,2.5,4.1,6,4.1,10.3c0,4.4-1.3,7.8-4,10.3C40.2,33.4,36.5,34.6,31.8,34.6z
							 M21.9,38.8c-4.2,1-7.5,3-9.9,5.9c-2.4,2.9-3.5,6.4-3.5,10.6c0,5.8,2.1,10.4,6.2,13.8c4.2,3.4,9.8,5.1,17.1,5.1
							c7.3,0,13-1.7,17.1-5.1s6.2-8,6.2-13.8c0-4.2-1.2-7.7-3.5-10.6c-2.4-2.9-5.6-4.9-9.8-5.9c4.8-1.1,8.4-3.3,11.1-6.5
							c2.7-3.2,4-7.2,4-11.8c0-7.1-2.2-12.5-6.5-16.3C46,0.5,39.8-1.4,31.8-1.4c-8,0-14.2,1.9-18.5,5.7C8.9,8,6.8,13.4,6.8,20.5
							c0,4.6,1.3,8.6,4,11.8C13.5,35.5,17.2,37.7,21.9,38.8z M18.3,54.4c0-3.8,1.2-6.7,3.5-8.8c2.4-2.1,5.7-3.2,9.9-3.2
							c4.2,0,7.6,1.1,9.9,3.2c2.4,2.1,3.6,5.1,3.6,8.8c0,3.8-1.2,6.7-3.6,8.8c-2.4,2.1-5.7,3.2-9.9,3.2c-4.3,0-7.6-1.1-9.9-3.2
							C19.5,61.1,18.3,58.2,18.3,54.4z"/>
					</g>
					<g>
						<path id="DejaVuSans-30_00000030452974123206157830000009392217914579159945_" d="M95.4,66.4c-5.1,0-8.9-2.5-11.5-7.5
							c-2.6-5-3.8-12.5-3.8-22.5c0-10,1.3-17.5,3.8-22.5c2.6-5,6.4-7.5,11.5-7.5c5.1,0,8.9,2.5,11.5,7.5c2.6,5,3.8,12.5,3.8,22.5
							c0,10-1.3,17.5-3.8,22.5C104.4,63.9,100.5,66.4,95.4,66.4z M95.4,74.2c8.2,0,14.4-3.2,18.7-9.7c4.3-6.5,6.5-15.8,6.5-28.1
							c0-12.3-2.2-21.6-6.5-28.1c-4.3-6.5-10.6-9.7-18.7-9.7c-8.2,0-14.4,3.2-18.7,9.7c-4.3,6.5-6.5,15.8-6.5,28.1
							c0,12.3,2.2,21.7,6.5,28.1C81,71,87.2,74.2,95.4,74.2z"/>
					</g>
					<g>
						<path id="DejaVuSans-2e_00000095340010171307164970000000147623063632586173_" d="M137.9,12.4h10.3V0h-10.3V12.4z"/>
					</g>
					<g>
						<path id="DejaVuSans-30_00000140726947477578605000000000077630721995733157_" d="M190.8,66.4c-5.1,0-8.9-2.5-11.5-7.5
							c-2.6-5-3.8-12.5-3.8-22.5c0-10,1.3-17.5,3.8-22.5c2.6-5,6.4-7.5,11.5-7.5c5.1,0,8.9,2.5,11.5,7.5c2.6,5,3.8,12.5,3.8,22.5
							c0,10-1.3,17.5-3.8,22.5C199.8,63.9,195.9,66.4,190.8,66.4z M190.8,74.2c8.2,0,14.4-3.2,18.7-9.7c4.3-6.5,6.5-15.8,6.5-28.1
							c0-12.3-2.2-21.6-6.5-28.1c-4.3-6.5-10.6-9.7-18.7-9.7c-8.2,0-14.4,3.2-18.7,9.7c-4.3,6.5-6.5,15.8-6.5,28.1
							c0,12.3,2.2,21.7,6.5,28.1C176.4,71,182.6,74.2,190.8,74.2z"/>
					</g>
				</g>
			</g>
		</g>
		<g id="xtick_6">
			<g id="line2d_6">
				<g>
					<g>
						<path id="m9cfe8a372a_00000005963800977086025880000003061229944081896079_" class="st7" d="M449.1,320.4v3.5"/>
					</g>
				</g>
			</g>
			<g id="text_6">
				<g transform="translate(437.962881 334.998438) scale(0.1 -0.1)">
					<g>
						<path id="DejaVuSans-38_00000120537665495260167910000012472874271379628681_" d="M31.8,34.6c-4.7,0-8.4-1.3-11.1-3.8
							c-2.7-2.5-4-6-4-10.3c0-4.4,1.3-7.8,4-10.4c2.7-2.5,6.4-3.8,11.1-3.8s8.4,1.3,11.1,3.8c2.7,2.5,4.1,6,4.1,10.3
							c0,4.4-1.3,7.8-4,10.3C40.2,33.4,36.5,34.6,31.8,34.6z M21.9,38.8c-4.2,1-7.5,3-9.9,5.9c-2.4,2.9-3.5,6.4-3.5,10.6
							c0,5.8,2.1,10.4,6.2,13.8c4.2,3.4,9.8,5.1,17.1,5.1c7.3,0,13-1.7,17.1-5.1s6.2-8,6.2-13.8c0-4.2-1.2-7.7-3.5-10.6
							c-2.4-2.9-5.6-4.9-9.8-5.9c4.8-1.1,8.4-3.3,11.1-6.5c2.7-3.2,4-7.2,4-11.8c0-7.1-2.2-12.5-6.5-16.3C46,0.5,39.8-1.4,31.8-1.4
							c-8,0-14.2,1.9-18.5,5.7C8.9,8,6.8,13.4,6.8,20.5c0,4.6,1.3,8.6,4,11.8C13.5,35.5,17.2,37.7,21.9,38.8z M18.3,54.4
							c0-3.8,1.2-6.7,3.5-8.8c2.4-2.1,5.7-3.2,9.9-3.2c4.2,0,7.6,1.1,9.9,3.2c2.4,2.1,3.6,5.1,3.6,8.8c0,3.8-1.2,6.7-3.6,8.8
							c-2.4,2.1-5.7,3.2-9.9,3.2c-4.3,0-7.6-1.1-9.9-3.2C19.5,61.1,18.3,58.2,18.3,54.4z"/>
					</g>
					<g>
						<path id="DejaVuSans-32_00000114067475400842565810000001187573201876429233_" d="M82.8,8.3h34.4V0H71v8.3
							c3.7,3.9,8.8,9.1,15.3,15.6c6.5,6.5,10.5,10.7,12.2,12.6c3.2,3.5,5.4,6.5,6.6,9c1.3,2.5,1.9,4.9,1.9,7.2c0,3.9-1.4,7-4.1,9.5
							c-2.7,2.4-6.3,3.7-10.6,3.7c-3.1,0-6.4-0.5-9.8-1.6c-3.4-1.1-7.1-2.7-11-4.9v10c4,1.6,7.7,2.8,11.1,3.6
							c3.5,0.8,6.6,1.2,9.5,1.2c7.6,0,13.6-1.9,18.1-5.7c4.5-3.8,6.7-8.8,6.7-15.1c0-3-0.6-5.8-1.7-8.5c-1.1-2.7-3.2-5.8-6.1-9.5
							c-0.8-0.9-3.4-3.7-7.8-8.2C96.9,22.7,90.8,16.4,82.8,8.3z"/>
					</g>
					<g>
						<path id="DejaVuSans-2e_00000160174972127956147340000014640040347945819296_" d="M137.9,12.4h10.3V0h-10.3V12.4z"/>
					</g>
					<g>
						<path id="DejaVuSans-35_00000065045056907498739850000003797692434288266927_" d="M169.8,72.9h38.7v-8.3h-29.7V46.7
							c1.4,0.5,2.9,0.9,4.3,1.1c1.4,0.2,2.9,0.4,4.3,0.4c8.1,0,14.6-2.2,19.3-6.7c4.8-4.5,7.1-10.5,7.1-18.1
							c0-7.8-2.4-13.9-7.3-18.3c-4.9-4.3-11.8-6.5-20.7-6.5c-3.1,0-6.2,0.3-9.4,0.8c-3.2,0.5-6.4,1.3-9.8,2.3v9.9
							c2.9-1.6,6-2.8,9.1-3.6s6.4-1.2,9.9-1.2c5.6,0,10.1,1.5,13.4,4.4c3.3,3,4.9,7,4.9,12.1c0,5.1-1.6,9.1-4.9,12
							c-3.3,3-7.7,4.5-13.4,4.5c-2.6,0-5.3-0.3-7.9-0.9c-2.6-0.6-5.3-1.5-8-2.7V72.9z"/>
					</g>
				</g>
			</g>
		</g>
		<g id="xtick_7">
			<g id="line2d_7">
				<g>
					<g>
						<path id="m9cfe8a372a_00000054984811300893723300000011590814318438127762_" class="st7" d="M515.8,320.4v3.5"/>
					</g>
				</g>
			</g>
			<g id="text_7">
				<g transform="translate(504.709293 334.998438) scale(0.1 -0.1)">
					<g>
						<path id="DejaVuSans-38_00000097475390028240943010000014272336773981749434_" d="M31.8,34.6c-4.7,0-8.4-1.3-11.1-3.8
							c-2.7-2.5-4-6-4-10.3c0-4.4,1.3-7.8,4-10.4c2.7-2.5,6.4-3.8,11.1-3.8s8.4,1.3,11.1,3.8c2.7,2.5,4.1,6,4.1,10.3
							c0,4.4-1.3,7.8-4,10.3C40.2,33.4,36.5,34.6,31.8,34.6z M21.9,38.8c-4.2,1-7.5,3-9.9,5.9c-2.4,2.9-3.5,6.4-3.5,10.6
							c0,5.8,2.1,10.4,6.2,13.8c4.2,3.4,9.8,5.1,17.1,5.1c7.3,0,13-1.7,17.1-5.1s6.2-8,6.2-13.8c0-4.2-1.2-7.7-3.5-10.6
							c-2.4-2.9-5.6-4.9-9.8-5.9c4.8-1.1,8.4-3.3,11.1-6.5c2.7-3.2,4-7.2,4-11.8c0-7.1-2.2-12.5-6.5-16.3C46,0.5,39.8-1.4,31.8-1.4
							c-8,0-14.2,1.9-18.5,5.7C8.9,8,6.8,13.4,6.8,20.5c0,4.6,1.3,8.6,4,11.8C13.5,35.5,17.2,37.7,21.9,38.8z M18.3,54.4
							c0-3.8,1.2-6.7,3.5-8.8c2.4-2.1,5.7-3.2,9.9-3.2c4.2,0,7.6,1.1,9.9,3.2c2.4,2.1,3.6,5.1,3.6,8.8c0,3.8-1.2,6.7-3.6,8.8
							c-2.4,2.1-5.7,3.2-9.9,3.2c-4.3,0-7.6-1.1-9.9-3.2C19.5,61.1,18.3,58.2,18.3,54.4z"/>
					</g>
					<g>
						<path id="DejaVuSans-35_00000065073925678191443140000004699150763800704697_" d="M74.4,72.9h38.7v-8.3H83.5V46.7
							c1.4,0.5,2.9,0.9,4.3,1.1c1.4,0.2,2.9,0.4,4.3,0.4c8.1,0,14.6-2.2,19.3-6.7c4.8-4.5,7.1-10.5,7.1-18.1
							c0-7.8-2.4-13.9-7.3-18.3c-4.9-4.3-11.8-6.5-20.7-6.5c-3.1,0-6.2,0.3-9.4,0.8c-3.2,0.5-6.4,1.3-9.8,2.3v9.9
							c2.9-1.6,6-2.8,9.1-3.6s6.4-1.2,9.9-1.2c5.6,0,10.1,1.5,13.4,4.4c3.3,3,4.9,7,4.9,12.1c0,5.1-1.6,9.1-4.9,12
							c-3.3,3-7.7,4.5-13.4,4.5c-2.6,0-5.3-0.3-7.9-0.9c-2.6-0.6-5.3-1.5-8-2.7V72.9z"/>
					</g>
					<g>
						<path id="DejaVuSans-2e_00000071533156701594166490000008519025126547221651_" d="M137.9,12.4h10.3V0h-10.3V12.4z"/>
					</g>
					<g>
						<path id="DejaVuSans-30_00000146496189746865543670000017721669595094363546_" d="M190.8,66.4c-5.1,0-8.9-2.5-11.5-7.5
							c-2.6-5-3.8-12.5-3.8-22.5c0-10,1.3-17.5,3.8-22.5c2.6-5,6.4-7.5,11.5-7.5c5.1,0,8.9,2.5,11.5,7.5c2.6,5,3.8,12.5,3.8,22.5
							c0,10-1.3,17.5-3.8,22.5C199.8,63.9,195.9,66.4,190.8,66.4z M190.8,74.2c8.2,0,14.4-3.2,18.7-9.7c4.3-6.5,6.5-15.8,6.5-28.1
							c0-12.3-2.2-21.6-6.5-28.1c-4.3-6.5-10.6-9.7-18.7-9.7c-8.2,0-14.4,3.2-18.7,9.7c-4.3,6.5-6.5,15.8-6.5,28.1
							c0,12.3,2.2,21.7,6.5,28.1C176.4,71,182.6,74.2,190.8,74.2z"/>
					</g>
				</g>
			</g>
		</g>
		<g id="xtick_8">
			<g id="line2d_8">
				<g>
					<g>
						<path id="m9cfe8a372a_00000097501598194545080200000009485486460111865986_" class="st7" d="M582.6,320.4v3.5"/>
					</g>
				</g>
			</g>
			<g id="text_8">
				<g transform="translate(571.455704 334.998438) scale(0.1 -0.1)">
					<g>
						<path id="DejaVuSans-38_00000121238704562947515340000004182214787321877649_" d="M31.8,34.6c-4.7,0-8.4-1.3-11.1-3.8
							c-2.7-2.5-4-6-4-10.3c0-4.4,1.3-7.8,4-10.4c2.7-2.5,6.4-3.8,11.1-3.8s8.4,1.3,11.1,3.8c2.7,2.5,4.1,6,4.1,10.3
							c0,4.4-1.3,7.8-4,10.3C40.2,33.4,36.5,34.6,31.8,34.6z M21.9,38.8c-4.2,1-7.5,3-9.9,5.9c-2.4,2.9-3.5,6.4-3.5,10.6
							c0,5.8,2.1,10.4,6.2,13.8c4.2,3.4,9.8,5.1,17.1,5.1c7.3,0,13-1.7,17.1-5.1s6.2-8,6.2-13.8c0-4.2-1.2-7.7-3.5-10.6
							c-2.4-2.9-5.6-4.9-9.8-5.9c4.8-1.1,8.4-3.3,11.1-6.5c2.7-3.2,4-7.2,4-11.8c0-7.1-2.2-12.5-6.5-16.3C46,0.5,39.8-1.4,31.8-1.4
							c-8,0-14.2,1.9-18.5,5.7C8.9,8,6.8,13.4,6.8,20.5c0,4.6,1.3,8.6,4,11.8C13.5,35.5,17.2,37.7,21.9,38.8z M18.3,54.4
							c0-3.8,1.2-6.7,3.5-8.8c2.4-2.1,5.7-3.2,9.9-3.2c4.2,0,7.6,1.1,9.9,3.2c2.4,2.1,3.6,5.1,3.6,8.8c0,3.8-1.2,6.7-3.6,8.8
							c-2.4,2.1-5.7,3.2-9.9,3.2c-4.3,0-7.6-1.1-9.9-3.2C19.5,61.1,18.3,58.2,18.3,54.4z"/>
					</g>
					<g>
						<path id="DejaVuSans-37_00000145029155751207937800000010034739790868564130_" d="M71.8,72.9h46.9v-4.2L92.2,0H81.9l24.9,64.6
							h-35V72.9z"/>
					</g>
					<g>
						<path id="DejaVuSans-2e_00000129905335918451051920000010680926267399383738_" d="M137.9,12.4h10.3V0h-10.3V12.4z"/>
					</g>
					<g>
						<path id="DejaVuSans-35_00000127034844360909329650000004543565740531957427_" d="M169.8,72.9h38.7v-8.3h-29.7V46.7
							c1.4,0.5,2.9,0.9,4.3,1.1c1.4,0.2,2.9,0.4,4.3,0.4c8.1,0,14.6-2.2,19.3-6.7c4.8-4.5,7.1-10.5,7.1-18.1
							c0-7.8-2.4-13.9-7.3-18.3c-4.9-4.3-11.8-6.5-20.7-6.5c-3.1,0-6.2,0.3-9.4,0.8c-3.2,0.5-6.4,1.3-9.8,2.3v9.9
							c2.9-1.6,6-2.8,9.1-3.6s6.4-1.2,9.9-1.2c5.6,0,10.1,1.5,13.4,4.4c3.3,3,4.9,7,4.9,12.1c0,5.1-1.6,9.1-4.9,12
							c-3.3,3-7.7,4.5-13.4,4.5c-2.6,0-5.3-0.3-7.9-0.9c-2.6-0.6-5.3-1.5-8-2.7V72.9z"/>
					</g>
				</g>
			</g>
		</g>
		<g id="text_9">
			<g transform="translate(329.378906 348.676562) scale(0.1 -0.1)">
				<g>
					<path id="DejaVuSans-4c" d="M9.8,72.9h9.9V8.3h35.5V0H9.8V72.9z"/>
				</g>
				<g>
					<path id="DejaVuSans-69" d="M65.1,54.7h9V0h-9V54.7z M65.1,76h9V64.6h-9V76z"/>
				</g>
				<g>
					<path id="DejaVuSans-66" d="M120.6,76v-7.5H112c-3.2,0-5.5-0.7-6.7-2c-1.2-1.3-1.9-3.6-1.9-7v-4.8h14.8v-7h-14.8V0h-9v47.7
						h-8.6v7h8.6v3.8c0,6.1,1.4,10.5,4.2,13.3c2.8,2.8,7.3,4.2,13.5,4.2H120.6z"/>
				</g>
				<g>
					<path id="DejaVuSans-65" d="M174.9,29.6v-4.4h-41.3c0.4-6.2,2.3-10.9,5.6-14.1c3.3-3.2,8-4.9,13.9-4.9c3.4,0,6.8,0.4,10,1.3
						c3.2,0.8,6.5,2.1,9.7,3.8V2.8c-3.2-1.4-6.5-2.4-9.9-3.1c-3.4-0.7-6.8-1.1-10.3-1.1c-8.7,0-15.6,2.5-20.7,7.6
						c-5.1,5.1-7.6,12-7.6,20.6c0,8.9,2.4,16,7.2,21.3c4.8,5.3,11.4,7.9,19.6,7.9c7.4,0,13.2-2.4,17.5-7.1
						C172.8,44.2,174.9,37.7,174.9,29.6z M165.9,32.2c-0.1,4.9-1.4,8.8-4.1,11.8c-2.7,2.9-6.2,4.4-10.7,4.4c-5,0-9-1.4-12-4.2
						c-3-2.8-4.7-6.8-5.2-12L165.9,32.2z"/>
				</g>
				<g>
					<path id="DejaVuSans-20" d="M180.2,0"/>
				</g>
				<g>
					<path id="DejaVuSans-45" d="M221.8,72.9h46.1v-8.3h-36.2V43h34.7v-8.3h-34.7V8.3h37.1V0h-47V72.9z"/>
				</g>
				<g>
					<path id="DejaVuSans-78" d="M330.1,54.7l-19.8-26.6L331.1,0h-10.6l-15.9,21.5L288.7,0h-10.6l21.2,28.6l-19.4,26.1h10.6
						L305,35.2l14.5,19.5H330.1z"/>
				</g>
				<g>
					<path id="DejaVuSans-70" d="M352.5,8.2v-29h-9v75.5h9v-8.3c1.9,3.2,4.3,5.7,7.2,7.2c2.9,1.6,6.3,2.4,10.3,2.4
						c6.6,0,12-2.6,16.2-7.9c4.2-5.3,6.2-12.2,6.2-20.8s-2.1-15.5-6.2-20.8c-4.1-5.3-9.5-7.9-16.2-7.9c-4,0-7.4,0.8-10.3,2.4
						C356.8,2.5,354.4,5,352.5,8.2z M383.1,27.3c0,6.6-1.4,11.8-4.1,15.5s-6.5,5.6-11.2,5.6c-4.8,0-8.5-1.9-11.2-5.6
						s-4.1-8.9-4.1-15.5s1.4-11.8,4.1-15.5s6.5-5.6,11.2-5.6c4.8,0,8.5,1.9,11.2,5.6S383.1,20.7,383.1,27.3z"/>
				</g>
				<g>
					<path id="DejaVuSans-65_00000109712446893329692270000003311434363431038381_" d="M454.1,29.6v-4.4h-41.3
						c0.4-6.2,2.3-10.9,5.6-14.1c3.3-3.2,8-4.9,13.9-4.9c3.4,0,6.8,0.4,10,1.3c3.2,0.8,6.5,2.1,9.7,3.8V2.8
						c-3.2-1.4-6.5-2.4-9.9-3.1c-3.4-0.7-6.8-1.1-10.3-1.1c-8.7,0-15.6,2.5-20.7,7.6c-5.1,5.1-7.6,12-7.6,20.6
						c0,8.9,2.4,16,7.2,21.3c4.8,5.3,11.4,7.9,19.6,7.9c7.4,0,13.2-2.4,17.5-7.1C451.9,44.2,454.1,37.7,454.1,29.6z M445.1,32.2
						c-0.1,4.9-1.4,8.8-4.1,11.8c-2.7,2.9-6.2,4.4-10.7,4.4c-5,0-9-1.4-12-4.2c-3-2.8-4.7-6.8-5.2-12L445.1,32.2z"/>
				</g>
				<g>
					<path id="DejaVuSans-63" d="M508.2,52.6v-8.4c-2.5,1.4-5.1,2.5-7.6,3.2c-2.6,0.7-5.1,1-7.7,1c-5.8,0-10.4-1.8-13.6-5.5
						c-3.2-3.7-4.8-8.9-4.8-15.5s1.6-11.9,4.8-15.6c3.2-3.7,7.8-5.5,13.6-5.5c2.6,0,5.2,0.3,7.7,1c2.6,0.7,5.1,1.8,7.6,3.2V2.1
						c-2.5-1.2-5.1-2-7.8-2.6c-2.7-0.6-5.5-0.9-8.6-0.9c-8.2,0-14.8,2.6-19.6,7.8c-4.8,5.2-7.3,12.2-7.3,21c0,8.9,2.4,15.9,7.3,21
						c4.9,5.1,11.6,7.7,20.2,7.7c2.8,0,5.5-0.3,8.1-0.9C503.1,54.6,505.7,53.7,508.2,52.6z"/>
				</g>
				<g>
					<path id="DejaVuSans-74" d="M532.7,70.2V54.7h18.5v-7h-18.5V18c0-4.5,0.6-7.3,1.8-8.6s3.7-1.9,7.5-1.9h9.2V0h-9.2
						c-6.9,0-11.7,1.3-14.4,3.9c-2.6,2.6-4,7.3-4,14.1v29.7H517v7h6.6v15.5H532.7z"/>
				</g>
				<g>
					<path id="DejaVuSans-61" d="M587.8,27.5c-7.3,0-12.3-0.8-15.1-2.5c-2.8-1.7-4.2-4.5-4.2-8.5c0-3.2,1.1-5.7,3.2-7.6
						c2.1-1.9,5-2.8,8.6-2.8c5,0,9,1.8,12,5.3s4.5,8.2,4.5,14.1v2H587.8z M605.8,31.2V0h-9v8.3c-2.1-3.3-4.6-5.8-7.7-7.3
						s-6.8-2.4-11.2-2.4c-5.6,0-10,1.6-13.4,4.7c-3.3,3.1-5,7.4-5,12.6c0,6.1,2.1,10.8,6.2,13.9c4.1,3.1,10.3,4.7,18.4,4.7h12.6v0.9
						c0,4.1-1.4,7.3-4.1,9.6s-6.5,3.4-11.5,3.4c-3.1,0-6.2-0.4-9.1-1.1c-3-0.8-5.8-1.9-8.5-3.4v8.3c3.3,1.3,6.5,2.2,9.6,2.8
						c3.1,0.6,6.1,1,9,1c7.9,0,13.8-2.1,17.7-6.2C603.8,45.8,605.8,39.5,605.8,31.2z"/>
				</g>
				<g>
					<path id="DejaVuSans-6e" d="M669.7,33V0h-9v32.7c0,5.2-1,9-3,11.6c-2,2.6-5,3.9-9.1,3.9c-4.9,0-8.7-1.5-11.5-4.6
						c-2.8-3.1-4.2-7.3-4.2-12.6V0h-9v54.7h9v-8.5c2.2,3.3,4.7,5.8,7.6,7.4c2.9,1.6,6.3,2.4,10.1,2.4c6.3,0,11-1.9,14.2-5.8
						C668.1,46.3,669.7,40.6,669.7,33z"/>
				</g>
				<g>
					<path id="DejaVuSans-63_00000172410091068007974520000009323278268694229431_" d="M727,52.6v-8.4c-2.5,1.4-5.1,2.5-7.6,3.2
						c-2.6,0.7-5.1,1-7.7,1c-5.8,0-10.4-1.8-13.6-5.5c-3.2-3.7-4.8-8.9-4.8-15.5s1.6-11.9,4.8-15.6c3.2-3.7,7.8-5.5,13.6-5.5
						c2.6,0,5.2,0.3,7.7,1c2.6,0.7,5.1,1.8,7.6,3.2V2.1c-2.5-1.2-5.1-2-7.8-2.6c-2.7-0.6-5.5-0.9-8.6-0.9c-8.2,0-14.8,2.6-19.6,7.8
						c-4.8,5.2-7.3,12.2-7.3,21c0,8.9,2.4,15.9,7.3,21c4.9,5.1,11.6,7.7,20.2,7.7c2.8,0,5.5-0.3,8.1-0.9
						C722,54.6,724.5,53.7,727,52.6z"/>
				</g>
				<g>
					<path id="DejaVuSans-79" d="M765.4-5.1c-2.5-6.5-5-10.8-7.4-12.7c-2.4-2-5.6-3-9.7-3h-7.2v7.5h5.3c2.5,0,4.4,0.6,5.8,1.8
						c1.4,1.2,2.9,3.9,4.5,8.3l1.6,4.1l-22.1,53.8h9.5l17.1-42.8l17.1,42.8h9.5L765.4-5.1z"/>
				</g>
			</g>
		</g>
	</g>
	<g id="matplotlib.axis_2">
		<g id="ytick_1">
			<g id="line2d_9">
				<g>
					<g>
						<path id="m03a7bc4285" class="st7" d="M90,306.3h-3.5"/>
					</g>
				</g>
			</g>
			<g id="text_10">
				<g transform="translate(70.275 310.148317) scale(0.1 -0.1)">
					<g>
						<path id="DejaVuSans-32_00000139279600354900572970000017646031833797309863_" d="M19.2,8.3h34.4V0H7.3v8.3
							c3.7,3.9,8.8,9.1,15.3,15.6c6.5,6.5,10.5,10.7,12.2,12.6c3.2,3.5,5.4,6.5,6.6,9c1.3,2.5,1.9,4.9,1.9,7.2c0,3.9-1.4,7-4.1,9.5
							c-2.7,2.4-6.3,3.7-10.6,3.7c-3.1,0-6.4-0.5-9.8-1.6c-3.4-1.1-7.1-2.7-11-4.9v10c4,1.6,7.7,2.8,11.1,3.6
							c3.5,0.8,6.6,1.2,9.5,1.2c7.6,0,13.6-1.9,18.1-5.7c4.5-3.8,6.7-8.8,6.7-15.1c0-3-0.6-5.8-1.7-8.5c-1.1-2.7-3.2-5.8-6.1-9.5
							c-0.8-0.9-3.4-3.7-7.8-8.2C33.3,22.7,27.1,16.4,19.2,8.3z"/>
					</g>
					<g>
						<path id="DejaVuSans-35_00000090280892630997546730000006632098452807454369_" d="M74.4,72.9h38.7v-8.3H83.5V46.7
							c1.4,0.5,2.9,0.9,4.3,1.1c1.4,0.2,2.9,0.4,4.3,0.4c8.1,0,14.6-2.2,19.3-6.7c4.8-4.5,7.1-10.5,7.1-18.1
							c0-7.8-2.4-13.9-7.3-18.3c-4.9-4.3-11.8-6.5-20.7-6.5c-3.1,0-6.2,0.3-9.4,0.8c-3.2,0.5-6.4,1.3-9.8,2.3v9.9
							c2.9-1.6,6-2.8,9.1-3.6s6.4-1.2,9.9-1.2c5.6,0,10.1,1.5,13.4,4.4c3.3,3,4.9,7,4.9,12.1c0,5.1-1.6,9.1-4.9,12
							c-3.3,3-7.7,4.5-13.4,4.5c-2.6,0-5.3-0.3-7.9-0.9c-2.6-0.6-5.3-1.5-8-2.7V72.9z"/>
					</g>
				</g>
			</g>
		</g>
		<g id="ytick_2">
			<g id="line2d_10">
				<g>
					<g>
						<path id="m03a7bc4285_00000065039769404423656240000003258096421362436514_" class="st7" d="M90,261h-3.5"/>
					</g>
				</g>
			</g>
			<g id="text_11">
				<g transform="translate(70.275 264.815925) scale(0.1 -0.1)">
					<g>
						<path id="DejaVuSans-32_00000122709002944241332270000018357190134568330919_" d="M19.2,8.3h34.4V0H7.3v8.3
							c3.7,3.9,8.8,9.1,15.3,15.6c6.5,6.5,10.5,10.7,12.2,12.6c3.2,3.5,5.4,6.5,6.6,9c1.3,2.5,1.9,4.9,1.9,7.2c0,3.9-1.4,7-4.1,9.5
							c-2.7,2.4-6.3,3.7-10.6,3.7c-3.1,0-6.4-0.5-9.8-1.6c-3.4-1.1-7.1-2.7-11-4.9v10c4,1.6,7.7,2.8,11.1,3.6
							c3.5,0.8,6.6,1.2,9.5,1.2c7.6,0,13.6-1.9,18.1-5.7c4.5-3.8,6.7-8.8,6.7-15.1c0-3-0.6-5.8-1.7-8.5c-1.1-2.7-3.2-5.8-6.1-9.5
							c-0.8-0.9-3.4-3.7-7.8-8.2C33.3,22.7,27.1,16.4,19.2,8.3z"/>
					</g>
					<g>
						<path id="DejaVuSans-36" d="M96.6,40.4c-4.4,0-7.9-1.5-10.5-4.5c-2.6-3-3.9-7.2-3.9-12.4c0-5.2,1.3-9.4,3.9-12.4
							c2.6-3,6.1-4.6,10.5-4.6c4.4,0,7.9,1.5,10.5,4.6c2.6,3.1,3.9,7.2,3.9,12.4c0,5.3-1.3,9.4-3.9,12.4
							C104.6,38.9,101.1,40.4,96.6,40.4z M116.2,71.3v-9c-2.5,1.2-5,2.1-7.5,2.7c-2.5,0.6-5,0.9-7.5,0.9c-6.5,0-11.5-2.2-14.9-6.6
							c-3.4-4.4-5.4-11-5.9-19.9c1.9,2.8,4.3,5,7.2,6.5c2.9,1.5,6.1,2.3,9.6,2.3c7.3,0,13.1-2.2,17.4-6.7c4.2-4.4,6.4-10.5,6.4-18.1
							c0-7.5-2.2-13.5-6.6-18c-4.4-4.5-10.3-6.8-17.7-6.8c-8.4,0-14.9,3.2-19.3,9.7c-4.5,6.5-6.7,15.8-6.7,28.1
							c0,11.5,2.7,20.7,8.2,27.6s12.8,10.3,22,10.3c2.5,0,5-0.2,7.5-0.7C110.8,73,113.5,72.3,116.2,71.3z"/>
					</g>
				</g>
			</g>
		</g>
		<g id="ytick_3">
			<g id="line2d_11">
				<g>
					<g>
						<path id="m03a7bc4285_00000178181235832519651000000015198690636302757800_" class="st7" d="M90,215.7h-3.5"/>
					</g>
				</g>
			</g>
			<g id="text_12">
				<g transform="translate(70.275 219.483532) scale(0.1 -0.1)">
					<g>
						<path id="DejaVuSans-32_00000120560626533275258100000001262044432450469309_" d="M19.2,8.3h34.4V0H7.3v8.3
							c3.7,3.9,8.8,9.1,15.3,15.6c6.5,6.5,10.5,10.7,12.2,12.6c3.2,3.5,5.4,6.5,6.6,9c1.3,2.5,1.9,4.9,1.9,7.2c0,3.9-1.4,7-4.1,9.5
							c-2.7,2.4-6.3,3.7-10.6,3.7c-3.1,0-6.4-0.5-9.8-1.6c-3.4-1.1-7.1-2.7-11-4.9v10c4,1.6,7.7,2.8,11.1,3.6
							c3.5,0.8,6.6,1.2,9.5,1.2c7.6,0,13.6-1.9,18.1-5.7c4.5-3.8,6.7-8.8,6.7-15.1c0-3-0.6-5.8-1.7-8.5c-1.1-2.7-3.2-5.8-6.1-9.5
							c-0.8-0.9-3.4-3.7-7.8-8.2C33.3,22.7,27.1,16.4,19.2,8.3z"/>
					</g>
					<g>
						<path id="DejaVuSans-37_00000069395538118000543060000001849773316477502604_" d="M71.8,72.9h46.9v-4.2L92.2,0H81.9l24.9,64.6
							h-35V72.9z"/>
					</g>
				</g>
			</g>
		</g>
		<g id="ytick_4">
			<g id="line2d_12">
				<g>
					<g>
						<path id="m03a7bc4285_00000130618704888653137690000013714663962145321614_" class="st7" d="M90,170.4h-3.5"/>
					</g>
				</g>
			</g>
			<g id="text_13">
				<g transform="translate(70.275 174.15114) scale(0.1 -0.1)">
					<g>
						<path id="DejaVuSans-32_00000133522728003104395620000009040922457602331274_" d="M19.2,8.3h34.4V0H7.3v8.3
							c3.7,3.9,8.8,9.1,15.3,15.6c6.5,6.5,10.5,10.7,12.2,12.6c3.2,3.5,5.4,6.5,6.6,9c1.3,2.5,1.9,4.9,1.9,7.2c0,3.9-1.4,7-4.1,9.5
							c-2.7,2.4-6.3,3.7-10.6,3.7c-3.1,0-6.4-0.5-9.8-1.6c-3.4-1.1-7.1-2.7-11-4.9v10c4,1.6,7.7,2.8,11.1,3.6
							c3.5,0.8,6.6,1.2,9.5,1.2c7.6,0,13.6-1.9,18.1-5.7c4.5-3.8,6.7-8.8,6.7-15.1c0-3-0.6-5.8-1.7-8.5c-1.1-2.7-3.2-5.8-6.1-9.5
							c-0.8-0.9-3.4-3.7-7.8-8.2C33.3,22.7,27.1,16.4,19.2,8.3z"/>
					</g>
					<g>
						<path id="DejaVuSans-38_00000002346977960108739640000009588693540081722809_" d="M95.4,34.6c-4.7,0-8.4-1.3-11.1-3.8
							c-2.7-2.5-4-6-4-10.3c0-4.4,1.3-7.8,4-10.4c2.7-2.5,6.4-3.8,11.1-3.8s8.4,1.3,11.1,3.8c2.7,2.5,4.1,6,4.1,10.3
							c0,4.4-1.3,7.8-4,10.3C103.8,33.4,100.1,34.6,95.4,34.6z M85.5,38.8c-4.2,1-7.5,3-9.9,5.9c-2.4,2.9-3.5,6.4-3.5,10.6
							c0,5.8,2.1,10.4,6.2,13.8c4.2,3.4,9.8,5.1,17.1,5.1c7.3,0,13-1.7,17.1-5.1c4.1-3.4,6.2-8,6.2-13.8c0-4.2-1.2-7.7-3.5-10.6
							c-2.4-2.9-5.6-4.9-9.8-5.9c4.8-1.1,8.4-3.3,11.1-6.5c2.7-3.2,4-7.2,4-11.8c0-7.1-2.2-12.5-6.5-16.3
							c-4.3-3.8-10.5-5.7-18.5-5.7c-8,0-14.2,1.9-18.5,5.7c-4.3,3.8-6.5,9.2-6.5,16.3c0,4.6,1.3,8.6,4,11.8
							C77.1,35.5,80.8,37.7,85.5,38.8z M81.9,54.4c0-3.8,1.2-6.7,3.5-8.8c2.4-2.1,5.7-3.2,9.9-3.2c4.2,0,7.6,1.1,9.9,3.2
							c2.4,2.1,3.6,5.1,3.6,8.8c0,3.8-1.2,6.7-3.6,8.8c-2.4,2.1-5.7,3.2-9.9,3.2c-4.3,0-7.6-1.1-9.9-3.2
							C83.1,61.1,81.9,58.2,81.9,54.4z"/>
					</g>
				</g>
			</g>
		</g>
		<g id="ytick_5">
			<g id="line2d_13">
				<g>
					<g>
						<path id="m03a7bc4285_00000041268943581170355740000005773354795364774300_" class="st7" d="M90,125h-3.5"/>
					</g>
				</g>
			</g>
			<g id="text_14">
				<g transform="translate(70.275 128.818747) scale(0.1 -0.1)">
					<g>
						<path id="DejaVuSans-32_00000070831403171148028150000003999634201505674656_" d="M19.2,8.3h34.4V0H7.3v8.3
							c3.7,3.9,8.8,9.1,15.3,15.6c6.5,6.5,10.5,10.7,12.2,12.6c3.2,3.5,5.4,6.5,6.6,9c1.3,2.5,1.9,4.9,1.9,7.2c0,3.9-1.4,7-4.1,9.5
							c-2.7,2.4-6.3,3.7-10.6,3.7c-3.1,0-6.4-0.5-9.8-1.6c-3.4-1.1-7.1-2.7-11-4.9v10c4,1.6,7.7,2.8,11.1,3.6
							c3.5,0.8,6.6,1.2,9.5,1.2c7.6,0,13.6-1.9,18.1-5.7c4.5-3.8,6.7-8.8,6.7-15.1c0-3-0.6-5.8-1.7-8.5c-1.1-2.7-3.2-5.8-6.1-9.5
							c-0.8-0.9-3.4-3.7-7.8-8.2C33.3,22.7,27.1,16.4,19.2,8.3z"/>
					</g>
					<g>
						<path id="DejaVuSans-39" d="M74.6,1.5v9c2.5-1.2,5-2.1,7.5-2.7c2.5-0.6,5-0.9,7.5-0.9c6.5,0,11.5,2.2,14.9,6.6
							c3.4,4.4,5.4,11,5.9,20c-1.9-2.8-4.3-5-7.2-6.5c-2.9-1.5-6.1-2.2-9.6-2.2c-7.3,0-13.1,2.2-17.3,6.6
							c-4.2,4.4-6.4,10.5-6.4,18.1c0,7.5,2.2,13.5,6.6,18c4.4,4.5,10.3,6.8,17.7,6.8c8.4,0,14.9-3.2,19.3-9.7
							c4.4-6.5,6.7-15.8,6.7-28.1c0-11.5-2.7-20.7-8.2-27.5C106.6,2,99.3-1.4,90-1.4c-2.5,0-5,0.2-7.5,0.7C80-0.2,77.3,0.5,74.6,1.5
							z M94.2,32.4c4.4,0,7.9,1.5,10.5,4.5c2.6,3,3.9,7.2,3.9,12.5c0,5.2-1.3,9.4-3.9,12.4c-2.6,3-6.1,4.6-10.5,4.6
							c-4.4,0-7.9-1.5-10.5-4.6c-2.6-3-3.9-7.2-3.9-12.4c0-5.3,1.3-9.4,3.9-12.5C86.3,33.9,89.8,32.4,94.2,32.4z"/>
					</g>
				</g>
			</g>
		</g>
		<g id="ytick_6">
			<g id="line2d_14">
				<g>
					<g>
						<path id="m03a7bc4285_00000165922376693832984180000015898690290263549335_" class="st7" d="M90,79.7h-3.5"/>
					</g>
				</g>
			</g>
			<g id="text_15">
				<g transform="translate(70.275 83.486355) scale(0.1 -0.1)">
					<g>
						<path id="DejaVuSans-33" d="M40.6,39.3c4.7-1,8.4-3.1,11-6.3c2.7-3.2,4-7.1,4-11.8c0-7.2-2.5-12.8-7.4-16.7
							c-4.9-3.9-12-5.9-21.1-5.9c-3.1,0-6.2,0.3-9.4,0.9S11.1,1,7.6,2.2v9.5c2.7-1.6,5.7-2.8,9-3.6c3.3-0.8,6.7-1.2,10.2-1.2
							c6.2,0,10.9,1.2,14.1,3.7s4.9,6,4.9,10.6c0,4.3-1.5,7.7-4.5,10.1c-3,2.4-7.2,3.6-12.6,3.6h-8.5V43h8.9c4.8,0,8.6,1,11.1,2.9
							s3.9,4.7,3.9,8.4c0,3.7-1.3,6.6-4,8.6c-2.6,2-6.4,3-11.4,3c-2.7,0-5.6-0.3-8.7-0.9c-3.1-0.6-6.5-1.5-10.2-2.7v8.8
							c3.8,1,7.3,1.8,10.5,2.3s6.4,0.8,9.2,0.8c7.5,0,13.4-1.7,17.8-5.1c4.4-3.4,6.5-8,6.5-13.8c0-4-1.2-7.5-3.5-10.2
							S44.8,40.4,40.6,39.3z"/>
					</g>
					<g>
						<path id="DejaVuSans-30_00000127727420950270630800000001025289864646271922_" d="M95.4,66.4c-5.1,0-8.9-2.5-11.5-7.5
							c-2.6-5-3.8-12.5-3.8-22.5c0-10,1.3-17.5,3.8-22.5c2.6-5,6.4-7.5,11.5-7.5c5.1,0,8.9,2.5,11.5,7.5c2.6,5,3.8,12.5,3.8,22.5
							c0,10-1.3,17.5-3.8,22.5C104.4,63.9,100.5,66.4,95.4,66.4z M95.4,74.2c8.2,0,14.4-3.2,18.7-9.7c4.3-6.5,6.5-15.8,6.5-28.1
							c0-12.3-2.2-21.6-6.5-28.1c-4.3-6.5-10.6-9.7-18.7-9.7c-8.2,0-14.4,3.2-18.7,9.7c-4.3,6.5-6.5,15.8-6.5,28.1
							c0,12.3,2.2,21.7,6.5,28.1C81,71,87.2,74.2,95.4,74.2z"/>
					</g>
				</g>
			</g>
		</g>
		<g id="text_16">
			<g transform="translate(64.195312 206.961719) rotate(-90) scale(0.1 -0.1)">
				<g>
					<path id="DejaVuSans-47" d="M59.5,10.4V30H43.4v8.1h25.9V6.8c-3.8-2.7-8-4.7-12.6-6.1C52.1-0.7,47.2-1.4,42-1.4
						c-11.4,0-20.3,3.3-26.8,10c-6.4,6.7-9.6,15.9-9.6,27.8c0,11.9,3.2,21.2,9.6,27.9c6.4,6.7,15.4,10,26.8,10
						c4.8,0,9.3-0.6,13.5-1.8c4.3-1.2,8.2-2.9,11.8-5.2V56.8c-3.6,3.1-7.5,5.4-11.6,7c-4.1,1.6-8.4,2.3-12.9,2.3
						c-8.9,0-15.6-2.5-20.1-7.5c-4.5-5-6.7-12.4-6.7-22.3c0-9.8,2.2-17.2,6.7-22.2c4.5-5,11.2-7.5,20.1-7.5c3.5,0,6.6,0.3,9.3,0.9
						C54.9,8.2,57.3,9.1,59.5,10.4z"/>
				</g>
				<g>
					<path id="DejaVuSans-44" d="M97.2,64.8V8.1h11.9c10.1,0,17.4,2.3,22.1,6.8c4.7,4.6,7,11.8,7,21.6c0,9.8-2.3,16.9-7,21.5
						c-4.7,4.5-12,6.8-22.1,6.8H97.2z M87.3,72.9h20.3c14.1,0,24.5-2.9,31.1-8.8c6.6-5.9,9.9-15.1,9.9-27.6c0-12.6-3.3-21.8-10-27.7
						c-6.6-5.9-17-8.8-31-8.8H87.3V72.9z"/>
				</g>
				<g>
					<path id="DejaVuSans-50" d="M174.2,64.8V37.4h12.4c4.6,0,8.1,1.2,10.6,3.6c2.5,2.4,3.8,5.8,3.8,10.2c0,4.4-1.3,7.7-3.8,10.1
						c-2.5,2.4-6,3.6-10.6,3.6H174.2z M164.3,72.9h22.3c8.2,0,14.4-1.8,18.5-5.5c4.2-3.7,6.3-9.1,6.3-16.2c0-7.2-2.1-12.6-6.3-16.3
						c-4.2-3.7-10.4-5.5-18.5-5.5h-12.4V0h-9.9V72.9z"/>
				</g>
				<g>
					<path id="DejaVuSans-20_00000056425804878275870570000006503611557856931225_" d="M214.8,0"/>
				</g>
				<g>
					<path id="DejaVuSans-5b" d="M255.2,76h20.7v-7h-11.7V-6.2h11.7v-7h-20.7V76z"/>
				</g>
				<g>
					<path id="DejaVuSans-4c_00000171686077107201978050000016275645502394574745_" d="M295.4,72.9h9.9V8.3h35.5V0h-45.4V72.9z"/>
				</g>
				<g>
					<path id="DejaVuSans-6f" d="M370.2,48.4c-4.8,0-8.6-1.9-11.4-5.6c-2.8-3.8-4.2-8.9-4.2-15.5s1.4-11.7,4.2-15.5
						c2.8-3.8,6.6-5.6,11.5-5.6c4.8,0,8.6,1.9,11.4,5.7c2.8,3.8,4.2,8.9,4.2,15.4c0,6.5-1.4,11.6-4.2,15.4
						C378.8,46.5,375,48.4,370.2,48.4z M370.2,56c7.8,0,13.9-2.5,18.4-7.6c4.5-5.1,6.7-12.1,6.7-21.1c0-8.9-2.2-16-6.7-21.1
						c-4.5-5.1-10.6-7.6-18.4-7.6c-7.8,0-14,2.5-18.4,7.6c-4.4,5.1-6.7,12.1-6.7,21.1c0,9,2.2,16,6.7,21.1
						C356.2,53.5,362.3,56,370.2,56z"/>
				</g>
				<g>
					<path id="DejaVuSans-67" d="M446.1,28c0,6.5-1.3,11.6-4,15.1c-2.7,3.6-6.4,5.4-11.3,5.4c-4.8,0-8.6-1.8-11.2-5.4
						c-2.7-3.6-4-8.6-4-15.1c0-6.5,1.3-11.5,4-15.1s6.4-5.4,11.2-5.4c4.9,0,8.6,1.8,11.3,5.4C444.8,16.5,446.1,21.5,446.1,28z
						 M455.1,6.8c0-9.3-2.1-16.2-6.2-20.8c-4.1-4.5-10.5-6.8-19-6.8c-3.2,0-6.1,0.2-8.9,0.7c-2.8,0.5-5.5,1.2-8.2,2.2v8.7
						c2.6-1.4,5.2-2.5,7.8-3.2c2.6-0.7,5.2-1,7.9-1c5.9,0,10.3,1.5,13.2,4.6c2.9,3.1,4.4,7.7,4.4,13.9v4.5c-1.9-3.2-4.2-5.6-7.1-7.2
						c-2.9-1.6-6.4-2.4-10.4-2.4c-6.7,0-12.1,2.6-16.2,7.7c-4.1,5.1-6.2,11.9-6.2,20.3c0,8.5,2.1,15.2,6.2,20.3
						c4.1,5.1,9.5,7.7,16.2,7.7c4,0,7.5-0.8,10.4-2.4c2.9-1.6,5.3-4,7.1-7.2v8.3h9V6.8z"/>
				</g>
				<g>
					<path id="DejaVuSans-5d" d="M494.6,76v-89.2h-20.7v7h11.7V69h-11.7v7H494.6z"/>
				</g>
			</g>
		</g>
	</g>
	<g id="line2d_15">
		<g>
			<defs>
				<rect id="SVGID_00000141418295500849866620000011401435510313258424_" x="90" y="43.2" width="558" height="277.2"/>
			</defs>
			<clipPath id="SVGID_00000167357816327040716990000006683230869166303380_">
				<use xlink:href="#SVGID_00000141418295500849866620000011401435510313258424_"  style="overflow:visible;"/>
			</clipPath>
			
				<path style="clip-path:url(#SVGID_00000167357816327040716990000006683230869166303380_);fill:none;stroke:#FF0000;stroke-width:1.5;stroke-linecap:square;stroke-linejoin:round;" d="
				M115.4,223.1l26.7-8.4l26.7-8.4l26.7-8.4l26.7-8.4l26.7-8.4l26.7-8.4l26.7-8.4l26.7-8.4l26.7-8.4l26.7-8.4l26.7-8.4l26.7-8.4
				l26.7-8.4l26.7-8.4l26.7-8.4l26.7-8.4l26.7-8.4l26.7-8.4l26.7-8.4"/>
		</g>
	</g>
	<g id="patch_3">
		<path class="st9" d="M90,320.4V43.2"/>
	</g>
	<g id="patch_4">
		<path class="st9" d="M648,320.4V43.2"/>
	</g>
	<g id="patch_5">
		<path class="st9" d="M90,320.4h558"/>
	</g>
	<g id="patch_6">
		<path class="st9" d="M90,43.2h558"/>
	</g>
	<rect x="388" y="269.4" class="st10" width="82.8" height="21.7"/>
	<text transform="matrix(1 0 0 1 388.0264 277.9725)" class="st11 st12 st13">Chile</text>
	<rect x="374.8" y="151.1" class="st10" width="100.4" height="20.7"/>
	<text transform="matrix(1 0 0 1 374.7841 159.721)" class="st14 st12 st13">Germany</text>
	<rect x="333.4" y="75.3" class="st10" width="36.2" height="8.8"/>
	<text transform="matrix(1 0 0 1 333.449 83.9111)" class="st15 st12 st13">USA</text>
	<rect x="90" y="43.2" class="st16" width="292.3" height="277.2"/>
	<rect x="146.1" y="62.1" class="st10" width="122.1" height="60"/>
	<text transform="matrix(1 0 0 1 146.1181 67.8954)"><tspan x="0" y="0" class="st12 st17">Despite USAs high GDP, was </tspan><tspan x="0" y="9.6" class="st12 st17">ranked #3 in highest life </tspan><tspan x="0" y="19.2" class="st12 st17">expectancy</tspan></text>
	<rect x="479.7" y="132.6" class="st10" width="119.1" height="54.2"/>
	<text transform="matrix(1 0 0 1 479.6644 138.3481)"><tspan x="0" y="0" class="st12 st17">Germanys GDP and Life </tspan><tspan x="0" y="9.6" class="st12 st17">Expectancy aligns with our </tspan><tspan x="0" y="19.2" class="st12 st17">regression model</tspan></text>
	<rect x="447.6" y="254.2" class="st10" width="147.3" height="48"/>
	<text transform="matrix(1 0 0 1 447.6196 259.9841)"><tspan x="0" y="0" class="st12 st17">Chile despite having a five fold lower </tspan><tspan x="0" y="9.6" class="st12 st17">GDP compared to the US, ranked #1 in </tspan><tspan x="0" y="19.2" class="st12 st17">highest life expectancy rates</tspan></text>
	<rect x="146.3" y="56.6" class="st18" width="179.6" height="2.4"/>
	<rect x="438.4" y="127.8" class="st19" width="145" height="2.4"/>
	<rect x="408.4" y="246.8" class="st20" width="179.6" height="2.4"/>
</g>
<g id="text_20">
	<g transform="translate(100.366875 25.43625) scale(0.24 -0.24)">
		<g>
			<path id="DejaVuSans-4c_00000130641596942250083580000010590598360948186288_" d="M9.8,72.9h9.9V8.3h35.5V0H9.8V72.9z"/>
		</g>
		<g>
			<path id="DejaVuSans-69_00000031913242079255385430000007088715073098598577_" d="M65.1,54.7h9V0h-9V54.7z M65.1,76h9V64.6h-9V76
				z"/>
		</g>
		<g>
			<path id="DejaVuSans-66_00000158730890990402654650000008805566681077171340_" d="M120.6,76v-7.5H112c-3.2,0-5.5-0.7-6.7-2
				c-1.2-1.3-1.9-3.6-1.9-7v-4.8h14.8v-7h-14.8V0h-9v47.7h-8.6v7h8.6v3.8c0,6.1,1.4,10.5,4.2,13.3c2.8,2.8,7.3,4.2,13.5,4.2H120.6z"
				/>
		</g>
		<g>
			<path id="DejaVuSans-65_00000164492179585239116280000013938530654709612723_" d="M174.9,29.6v-4.4h-41.3
				c0.4-6.2,2.3-10.9,5.6-14.1c3.3-3.2,8-4.9,13.9-4.9c3.4,0,6.8,0.4,10,1.3c3.2,0.8,6.5,2.1,9.7,3.8V2.8c-3.2-1.4-6.5-2.4-9.9-3.1
				c-3.4-0.7-6.8-1.1-10.3-1.1c-8.7,0-15.6,2.5-20.7,7.6c-5.1,5.1-7.6,12-7.6,20.6c0,8.9,2.4,16,7.3,21.3c4.8,5.3,11.4,7.9,19.6,7.9
				c7.4,0,13.2-2.4,17.5-7.1C172.8,44.2,174.9,37.7,174.9,29.6z M165.9,32.2c-0.1,4.9-1.4,8.8-4.1,11.8c-2.7,2.9-6.2,4.4-10.7,4.4
				c-5,0-9-1.4-12-4.2c-3-2.8-4.7-6.8-5.2-12L165.9,32.2z"/>
		</g>
		<g>
			<path id="DejaVuSans-20_00000072983746350852449800000012944766194199337094_" d="M180.2,0"/>
		</g>
		<g>
			<path id="DejaVuSans-45_00000178164026271442000790000006052006484697973404_" d="M221.8,72.9h46.1v-8.3h-36.2V43h34.7v-8.3
				h-34.7V8.3h37.1V0h-47V72.9z"/>
		</g>
		<g>
			<path id="DejaVuSans-78_00000056389161805581163080000008988333080588202942_" d="M330.1,54.7l-19.8-26.6L331.1,0h-10.6
				l-15.9,21.5L288.7,0h-10.6l21.2,28.6l-19.4,26.1h10.6L305,35.2l14.5,19.5H330.1z"/>
		</g>
		<g>
			<path id="DejaVuSans-70_00000127765765686931941840000012172146963967286963_" d="M352.5,8.2v-29h-9v75.5h9v-8.3
				c1.9,3.2,4.3,5.7,7.2,7.2c2.9,1.6,6.3,2.4,10.3,2.4c6.6,0,12-2.6,16.2-7.9c4.2-5.3,6.2-12.2,6.2-20.8s-2.1-15.5-6.2-20.8
				c-4.1-5.3-9.5-7.9-16.2-7.9c-4,0-7.4,0.8-10.3,2.4C356.8,2.5,354.4,5,352.5,8.2z M383.1,27.3c0,6.6-1.4,11.8-4.1,15.5
				s-6.5,5.6-11.2,5.6c-4.8,0-8.5-1.9-11.2-5.6s-4.1-8.9-4.1-15.5s1.4-11.8,4.1-15.5s6.5-5.6,11.2-5.6c4.8,0,8.5,1.9,11.2,5.6
				S383.1,20.7,383.1,27.3z"/>
		</g>
		<g>
			<path id="DejaVuSans-65_00000114784104774793313300000015190480091348393124_" d="M454.1,29.6v-4.4h-41.3
				c0.4-6.2,2.3-10.9,5.6-14.1c3.3-3.2,8-4.9,13.9-4.9c3.4,0,6.8,0.4,10,1.3c3.2,0.8,6.5,2.1,9.7,3.8V2.8c-3.2-1.4-6.5-2.4-9.9-3.1
				c-3.4-0.7-6.8-1.1-10.3-1.1c-8.7,0-15.6,2.5-20.7,7.6c-5.1,5.1-7.6,12-7.6,20.6c0,8.9,2.4,16,7.2,21.3c4.8,5.3,11.4,7.9,19.6,7.9
				c7.4,0,13.2-2.4,17.5-7.1C451.9,44.2,454.1,37.7,454.1,29.6z M445.1,32.2c-0.1,4.9-1.4,8.8-4.1,11.8c-2.7,2.9-6.2,4.4-10.7,4.4
				c-5,0-9-1.4-12-4.2c-3-2.8-4.7-6.8-5.2-12L445.1,32.2z"/>
		</g>
		<g>
			<path id="DejaVuSans-63_00000089559826031849114410000004603981068250970033_" d="M508.2,52.6v-8.4c-2.5,1.4-5.1,2.5-7.6,3.2
				c-2.6,0.7-5.1,1-7.7,1c-5.8,0-10.4-1.8-13.6-5.5c-3.2-3.7-4.8-8.9-4.8-15.5s1.6-11.9,4.8-15.6c3.2-3.7,7.8-5.5,13.6-5.5
				c2.6,0,5.2,0.3,7.7,1c2.6,0.7,5.1,1.8,7.6,3.2V2.1c-2.5-1.2-5.1-2-7.8-2.6c-2.7-0.6-5.5-0.9-8.6-0.9c-8.2,0-14.8,2.6-19.6,7.8
				c-4.8,5.2-7.3,12.2-7.3,21c0,8.9,2.4,15.9,7.3,21c4.9,5.1,11.6,7.7,20.2,7.7c2.8,0,5.5-0.3,8.1-0.9
				C503.1,54.6,505.7,53.7,508.2,52.6z"/>
		</g>
		<g>
			<path id="DejaVuSans-74_00000085946758693684764300000001261871224972997545_" d="M532.7,70.2V54.7h18.5v-7h-18.5V18
				c0-4.5,0.6-7.3,1.8-8.6s3.7-1.9,7.5-1.9h9.2V0h-9.2c-6.9,0-11.7,1.3-14.4,3.9c-2.6,2.6-4,7.3-4,14.1v29.7H517v7h6.6v15.5H532.7z"
				/>
		</g>
		<g>
			<path id="DejaVuSans-61_00000167355613248164755150000008493737954369481608_" d="M587.8,27.5c-7.3,0-12.3-0.8-15.1-2.5
				c-2.8-1.7-4.2-4.5-4.2-8.5c0-3.2,1.1-5.7,3.2-7.6c2.1-1.9,5-2.8,8.6-2.8c5,0,9,1.8,12,5.3c3,3.5,4.5,8.2,4.5,14.1v2H587.8z
				 M605.8,31.2V0h-9v8.3c-2.1-3.3-4.6-5.8-7.7-7.3s-6.8-2.4-11.2-2.4c-5.6,0-10,1.6-13.4,4.7c-3.3,3.1-5,7.4-5,12.6
				c0,6.1,2.1,10.8,6.2,13.9c4.1,3.1,10.3,4.7,18.4,4.7h12.6v0.9c0,4.1-1.4,7.3-4.1,9.6s-6.5,3.4-11.5,3.4c-3.1,0-6.2-0.4-9.1-1.1
				c-3-0.8-5.8-1.9-8.5-3.4v8.3c3.3,1.3,6.5,2.2,9.6,2.8c3.1,0.6,6.1,1,9,1c7.9,0,13.8-2.1,17.7-6.2
				C603.8,45.8,605.8,39.5,605.8,31.2z"/>
		</g>
		<g>
			<path id="DejaVuSans-6e_00000084521317562172990860000000071225204881813156_" d="M669.7,33V0h-9v32.7c0,5.2-1,9-3,11.6
				c-2,2.6-5,3.9-9.1,3.9c-4.9,0-8.7-1.5-11.5-4.6c-2.8-3.1-4.2-7.3-4.2-12.6V0h-9v54.7h9v-8.5c2.2,3.3,4.7,5.8,7.6,7.4
				c2.9,1.6,6.3,2.4,10.1,2.4c6.3,0,11-1.9,14.2-5.8C668.1,46.3,669.7,40.6,669.7,33z"/>
		</g>
		<g>
			<path id="DejaVuSans-63_00000147911981779457380110000017352627926605445049_" d="M727,52.6v-8.4c-2.5,1.4-5.1,2.5-7.6,3.2
				c-2.6,0.7-5.1,1-7.7,1c-5.8,0-10.4-1.8-13.6-5.5c-3.2-3.7-4.8-8.9-4.8-15.5s1.6-11.9,4.8-15.6c3.2-3.7,7.8-5.5,13.6-5.5
				c2.6,0,5.2,0.3,7.7,1c2.6,0.7,5.1,1.8,7.6,3.2V2.1c-2.5-1.2-5.1-2-7.8-2.6c-2.7-0.6-5.5-0.9-8.6-0.9c-8.2,0-14.8,2.6-19.6,7.8
				c-4.8,5.2-7.3,12.2-7.3,21c0,8.9,2.4,15.9,7.3,21c4.9,5.1,11.6,7.7,20.2,7.7c2.8,0,5.5-0.3,8.1-0.9C722,54.6,724.5,53.7,727,52.6
				z"/>
		</g>
		<g>
			<path id="DejaVuSans-79_00000015346573539887975410000011193340259377814185_" d="M765.4-5.1c-2.5-6.5-5-10.8-7.4-12.7
				c-2.4-2-5.6-3-9.7-3h-7.2v7.5h5.3c2.5,0,4.4,0.6,5.8,1.8c1.4,1.2,2.9,3.9,4.5,8.3l1.6,4.1l-22.1,53.8h9.5l17.1-42.8l17.1,42.8
				h9.5L765.4-5.1z"/>
		</g>
		<g>
			<path id="DejaVuSans-20_00000064346224351851613420000013386523220489698457_" d="M792.4,0"/>
		</g>
		<g>
			<path id="DejaVuSans-52" d="M868.6,34.2c2.1-0.7,4.2-2.2,6.2-4.6s4-5.6,6-9.7l10-19.9h-10.6l-9.3,18.7c-2.4,4.9-4.8,8.1-7,9.7
				c-2.3,1.6-5.3,2.4-9.2,2.4h-10.8V0H834v72.9h22.3c8.3,0,14.6-1.7,18.7-5.2c4.1-3.5,6.2-8.7,6.2-15.8c0-4.6-1.1-8.4-3.2-11.4
				C875.7,37.4,872.6,35.4,868.6,34.2z M843.8,64.8V38.9h12.4c4.8,0,8.3,1.1,10.8,3.3c2.4,2.2,3.6,5.4,3.6,9.7s-1.2,7.5-3.6,9.6
				c-2.4,2.2-6,3.2-10.8,3.2H843.8z"/>
		</g>
		<g>
			<path id="DejaVuSans-65_00000128448792478111199610000006878763405739563197_" d="M945.4,29.6v-4.4H904
				c0.4-6.2,2.3-10.9,5.6-14.1c3.3-3.2,8-4.9,13.9-4.9c3.4,0,6.8,0.4,10,1.3c3.2,0.8,6.5,2.1,9.7,3.8V2.8c-3.2-1.4-6.5-2.4-9.9-3.1
				c-3.4-0.7-6.8-1.1-10.3-1.1c-8.7,0-15.6,2.5-20.7,7.6c-5.1,5.1-7.6,12-7.6,20.6c0,8.9,2.4,16,7.2,21.3c4.8,5.3,11.4,7.9,19.6,7.9
				c7.4,0,13.2-2.4,17.5-7.1C943.2,44.2,945.4,37.7,945.4,29.6z M936.4,32.2c-0.1,4.9-1.4,8.8-4.1,11.8c-2.7,2.9-6.2,4.4-10.7,4.4
				c-5,0-9-1.4-12-4.2c-3-2.8-4.7-6.8-5.2-12L936.4,32.2z"/>
		</g>
		<g>
			<path id="DejaVuSans-67_00000141442807167875180390000005833981372665706430_" d="M996.1,28c0,6.5-1.3,11.6-4,15.1
				c-2.7,3.6-6.4,5.4-11.3,5.4c-4.8,0-8.6-1.8-11.2-5.4c-2.7-3.6-4-8.6-4-15.1c0-6.5,1.3-11.5,4-15.1s6.4-5.4,11.2-5.4
				c4.9,0,8.6,1.8,11.3,5.4C994.7,16.5,996.1,21.5,996.1,28z M1005.1,6.8c0-9.3-2.1-16.2-6.2-20.8c-4.1-4.5-10.5-6.8-19-6.8
				c-3.2,0-6.1,0.2-8.9,0.7c-2.8,0.5-5.5,1.2-8.2,2.2v8.7c2.6-1.4,5.2-2.5,7.8-3.2c2.6-0.7,5.2-1,7.9-1c5.9,0,10.3,1.5,13.2,4.6
				c2.9,3.1,4.4,7.7,4.4,13.9v4.5c-1.9-3.2-4.2-5.6-7.1-7.2c-2.9-1.6-6.4-2.4-10.4-2.4c-6.7,0-12.1,2.6-16.2,7.7
				c-4.1,5.1-6.2,11.9-6.2,20.3c0,8.5,2.1,15.2,6.2,20.3c4.1,5.1,9.5,7.7,16.2,7.7c4,0,7.5-0.8,10.4-2.4c2.9-1.6,5.3-4,7.1-7.2v8.3
				h9V6.8z"/>
		</g>
		<g>
			<path id="DejaVuSans-72_00000121975624709864656460000005025570866053152957_" d="M1055.3,46.3c-1,0.6-2.1,1-3.3,1.3
				c-1.2,0.3-2.5,0.4-3.9,0.4c-5.1,0-9-1.7-11.7-5s-4.1-8-4.1-14.2V0h-9v54.7h9v-8.5c1.9,3.3,4.4,5.8,7.4,7.4c3,1.6,6.7,2.4,11,2.4
				c0.6,0,1.3,0,2-0.1c0.8-0.1,1.6-0.2,2.5-0.4L1055.3,46.3z"/>
		</g>
		<g>
			<path id="DejaVuSans-65_00000026854360548350550860000001865951928819859845_" d="M1109.2,29.6v-4.4h-41.3
				c0.4-6.2,2.3-10.9,5.6-14.1c3.3-3.2,8-4.9,13.9-4.9c3.4,0,6.8,0.4,10,1.3c3.2,0.8,6.5,2.1,9.7,3.8V2.8c-3.2-1.4-6.5-2.4-9.9-3.1
				c-3.4-0.7-6.8-1.1-10.3-1.1c-8.7,0-15.6,2.5-20.7,7.6c-5.1,5.1-7.6,12-7.6,20.6c0,8.9,2.4,16,7.2,21.3c4.8,5.3,11.4,7.9,19.6,7.9
				c7.4,0,13.2-2.4,17.5-7.1C1107.1,44.2,1109.2,37.7,1109.2,29.6z M1100.2,32.2c-0.1,4.9-1.4,8.8-4.1,11.8
				c-2.7,2.9-6.2,4.4-10.7,4.4c-5,0-9-1.4-12-4.2c-3-2.8-4.7-6.8-5.2-12L1100.2,32.2z"/>
		</g>
		<g>
			<path id="DejaVuSans-73" d="M1158.8,53.1v-8.5c-2.5,1.3-5.2,2.3-7.9,2.9c-2.7,0.7-5.6,1-8.5,1c-4.5,0-7.8-0.7-10-2
				c-2.2-1.4-3.3-3.4-3.3-6.2c0-2.1,0.8-3.7,2.4-4.9s4.8-2.3,9.6-3.4l3.1-0.7c6.4-1.4,10.9-3.3,13.6-5.8s4-6,4-10.4
				c0-5.1-2-9.1-6-12.1c-4-3-9.5-4.4-16.6-4.4c-2.9,0-6,0.3-9.2,0.9c-3.2,0.6-6.5,1.4-10,2.6v9.3c3.3-1.7,6.6-3,9.8-3.9
				c3.2-0.9,6.4-1.3,9.6-1.3c4.2,0,7.5,0.7,9.8,2.2c2.3,1.4,3.4,3.5,3.4,6.1c0,2.4-0.8,4.3-2.5,5.6c-1.6,1.3-5.2,2.6-10.8,3.8
				l-3.1,0.7c-5.6,1.2-9.6,3-12.1,5.4c-2.5,2.4-3.7,5.8-3.7,10c0,5.1,1.8,9.1,5.5,11.9c3.6,2.8,8.8,4.2,15.5,4.2
				c3.3,0,6.4-0.2,9.4-0.7C1153.6,54.8,1156.4,54.1,1158.8,53.1z"/>
		</g>
		<g>
			<path id="DejaVuSans-73_00000132079675617742668550000005375613158634292390_" d="M1210.9,53.1v-8.5c-2.5,1.3-5.2,2.3-7.9,2.9
				c-2.7,0.7-5.6,1-8.5,1c-4.5,0-7.8-0.7-10-2c-2.2-1.4-3.3-3.4-3.3-6.2c0-2.1,0.8-3.7,2.4-4.9s4.8-2.3,9.6-3.4l3.1-0.7
				c6.4-1.4,10.9-3.3,13.6-5.8s4-6,4-10.4c0-5.1-2-9.1-6-12.1c-4-3-9.5-4.4-16.6-4.4c-2.9,0-6,0.3-9.2,0.9c-3.2,0.6-6.5,1.4-10,2.6
				v9.3c3.3-1.7,6.6-3,9.8-3.9c3.2-0.9,6.4-1.3,9.6-1.3c4.2,0,7.5,0.7,9.8,2.2c2.3,1.4,3.4,3.5,3.4,6.1c0,2.4-0.8,4.3-2.5,5.6
				c-1.6,1.3-5.2,2.6-10.8,3.8l-3.1,0.7c-5.6,1.2-9.6,3-12.1,5.4c-2.5,2.4-3.7,5.8-3.7,10c0,5.1,1.8,9.1,5.5,11.9
				c3.6,2.8,8.8,4.2,15.5,4.2c3.3,0,6.4-0.2,9.4-0.7C1205.7,54.8,1208.5,54.1,1210.9,53.1z"/>
		</g>
		<g>
			<path id="DejaVuSans-69_00000136412973732524154460000017131310122875666310_" d="M1228.2,54.7h9V0h-9V54.7z M1228.2,76h9V64.6
				h-9V76z"/>
		</g>
		<g>
			<path id="DejaVuSans-6f_00000091721511612867884010000014174137661565460397_" d="M1277.1,48.4c-4.8,0-8.6-1.9-11.4-5.6
				c-2.8-3.8-4.2-8.9-4.2-15.5s1.4-11.7,4.2-15.5c2.8-3.8,6.6-5.6,11.5-5.6c4.8,0,8.6,1.9,11.4,5.7c2.8,3.8,4.2,8.9,4.2,15.4
				c0,6.5-1.4,11.6-4.2,15.4C1285.7,46.5,1281.9,48.4,1277.1,48.4z M1277.1,56c7.8,0,13.9-2.5,18.4-7.6c4.5-5.1,6.7-12.1,6.7-21.1
				c0-8.9-2.2-16-6.7-21.1c-4.5-5.1-10.6-7.6-18.4-7.6c-7.8,0-14,2.5-18.4,7.6c-4.4,5.1-6.7,12.1-6.7,21.1c0,9,2.2,16,6.7,21.1
				C1263.1,53.5,1269.3,56,1277.1,56z"/>
		</g>
		<g>
			<path id="DejaVuSans-6e_00000067205909679101159990000013842990243908264577_" d="M1362.6,33V0h-9v32.7c0,5.2-1,9-3,11.6
				c-2,2.6-5,3.9-9.1,3.9c-4.9,0-8.7-1.5-11.5-4.6c-2.8-3.1-4.2-7.3-4.2-12.6V0h-9v54.7h9v-8.5c2.2,3.3,4.7,5.8,7.6,7.4
				c2.9,1.6,6.3,2.4,10.1,2.4c6.3,0,11-1.9,14.2-5.8C1361,46.3,1362.6,40.6,1362.6,33z"/>
		</g>
		<g>
			<path id="DejaVuSans-20_00000044143616450929674220000013925612129244751278_" d="M1371.1,0"/>
		</g>
		<g>
			<path id="DejaVuSans-32_00000113339027090822093900000005210285264276085652_" d="M1422.1,8.3h34.4V0h-46.3v8.3
				c3.7,3.9,8.8,9.1,15.3,15.6c6.5,6.5,10.5,10.7,12.2,12.6c3.2,3.5,5.4,6.5,6.6,9c1.3,2.5,1.9,4.9,1.9,7.2c0,3.9-1.4,7-4.1,9.5
				c-2.7,2.4-6.3,3.7-10.6,3.7c-3.1,0-6.4-0.5-9.8-1.6c-3.4-1.1-7.1-2.7-11-4.9v10c4,1.6,7.7,2.8,11.1,3.6c3.5,0.8,6.6,1.2,9.5,1.2
				c7.6,0,13.6-1.9,18.1-5.7c4.5-3.8,6.7-8.8,6.7-15.1c0-3-0.6-5.8-1.7-8.5c-1.1-2.7-3.2-5.8-6.1-9.5c-0.8-0.9-3.4-3.7-7.8-8.2
				C1436.2,22.7,1430,16.4,1422.1,8.3z"/>
		</g>
		<g>
			<path id="DejaVuSans-30_00000166640131601039224030000008878716365272033952_" d="M1498.3,66.4c-5.1,0-8.9-2.5-11.5-7.5
				c-2.6-5-3.8-12.5-3.8-22.5c0-10,1.3-17.5,3.8-22.5c2.6-5,6.4-7.5,11.5-7.5c5.1,0,8.9,2.5,11.5,7.5c2.6,5,3.8,12.5,3.8,22.5
				c0,10-1.3,17.5-3.8,22.5C1507.2,63.9,1503.4,66.4,1498.3,66.4z M1498.3,74.2c8.2,0,14.4-3.2,18.7-9.7c4.3-6.5,6.5-15.8,6.5-28.1
				c0-12.3-2.2-21.6-6.5-28.1c-4.3-6.5-10.6-9.7-18.7-9.7c-8.2,0-14.4,3.2-18.7,9.7c-4.3,6.5-6.5,15.8-6.5,28.1
				c0,12.3,2.2,21.7,6.5,28.1C1483.9,71,1490.1,74.2,1498.3,74.2z"/>
		</g>
		<g>
			<path id="DejaVuSans-30_00000150065110123148758000000003155060481958244753_" d="M1561.9,66.4c-5.1,0-8.9-2.5-11.5-7.5
				c-2.6-5-3.8-12.5-3.8-22.5c0-10,1.3-17.5,3.8-22.5c2.6-5,6.4-7.5,11.5-7.5c5.1,0,8.9,2.5,11.5,7.5c2.6,5,3.8,12.5,3.8,22.5
				c0,10-1.3,17.5-3.8,22.5C1570.8,63.9,1567,66.4,1561.9,66.4z M1561.9,74.2c8.2,0,14.4-3.2,18.7-9.7c4.3-6.5,6.5-15.8,6.5-28.1
				c0-12.3-2.2-21.6-6.5-28.1c-4.3-6.5-10.6-9.7-18.7-9.7c-8.2,0-14.4,3.2-18.7,9.7c-4.3,6.5-6.5,15.8-6.5,28.1
				c0,12.3,2.2,21.7,6.5,28.1C1547.5,71,1553.7,74.2,1561.9,74.2z"/>
		</g>
		<g>
			<path id="DejaVuSans-30_00000020362910652881344190000002983544110891077282_" d="M1625.5,66.4c-5.1,0-8.9-2.5-11.5-7.5
				c-2.6-5-3.8-12.5-3.8-22.5c0-10,1.3-17.5,3.8-22.5c2.6-5,6.4-7.5,11.5-7.5c5.1,0,8.9,2.5,11.5,7.5c2.6,5,3.8,12.5,3.8,22.5
				c0,10-1.3,17.5-3.8,22.5C1634.5,63.9,1630.6,66.4,1625.5,66.4z M1625.5,74.2c8.2,0,14.4-3.2,18.7-9.7c4.3-6.5,6.5-15.8,6.5-28.1
				c0-12.3-2.2-21.6-6.5-28.1c-4.3-6.5-10.6-9.7-18.7-9.7c-8.2,0-14.4,3.2-18.7,9.7c-4.3,6.5-6.5,15.8-6.5,28.1
				c0,12.3,2.2,21.7,6.5,28.1C1611.1,71,1617.4,74.2,1625.5,74.2z"/>
		</g>
		<g>
			<path id="DejaVuSans-20_00000134244486770056335630000015355502322967083145_" d="M1657.4,0"/>
		</g>
		<g>
			<path id="DejaVuSans-61_00000013883212786332035060000014349653549179400114_" d="M1723.4,27.5c-7.3,0-12.3-0.8-15.1-2.5
				c-2.8-1.7-4.2-4.5-4.2-8.5c0-3.2,1.1-5.7,3.2-7.6c2.1-1.9,5-2.8,8.6-2.8c5,0,9,1.8,12,5.3c3,3.5,4.5,8.2,4.5,14.1v2H1723.4z
				 M1741.4,31.2V0h-9v8.3c-2.1-3.3-4.6-5.8-7.7-7.3s-6.8-2.4-11.2-2.4c-5.6,0-10,1.6-13.4,4.7c-3.3,3.1-5,7.4-5,12.6
				c0,6.1,2.1,10.8,6.2,13.9c4.1,3.1,10.3,4.7,18.4,4.7h12.6v0.9c0,4.1-1.4,7.3-4.1,9.6s-6.5,3.4-11.5,3.4c-3.1,0-6.2-0.4-9.1-1.1
				c-3-0.8-5.8-1.9-8.5-3.4v8.3c3.3,1.3,6.5,2.2,9.6,2.8c3.1,0.6,6.1,1,9,1c7.9,0,13.8-2.1,17.7-6.2
				C1739.4,45.8,1741.4,39.5,1741.4,31.2z"/>
		</g>
		<g>
			<path id="DejaVuSans-6e_00000180324906552254941810000007076782315624001470_" d="M1805.3,33V0h-9v32.7c0,5.2-1,9-3,11.6
				c-2,2.6-5,3.9-9.1,3.9c-4.9,0-8.7-1.5-11.5-4.6c-2.8-3.1-4.2-7.3-4.2-12.6V0h-9v54.7h9v-8.5c2.2,3.3,4.7,5.8,7.6,7.4
				c2.9,1.6,6.3,2.4,10.1,2.4c6.3,0,11-1.9,14.2-5.8C1803.7,46.3,1805.3,40.6,1805.3,33z"/>
		</g>
		<g>
			<path id="DejaVuSans-64" d="M1859.2,46.4V76h9V0h-9v8.2c-1.9-3.2-4.3-5.7-7.2-7.2c-2.9-1.6-6.3-2.4-10.4-2.4
				c-6.6,0-12,2.6-16.1,7.9c-4.1,5.3-6.2,12.2-6.2,20.8s2.1,15.5,6.2,20.8c4.2,5.3,9.5,7.9,16.1,7.9c4,0,7.5-0.8,10.4-2.4
				C1854.9,52.1,1857.3,49.6,1859.2,46.4z M1828.6,27.3c0-6.6,1.4-11.8,4.1-15.5s6.5-5.6,11.2-5.6s8.5,1.9,11.2,5.6
				c2.7,3.8,4.1,8.9,4.1,15.5s-1.4,11.8-4.1,15.5c-2.7,3.8-6.5,5.6-11.2,5.6s-8.5-1.9-11.2-5.6S1828.6,33.9,1828.6,27.3z"/>
		</g>
		<g>
			<path id="DejaVuSans-20_00000091007931064314302840000016076920087485950880_" d="M1877.3,0"/>
		</g>
		<g>
			<path id="DejaVuSans-32_00000157267485591690025360000005797431971500266893_" d="M1928.3,8.3h34.4V0h-46.3v8.3
				c3.7,3.9,8.8,9.1,15.3,15.6c6.5,6.5,10.5,10.7,12.2,12.6c3.2,3.5,5.4,6.5,6.6,9c1.3,2.5,1.9,4.9,1.9,7.2c0,3.9-1.4,7-4.1,9.5
				c-2.7,2.4-6.3,3.7-10.6,3.7c-3.1,0-6.4-0.5-9.8-1.6c-3.4-1.1-7.1-2.7-11-4.9v10c4,1.6,7.7,2.8,11.1,3.6c3.5,0.8,6.6,1.2,9.5,1.2
				c7.6,0,13.6-1.9,18.1-5.7c4.5-3.8,6.7-8.8,6.7-15.1c0-3-0.6-5.8-1.7-8.5c-1.1-2.7-3.2-5.8-6.1-9.5c-0.8-0.9-3.4-3.7-7.8-8.2
				C1942.4,22.7,1936.2,16.4,1928.3,8.3z"/>
		</g>
		<g>
			<path id="DejaVuSans-30_00000158740521524900855730000014419902733391365308_" d="M2004.5,66.4c-5.1,0-8.9-2.5-11.5-7.5
				c-2.6-5-3.8-12.5-3.8-22.5c0-10,1.3-17.5,3.8-22.5c2.6-5,6.4-7.5,11.5-7.5c5.1,0,8.9,2.5,11.5,7.5c2.6,5,3.8,12.5,3.8,22.5
				c0,10-1.3,17.5-3.8,22.5C2013.4,63.9,2009.6,66.4,2004.5,66.4z M2004.5,74.2c8.2,0,14.4-3.2,18.7-9.7c4.3-6.5,6.5-15.8,6.5-28.1
				c0-12.3-2.2-21.6-6.5-28.1c-4.3-6.5-10.6-9.7-18.7-9.7c-8.2,0-14.4,3.2-18.7,9.7c-4.3,6.5-6.5,15.8-6.5,28.1
				c0,12.3,2.2,21.7,6.5,28.1C1990.1,71,1996.3,74.2,2004.5,74.2z"/>
		</g>
		<g>
			<path id="DejaVuSans-31" d="M2048.7,8.3h16.1v55.6l-17.5-3.5v9l17.4,3.5h9.9V8.3h16.1V0h-42V8.3z"/>
		</g>
		<g>
			<path id="DejaVuSans-35_00000150782110726091958680000012681067577530544825_" d="M2110.7,72.9h38.7v-8.3h-29.7V46.7
				c1.4,0.5,2.9,0.9,4.3,1.1c1.4,0.2,2.9,0.4,4.3,0.4c8.1,0,14.6-2.2,19.3-6.7c4.8-4.5,7.1-10.5,7.1-18.1c0-7.8-2.4-13.9-7.3-18.3
				c-4.9-4.3-11.8-6.5-20.7-6.5c-3.1,0-6.2,0.3-9.4,0.8c-3.2,0.5-6.4,1.3-9.8,2.3v9.9c2.9-1.6,6-2.8,9.1-3.6s6.4-1.2,9.9-1.2
				c5.6,0,10.1,1.5,13.4,4.4c3.3,3,4.9,7,4.9,12.1c0,5.1-1.6,9.1-4.9,12c-3.3,3-7.7,4.5-13.4,4.5c-2.6,0-5.3-0.3-7.9-0.9
				c-2.6-0.6-5.3-1.5-8-2.7V72.9z"/>
		</g>
	</g>
</g>
</svg>
