<?xml version="1.0" encoding="utf-8"?>
<!-- Generator: Adobe Illustrator 27.9.0, SVG Export Plug-In . SVG Version: 6.00 Build 0)  -->
<svg version="1.1" id="Layer_1" xmlns="http://www.w3.org/2000/svg" xmlns:xlink="http://www.w3.org/1999/xlink" x="0px" y="0px"
	 viewBox="0 0 757.2 360" style="enable-background:new 0 0 757.2 360;" xml:space="preserve">
<style type="text/css">
	.st0{fill:#FFFFFF;}
	.st1{stroke:#000000;stroke-width:0.8;stroke-linejoin:round;}
	
		.st2{clip-path:url(#SVGID_00000035493405335458270050000013885432513354389170_);fill:none;stroke:#1F77B4;stroke-width:1.5;stroke-linecap:square;stroke-linejoin:round;}
	
		.st3{clip-path:url(#SVGID_00000001628101992719227880000013030811378095421337_);fill:none;stroke:#FF7F0E;stroke-width:1.5;stroke-linecap:square;stroke-linejoin:round;}
	
		.st4{clip-path:url(#SVGID_00000062183216455981009820000004162299020593275283_);fill:none;stroke:#2CA02C;stroke-width:1.5;stroke-linecap:square;stroke-linejoin:round;}
	
		.st5{clip-path:url(#SVGID_00000069361268851539875240000001771728051851431351_);fill:none;stroke:#D62728;stroke-width:1.5;stroke-linecap:square;stroke-linejoin:round;}
	
		.st6{clip-path:url(#SVGID_00000121247773298037785700000007918263422342092183_);fill:none;stroke:#9467BD;stroke-width:1.5;stroke-linecap:square;stroke-linejoin:round;}
	
		.st7{clip-path:url(#SVGID_00000147207440447926816120000016799875702156573585_);fill:none;stroke:#8C564B;stroke-width:1.5;stroke-linecap:square;stroke-linejoin:round;}
	.st8{fill:none;stroke:#000000;stroke-width:0.8;stroke-linecap:square;}
	.st9{fill:none;}
	.st10{fill:#21B24B;}
	.st11{font-family:'MyriadPro-Regular';}
	.st12{font-size:12px;}
	.st13{fill:#4764AF;}
	.st14{fill:#57449B;}
	.st15{fill:#B31F24;}
	.st16{fill:#DE7726;}
</style>
<g id="figure_1">
	<g id="patch_1">
		<path class="st0" d="M0.4,361.6h720V1.6H0.4V361.6z"/>
	</g>
	<g id="axes_1">
		<g id="patch_2">
			<path class="st0" d="M45.1,319.7h651.8V47H45.1V319.7z"/>
		</g>
		<g id="PolyCollection_1">
		</g>
		<g id="PolyCollection_2">
		</g>
		<g id="PolyCollection_3">
		</g>
		<g id="PolyCollection_4">
		</g>
		<g id="PolyCollection_5">
		</g>
		<g id="PolyCollection_6">
		</g>
		<g id="matplotlib.axis_1">
			<g id="xtick_1">
				<g id="line2d_1">
					<g>
						<g>
							<path id="m7f69441156" class="st1" d="M83.4,319.7v3.5"/>
						</g>
					</g>
				</g>
				<g id="text_1">
					<g transform="translate(70.273824 332.638438) scale(0.1 -0.1)">
						<g>
							<path id="DejaVuSans-32" d="M23.2-8.1h34.4v-8.3H11.3v8.3C15.1-4.2,20.2,1,26.6,7.5c6.5,6.5,10.5,10.7,12.2,12.6
								c3.2,3.5,5.4,6.5,6.6,9c1.3,2.5,1.9,4.9,1.9,7.2c0,3.9-1.4,7-4.1,9.5c-2.7,2.4-6.3,3.7-10.6,3.7c-3.1,0-6.4-0.5-9.8-1.6
								c-3.4-1.1-7.1-2.7-11-4.9v10c4,1.6,7.7,2.8,11.1,3.6c3.5,0.8,6.6,1.2,9.5,1.2c7.6,0,13.6-1.9,18.1-5.7
								c4.5-3.8,6.7-8.8,6.7-15.1c0-3-0.6-5.8-1.7-8.5c-1.1-2.7-3.2-5.8-6.1-9.5c-0.8-0.9-3.4-3.7-7.8-8.2C37.3,6.3,31.1,0,23.2-8.1
								z"/>
						</g>
						<g>
							<path id="DejaVuSans-30" d="M99.4,50c-5.1,0-8.9-2.5-11.5-7.5c-2.6-5-3.8-12.5-3.8-22.5c0-10,1.3-17.5,3.8-22.5
								c2.6-5,6.4-7.5,11.5-7.5c5.1,0,8.9,2.5,11.5,7.5c2.6,5,3.8,12.5,3.8,22.5c0,10-1.3,17.5-3.8,22.5
								C108.4,47.5,104.5,50,99.4,50z M99.4,57.8c8.2,0,14.4-3.2,18.7-9.7c4.3-6.5,6.5-15.8,6.5-28.1c0-12.3-2.2-21.6-6.5-28.1
								c-4.3-6.5-10.6-9.7-18.7-9.7c-8.2,0-14.4,3.2-18.7,9.7C76.4-1.7,74.2,7.7,74.2,20c0,12.3,2.2,21.7,6.5,28.1
								C85,54.6,91.2,57.8,99.4,57.8z"/>
						</g>
						<g>
							<path id="DejaVuSans-30_00000064328612382778225450000011860637838834585255_" d="M163,50c-5.1,0-8.9-2.5-11.5-7.5
								c-2.6-5-3.8-12.5-3.8-22.5c0-10,1.3-17.5,3.8-22.5c2.6-5,6.4-7.5,11.5-7.5c5.1,0,8.9,2.5,11.5,7.5c2.6,5,3.8,12.5,3.8,22.5
								c0,10-1.3,17.5-3.8,22.5C172,47.5,168.1,50,163,50z M163,57.8c8.2,0,14.4-3.2,18.7-9.7c4.3-6.5,6.5-15.8,6.5-28.1
								c0-12.3-2.2-21.6-6.5-28.1c-4.3-6.5-10.6-9.7-18.7-9.7c-8.2,0-14.4,3.2-18.7,9.7c-4.3,6.5-6.5,15.8-6.5,28.1
								c0,12.3,2.2,21.7,6.5,28.1C148.6,54.6,154.9,57.8,163,57.8z"/>
						</g>
						<g>
							<path id="DejaVuSans-30_00000126292886115394237880000006395317915290379184_" d="M226.7,50c-5.1,0-8.9-2.5-11.5-7.5
								c-2.6-5-3.8-12.5-3.8-22.5c0-10,1.3-17.5,3.8-22.5c2.6-5,6.4-7.5,11.5-7.5c5.1,0,8.9,2.5,11.5,7.5c2.6,5,3.8,12.5,3.8,22.5
								c0,10-1.3,17.5-3.8,22.5C235.6,47.5,231.8,50,226.7,50z M226.7,57.8c8.2,0,14.4-3.2,18.7-9.7c4.3-6.5,6.5-15.8,6.5-28.1
								c0-12.3-2.2-21.6-6.5-28.1c-4.3-6.5-10.6-9.7-18.7-9.7c-8.2,0-14.4,3.2-18.7,9.7c-4.3,6.5-6.5,15.8-6.5,28.1
								c0,12.3,2.2,21.7,6.5,28.1C212.2,54.6,218.5,57.8,226.7,57.8z"/>
						</g>
					</g>
				</g>
			</g>
			<g id="xtick_2">
				<g id="line2d_2">
					<g>
						<g>
							<path id="m7f69441156_00000109717650884085547250000018134003352633529227_" class="st1" d="M160.1,319.7v3.5"/>
						</g>
					</g>
				</g>
				<g id="text_2">
					<g transform="translate(146.951471 332.638438) scale(0.1 -0.1)">
						<g>
							<path id="DejaVuSans-32_00000153699572399298709530000003385782585124578212_" d="M23.2-8.1h34.4v-8.3H11.3v8.3
								C15.1-4.2,20.2,1,26.6,7.5c6.5,6.5,10.5,10.7,12.2,12.6c3.2,3.5,5.4,6.5,6.6,9c1.3,2.5,1.9,4.9,1.9,7.2c0,3.9-1.4,7-4.1,9.5
								c-2.7,2.4-6.3,3.7-10.6,3.7c-3.1,0-6.4-0.5-9.8-1.6c-3.4-1.1-7.1-2.7-11-4.9v10c4,1.6,7.7,2.8,11.1,3.6
								c3.5,0.8,6.6,1.2,9.5,1.2c7.6,0,13.6-1.9,18.1-5.7c4.5-3.8,6.7-8.8,6.7-15.1c0-3-0.6-5.8-1.7-8.5c-1.1-2.7-3.2-5.8-6.1-9.5
								c-0.8-0.9-3.4-3.7-7.8-8.2C37.3,6.3,31.1,0,23.2-8.1z"/>
						</g>
						<g>
							<path id="DejaVuSans-30_00000134222199780808279430000007416875519602428603_" d="M99.4,50c-5.1,0-8.9-2.5-11.5-7.5
								c-2.6-5-3.8-12.5-3.8-22.5c0-10,1.3-17.5,3.8-22.5c2.6-5,6.4-7.5,11.5-7.5c5.1,0,8.9,2.5,11.5,7.5c2.6,5,3.8,12.5,3.8,22.5
								c0,10-1.3,17.5-3.8,22.5C108.4,47.5,104.5,50,99.4,50z M99.4,57.8c8.2,0,14.4-3.2,18.7-9.7c4.3-6.5,6.5-15.8,6.5-28.1
								c0-12.3-2.2-21.6-6.5-28.1c-4.3-6.5-10.6-9.7-18.7-9.7c-8.2,0-14.4,3.2-18.7,9.7C76.4-1.7,74.2,7.7,74.2,20
								c0,12.3,2.2,21.7,6.5,28.1C85,54.6,91.2,57.8,99.4,57.8z"/>
						</g>
						<g>
							<path id="DejaVuSans-30_00000105387630639585665540000008882472326388955564_" d="M163,50c-5.1,0-8.9-2.5-11.5-7.5
								c-2.6-5-3.8-12.5-3.8-22.5c0-10,1.3-17.5,3.8-22.5c2.6-5,6.4-7.5,11.5-7.5c5.1,0,8.9,2.5,11.5,7.5c2.6,5,3.8,12.5,3.8,22.5
								c0,10-1.3,17.5-3.8,22.5C172,47.5,168.1,50,163,50z M163,57.8c8.2,0,14.4-3.2,18.7-9.7c4.3-6.5,6.5-15.8,6.5-28.1
								c0-12.3-2.2-21.6-6.5-28.1c-4.3-6.5-10.6-9.7-18.7-9.7c-8.2,0-14.4,3.2-18.7,9.7c-4.3,6.5-6.5,15.8-6.5,28.1
								c0,12.3,2.2,21.7,6.5,28.1C148.6,54.6,154.9,57.8,163,57.8z"/>
						</g>
						<g>
							<path id="DejaVuSans-32_00000147221270449349575460000001356456805814994847_" d="M214.1-8.1h34.4v-8.3h-46.3v8.3
								c3.7,3.9,8.8,9.1,15.3,15.6C224,14,228,18.2,229.7,20.1c3.2,3.5,5.4,6.5,6.6,9c1.3,2.5,1.9,4.9,1.9,7.2c0,3.9-1.4,7-4.1,9.5
								c-2.7,2.4-6.3,3.7-10.6,3.7c-3.1,0-6.4-0.5-9.8-1.6c-3.4-1.1-7.1-2.7-11-4.9v10c4,1.6,7.7,2.8,11.1,3.6
								c3.5,0.8,6.6,1.2,9.5,1.2c7.6,0,13.6-1.9,18.1-5.7c4.5-3.8,6.7-8.8,6.7-15.1c0-3-0.6-5.8-1.7-8.5c-1.1-2.7-3.2-5.8-6.1-9.5
								c-0.8-0.9-3.4-3.7-7.8-8.2C228.2,6.3,222,0,214.1-8.1z"/>
						</g>
					</g>
				</g>
			</g>
			<g id="xtick_3">
				<g id="line2d_3">
					<g>
						<g>
							<path id="m7f69441156_00000057106363244563087920000000530259707537382062_" class="st1" d="M236.8,319.7v3.5"/>
						</g>
					</g>
				</g>
				<g id="text_3">
					<g transform="translate(223.629118 332.638438) scale(0.1 -0.1)">
						<g>
							<path id="DejaVuSans-32_00000165934724050423037650000017283310545008145792_" d="M23.2-8.1h34.4v-8.3H11.3v8.3
								C15.1-4.2,20.2,1,26.6,7.5c6.5,6.5,10.5,10.7,12.2,12.6c3.2,3.5,5.4,6.5,6.6,9c1.3,2.5,1.9,4.9,1.9,7.2c0,3.9-1.4,7-4.1,9.5
								c-2.7,2.4-6.3,3.7-10.6,3.7c-3.1,0-6.4-0.5-9.8-1.6c-3.4-1.1-7.1-2.7-11-4.9v10c4,1.6,7.7,2.8,11.1,3.6
								c3.5,0.8,6.6,1.2,9.5,1.2c7.6,0,13.6-1.9,18.1-5.7c4.5-3.8,6.7-8.8,6.7-15.1c0-3-0.6-5.8-1.7-8.5c-1.1-2.7-3.2-5.8-6.1-9.5
								c-0.8-0.9-3.4-3.7-7.8-8.2C37.3,6.3,31.1,0,23.2-8.1z"/>
						</g>
						<g>
							<path id="DejaVuSans-30_00000092449913452073762430000017560462283184695487_" d="M99.4,50c-5.1,0-8.9-2.5-11.5-7.5
								c-2.6-5-3.8-12.5-3.8-22.5c0-10,1.3-17.5,3.8-22.5c2.6-5,6.4-7.5,11.5-7.5c5.1,0,8.9,2.5,11.5,7.5c2.6,5,3.8,12.5,3.8,22.5
								c0,10-1.3,17.5-3.8,22.5C108.4,47.5,104.5,50,99.4,50z M99.4,57.8c8.2,0,14.4-3.2,18.7-9.7c4.3-6.5,6.5-15.8,6.5-28.1
								c0-12.3-2.2-21.6-6.5-28.1c-4.3-6.5-10.6-9.7-18.7-9.7c-8.2,0-14.4,3.2-18.7,9.7C76.4-1.7,74.2,7.7,74.2,20
								c0,12.3,2.2,21.7,6.5,28.1C85,54.6,91.2,57.8,99.4,57.8z"/>
						</g>
						<g>
							<path id="DejaVuSans-30_00000138570832380949521720000011718429489257427618_" d="M163,50c-5.1,0-8.9-2.5-11.5-7.5
								c-2.6-5-3.8-12.5-3.8-22.5c0-10,1.3-17.5,3.8-22.5c2.6-5,6.4-7.5,11.5-7.5c5.1,0,8.9,2.5,11.5,7.5c2.6,5,3.8,12.5,3.8,22.5
								c0,10-1.3,17.5-3.8,22.5C172,47.5,168.1,50,163,50z M163,57.8c8.2,0,14.4-3.2,18.7-9.7c4.3-6.5,6.5-15.8,6.5-28.1
								c0-12.3-2.2-21.6-6.5-28.1c-4.3-6.5-10.6-9.7-18.7-9.7c-8.2,0-14.4,3.2-18.7,9.7c-4.3,6.5-6.5,15.8-6.5,28.1
								c0,12.3,2.2,21.7,6.5,28.1C148.6,54.6,154.9,57.8,163,57.8z"/>
						</g>
						<g>
							<path id="DejaVuSans-34" d="M232.7,47.9L207.8,9h24.9V47.9z M230.1,56.5h12.4V9h10.4V0.8h-10.4v-17.2h-9.8V0.8h-32.9v9.5
								L230.1,56.5z"/>
						</g>
					</g>
				</g>
			</g>
			<g id="xtick_4">
				<g id="line2d_4">
					<g>
						<g>
							<path id="m7f69441156_00000018920776390113309500000000314009455340595383_" class="st1" d="M313.4,319.7v3.5"/>
						</g>
					</g>
				</g>
				<g id="text_4">
					<g transform="translate(300.306765 332.638438) scale(0.1 -0.1)">
						<g>
							<path id="DejaVuSans-32_00000050642161471622617880000013290029682660260012_" d="M23.2-8.1h34.4v-8.3H11.3v8.3
								C15.1-4.2,20.2,1,26.6,7.5c6.5,6.5,10.5,10.7,12.2,12.6c3.2,3.5,5.4,6.5,6.6,9c1.3,2.5,1.9,4.9,1.9,7.2c0,3.9-1.4,7-4.1,9.5
								c-2.7,2.4-6.3,3.7-10.6,3.7c-3.1,0-6.4-0.5-9.8-1.6c-3.4-1.1-7.1-2.7-11-4.9v10c4,1.6,7.7,2.8,11.1,3.6
								c3.5,0.8,6.6,1.2,9.5,1.2c7.6,0,13.6-1.9,18.1-5.7c4.5-3.8,6.7-8.8,6.7-15.1c0-3-0.6-5.8-1.7-8.5c-1.1-2.7-3.2-5.8-6.1-9.5
								c-0.8-0.9-3.4-3.7-7.8-8.2C37.3,6.3,31.1,0,23.2-8.1z"/>
						</g>
						<g>
							<path id="DejaVuSans-30_00000087380966297116530750000009382159656740646071_" d="M99.4,50c-5.1,0-8.9-2.5-11.5-7.5
								c-2.6-5-3.8-12.5-3.8-22.5c0-10,1.3-17.5,3.8-22.5c2.6-5,6.4-7.5,11.5-7.5c5.1,0,8.9,2.5,11.5,7.5c2.6,5,3.8,12.5,3.8,22.5
								c0,10-1.3,17.5-3.8,22.5C108.4,47.5,104.5,50,99.4,50z M99.4,57.8c8.2,0,14.4-3.2,18.7-9.7c4.3-6.5,6.5-15.8,6.5-28.1
								c0-12.3-2.2-21.6-6.5-28.1c-4.3-6.5-10.6-9.7-18.7-9.7c-8.2,0-14.4,3.2-18.7,9.7C76.4-1.7,74.2,7.7,74.2,20
								c0,12.3,2.2,21.7,6.5,28.1C85,54.6,91.2,57.8,99.4,57.8z"/>
						</g>
						<g>
							<path id="DejaVuSans-30_00000034812597957195922880000003033362944003858308_" d="M163,50c-5.1,0-8.9-2.5-11.5-7.5
								c-2.6-5-3.8-12.5-3.8-22.5c0-10,1.3-17.5,3.8-22.5c2.6-5,6.4-7.5,11.5-7.5c5.1,0,8.9,2.5,11.5,7.5c2.6,5,3.8,12.5,3.8,22.5
								c0,10-1.3,17.5-3.8,22.5C172,47.5,168.1,50,163,50z M163,57.8c8.2,0,14.4-3.2,18.7-9.7c4.3-6.5,6.5-15.8,6.5-28.1
								c0-12.3-2.2-21.6-6.5-28.1c-4.3-6.5-10.6-9.7-18.7-9.7c-8.2,0-14.4,3.2-18.7,9.7c-4.3,6.5-6.5,15.8-6.5,28.1
								c0,12.3,2.2,21.7,6.5,28.1C148.6,54.6,154.9,57.8,163,57.8z"/>
						</g>
						<g>
							<path id="DejaVuSans-36" d="M227.9,24c-4.4,0-7.9-1.5-10.5-4.5c-2.6-3-3.9-7.2-3.9-12.4c0-5.2,1.3-9.4,3.9-12.4
								c2.6-3,6.1-4.6,10.5-4.6c4.4,0,7.9,1.5,10.5,4.6c2.6,3.1,3.9,7.2,3.9,12.4c0,5.3-1.3,9.4-3.9,12.4
								C235.8,22.4,232.3,24,227.9,24z M247.5,54.9v-9c-2.5,1.2-5,2.1-7.5,2.7c-2.5,0.6-5,0.9-7.5,0.9c-6.5,0-11.5-2.2-14.9-6.6
								c-3.4-4.4-5.4-11-5.9-19.9c1.9,2.8,4.3,5,7.2,6.5c2.9,1.5,6.1,2.3,9.6,2.3c7.3,0,13.1-2.2,17.4-6.7
								c4.2-4.4,6.4-10.5,6.4-18.1c0-7.5-2.2-13.5-6.6-18c-4.4-4.5-10.3-6.8-17.7-6.8c-8.4,0-14.9,3.2-19.3,9.7
								c-4.5,6.5-6.7,15.8-6.7,28.1c0,11.5,2.7,20.7,8.2,27.6s12.8,10.3,22,10.3c2.5,0,5-0.2,7.5-0.7
								C242.1,56.6,244.7,55.8,247.5,54.9z"/>
						</g>
					</g>
				</g>
			</g>
			<g id="xtick_5">
				<g id="line2d_5">
					<g>
						<g>
							<path id="m7f69441156_00000174591997830203957730000002095911608443239835_" class="st1" d="M390.1,319.7v3.5"/>
						</g>
					</g>
				</g>
				<g id="text_5">
					<g transform="translate(376.984412 332.638438) scale(0.1 -0.1)">
						<g>
							<path id="DejaVuSans-32_00000115508012980468469760000010964954368010769560_" d="M23.2-8.1h34.4v-8.3H11.3v8.3
								C15.1-4.2,20.2,1,26.6,7.5c6.5,6.5,10.5,10.7,12.2,12.6c3.2,3.5,5.4,6.5,6.6,9c1.3,2.5,1.9,4.9,1.9,7.2c0,3.9-1.4,7-4.1,9.5
								c-2.7,2.4-6.3,3.7-10.6,3.7c-3.1,0-6.4-0.5-9.8-1.6c-3.4-1.1-7.1-2.7-11-4.9v10c4,1.6,7.7,2.8,11.1,3.6
								c3.5,0.8,6.6,1.2,9.5,1.2c7.6,0,13.6-1.9,18.1-5.7c4.5-3.8,6.7-8.8,6.7-15.1c0-3-0.6-5.8-1.7-8.5c-1.1-2.7-3.2-5.8-6.1-9.5
								c-0.8-0.9-3.4-3.7-7.8-8.2C37.3,6.3,31.1,0,23.2-8.1z"/>
						</g>
						<g>
							<path id="DejaVuSans-30_00000078043470980166974480000016929704324320618388_" d="M99.4,50c-5.1,0-8.9-2.5-11.5-7.5
								c-2.6-5-3.8-12.5-3.8-22.5c0-10,1.3-17.5,3.8-22.5c2.6-5,6.4-7.5,11.5-7.5c5.1,0,8.9,2.5,11.5,7.5c2.6,5,3.8,12.5,3.8,22.5
								c0,10-1.3,17.5-3.8,22.5C108.4,47.5,104.5,50,99.4,50z M99.4,57.8c8.2,0,14.4-3.2,18.7-9.7c4.3-6.5,6.5-15.8,6.5-28.1
								c0-12.3-2.2-21.6-6.5-28.1c-4.3-6.5-10.6-9.7-18.7-9.7c-8.2,0-14.4,3.2-18.7,9.7C76.4-1.7,74.2,7.7,74.2,20
								c0,12.3,2.2,21.7,6.5,28.1C85,54.6,91.2,57.8,99.4,57.8z"/>
						</g>
						<g>
							<path id="DejaVuSans-30_00000152243810359739088930000001431245079953615002_" d="M163,50c-5.1,0-8.9-2.5-11.5-7.5
								c-2.6-5-3.8-12.5-3.8-22.5c0-10,1.3-17.5,3.8-22.5c2.6-5,6.4-7.5,11.5-7.5c5.1,0,8.9,2.5,11.5,7.5c2.6,5,3.8,12.5,3.8,22.5
								c0,10-1.3,17.5-3.8,22.5C172,47.5,168.1,50,163,50z M163,57.8c8.2,0,14.4-3.2,18.7-9.7c4.3-6.5,6.5-15.8,6.5-28.1
								c0-12.3-2.2-21.6-6.5-28.1c-4.3-6.5-10.6-9.7-18.7-9.7c-8.2,0-14.4,3.2-18.7,9.7c-4.3,6.5-6.5,15.8-6.5,28.1
								c0,12.3,2.2,21.7,6.5,28.1C148.6,54.6,154.9,57.8,163,57.8z"/>
						</g>
						<g>
							<path id="DejaVuSans-38" d="M226.7,18.2c-4.7,0-8.4-1.3-11.1-3.8c-2.7-2.5-4-6-4-10.3c0-4.4,1.3-7.8,4-10.4
								c2.7-2.5,6.4-3.8,11.1-3.8s8.4,1.3,11.1,3.8c2.7,2.5,4.1,6,4.1,10.3c0,4.4-1.3,7.8-4,10.3C235.1,17,231.4,18.2,226.7,18.2z
								 M216.8,22.4c-4.2,1-7.5,3-9.9,5.9c-2.4,2.9-3.5,6.4-3.5,10.6c0,5.8,2.1,10.4,6.2,13.8c4.2,3.4,9.8,5.1,17.1,5.1
								c7.3,0,13-1.7,17.1-5.1s6.2-8,6.2-13.8c0-4.2-1.2-7.7-3.5-10.6c-2.4-2.9-5.6-4.9-9.8-5.9c4.8-1.1,8.4-3.3,11.1-6.5
								c2.7-3.2,4-7.2,4-11.8c0-7.1-2.2-12.5-6.5-16.3c-4.3-3.8-10.5-5.7-18.5-5.7c-8,0-14.2,1.9-18.5,5.7
								c-4.3,3.8-6.5,9.2-6.5,16.3c0,4.6,1.3,8.6,4,11.8C208.3,19.1,212,21.3,216.8,22.4z M213.2,38c0-3.8,1.2-6.7,3.5-8.8
								c2.4-2.1,5.7-3.2,9.9-3.2c4.2,0,7.6,1.1,9.9,3.2c2.4,2.1,3.6,5.1,3.6,8.8c0,3.8-1.2,6.7-3.6,8.8c-2.4,2.1-5.7,3.2-9.9,3.2
								c-4.3,0-7.6-1.1-9.9-3.2C214.4,44.7,213.2,41.8,213.2,38z"/>
						</g>
					</g>
				</g>
			</g>
			<g id="xtick_6">
				<g id="line2d_6">
					<g>
						<g>
							<path id="m7f69441156_00000129171443046320220390000011755741905787264656_" class="st1" d="M466.8,319.7v3.5"/>
						</g>
					</g>
				</g>
				<g id="text_6">
					<g transform="translate(453.662059 332.638438) scale(0.1 -0.1)">
						<g>
							<path id="DejaVuSans-32_00000108997340400357452560000006822447614261566336_" d="M23.2-8.1h34.4v-8.3H11.3v8.3
								C15.1-4.2,20.2,1,26.6,7.5c6.5,6.5,10.5,10.7,12.2,12.6c3.2,3.5,5.4,6.5,6.6,9c1.3,2.5,1.9,4.9,1.9,7.2c0,3.9-1.4,7-4.1,9.5
								c-2.7,2.4-6.3,3.7-10.6,3.7c-3.1,0-6.4-0.5-9.8-1.6c-3.4-1.1-7.1-2.7-11-4.9v10c4,1.6,7.7,2.8,11.1,3.6
								c3.5,0.8,6.6,1.2,9.5,1.2c7.6,0,13.6-1.9,18.1-5.7c4.5-3.8,6.7-8.8,6.7-15.1c0-3-0.6-5.8-1.7-8.5c-1.1-2.7-3.2-5.8-6.1-9.5
								c-0.8-0.9-3.4-3.7-7.8-8.2C37.3,6.3,31.1,0,23.2-8.1z"/>
						</g>
						<g>
							<path id="DejaVuSans-30_00000091010325490176884910000009048372335935119015_" d="M99.4,50c-5.1,0-8.9-2.5-11.5-7.5
								c-2.6-5-3.8-12.5-3.8-22.5c0-10,1.3-17.5,3.8-22.5c2.6-5,6.4-7.5,11.5-7.5c5.1,0,8.9,2.5,11.5,7.5c2.6,5,3.8,12.5,3.8,22.5
								c0,10-1.3,17.5-3.8,22.5C108.4,47.5,104.5,50,99.4,50z M99.4,57.8c8.2,0,14.4-3.2,18.7-9.7c4.3-6.5,6.5-15.8,6.5-28.1
								c0-12.3-2.2-21.6-6.5-28.1c-4.3-6.5-10.6-9.7-18.7-9.7c-8.2,0-14.4,3.2-18.7,9.7C76.4-1.7,74.2,7.7,74.2,20
								c0,12.3,2.2,21.7,6.5,28.1C85,54.6,91.2,57.8,99.4,57.8z"/>
						</g>
						<g>
							<path id="DejaVuSans-31" d="M143.7-8.1h16.1v55.6L142.2,44v9l17.4,3.5h9.9V-8.1h16.1v-8.3h-42V-8.1z"/>
						</g>
						<g>
							<path id="DejaVuSans-30_00000013176798470546667640000011398687469179140483_" d="M226.7,50c-5.1,0-8.9-2.5-11.5-7.5
								c-2.6-5-3.8-12.5-3.8-22.5c0-10,1.3-17.5,3.8-22.5c2.6-5,6.4-7.5,11.5-7.5c5.1,0,8.9,2.5,11.5,7.5c2.6,5,3.8,12.5,3.8,22.5
								c0,10-1.3,17.5-3.8,22.5C235.6,47.5,231.8,50,226.7,50z M226.7,57.8c8.2,0,14.4-3.2,18.7-9.7c4.3-6.5,6.5-15.8,6.5-28.1
								c0-12.3-2.2-21.6-6.5-28.1c-4.3-6.5-10.6-9.7-18.7-9.7c-8.2,0-14.4,3.2-18.7,9.7c-4.3,6.5-6.5,15.8-6.5,28.1
								c0,12.3,2.2,21.7,6.5,28.1C212.2,54.6,218.5,57.8,226.7,57.8z"/>
						</g>
					</g>
				</g>
			</g>
			<g id="xtick_7">
				<g id="line2d_7">
					<g>
						<g>
							<path id="m7f69441156_00000128472124925664772060000018432377266537071768_" class="st1" d="M543.5,319.7v3.5"/>
						</g>
					</g>
				</g>
				<g id="text_7">
					<g transform="translate(530.339706 332.638438) scale(0.1 -0.1)">
						<g>
							<path id="DejaVuSans-32_00000151510073057515333010000008119609505192149938_" d="M23.2-8.1h34.4v-8.3H11.3v8.3
								C15.1-4.2,20.2,1,26.6,7.5c6.5,6.5,10.5,10.7,12.2,12.6c3.2,3.5,5.4,6.5,6.6,9c1.3,2.5,1.9,4.9,1.9,7.2c0,3.9-1.4,7-4.1,9.5
								c-2.7,2.4-6.3,3.7-10.6,3.7c-3.1,0-6.4-0.5-9.8-1.6c-3.4-1.1-7.1-2.7-11-4.9v10c4,1.6,7.7,2.8,11.1,3.6
								c3.5,0.8,6.6,1.2,9.5,1.2c7.6,0,13.6-1.9,18.1-5.7c4.5-3.8,6.7-8.8,6.7-15.1c0-3-0.6-5.8-1.7-8.5c-1.1-2.7-3.2-5.8-6.1-9.5
								c-0.8-0.9-3.4-3.7-7.8-8.2C37.3,6.3,31.1,0,23.2-8.1z"/>
						</g>
						<g>
							<path id="DejaVuSans-30_00000114783355113850954890000004046713045917733558_" d="M99.4,50c-5.1,0-8.9-2.5-11.5-7.5
								c-2.6-5-3.8-12.5-3.8-22.5c0-10,1.3-17.5,3.8-22.5c2.6-5,6.4-7.5,11.5-7.5c5.1,0,8.9,2.5,11.5,7.5c2.6,5,3.8,12.5,3.8,22.5
								c0,10-1.3,17.5-3.8,22.5C108.4,47.5,104.5,50,99.4,50z M99.4,57.8c8.2,0,14.4-3.2,18.7-9.7c4.3-6.5,6.5-15.8,6.5-28.1
								c0-12.3-2.2-21.6-6.5-28.1c-4.3-6.5-10.6-9.7-18.7-9.7c-8.2,0-14.4,3.2-18.7,9.7C76.4-1.7,74.2,7.7,74.2,20
								c0,12.3,2.2,21.7,6.5,28.1C85,54.6,91.2,57.8,99.4,57.8z"/>
						</g>
						<g>
							<path id="DejaVuSans-31_00000088133013429233215020000000745368201993041562_" d="M143.7-8.1h16.1v55.6L142.2,44v9l17.4,3.5
								h9.9V-8.1h16.1v-8.3h-42V-8.1z"/>
						</g>
						<g>
							<path id="DejaVuSans-32_00000080177362707554389480000007486196161450427270_" d="M214.1-8.1h34.4v-8.3h-46.3v8.3
								c3.7,3.9,8.8,9.1,15.3,15.6C224,14,228,18.2,229.7,20.1c3.2,3.5,5.4,6.5,6.6,9c1.3,2.5,1.9,4.9,1.9,7.2c0,3.9-1.4,7-4.1,9.5
								c-2.7,2.4-6.3,3.7-10.6,3.7c-3.1,0-6.4-0.5-9.8-1.6c-3.4-1.1-7.1-2.7-11-4.9v10c4,1.6,7.7,2.8,11.1,3.6
								c3.5,0.8,6.6,1.2,9.5,1.2c7.6,0,13.6-1.9,18.1-5.7c4.5-3.8,6.7-8.8,6.7-15.1c0-3-0.6-5.8-1.7-8.5c-1.1-2.7-3.2-5.8-6.1-9.5
								c-0.8-0.9-3.4-3.7-7.8-8.2C228.2,6.3,222,0,214.1-8.1z"/>
						</g>
					</g>
				</g>
			</g>
			<g id="xtick_8">
				<g id="line2d_8">
					<g>
						<g>
							<path id="m7f69441156_00000153704877968445688060000007523898548923787930_" class="st1" d="M620.1,319.7v3.5"/>
						</g>
					</g>
				</g>
				<g id="text_8">
					<g transform="translate(607.017353 332.638438) scale(0.1 -0.1)">
						<g>
							<path id="DejaVuSans-32_00000181808709123446444000000008380270109277745801_" d="M23.2-8.1h34.4v-8.3H11.3v8.3
								C15.1-4.2,20.2,1,26.6,7.5c6.5,6.5,10.5,10.7,12.2,12.6c3.2,3.5,5.4,6.5,6.6,9c1.3,2.5,1.9,4.9,1.9,7.2c0,3.9-1.4,7-4.1,9.5
								c-2.7,2.4-6.3,3.7-10.6,3.7c-3.1,0-6.4-0.5-9.8-1.6c-3.4-1.1-7.1-2.7-11-4.9v10c4,1.6,7.7,2.8,11.1,3.6
								c3.5,0.8,6.6,1.2,9.5,1.2c7.6,0,13.6-1.9,18.1-5.7c4.5-3.8,6.7-8.8,6.7-15.1c0-3-0.6-5.8-1.7-8.5c-1.1-2.7-3.2-5.8-6.1-9.5
								c-0.8-0.9-3.4-3.7-7.8-8.2C37.3,6.3,31.1,0,23.2-8.1z"/>
						</g>
						<g>
							<path id="DejaVuSans-30_00000003098357727161562740000001596908050612104629_" d="M99.4,50c-5.1,0-8.9-2.5-11.5-7.5
								c-2.6-5-3.8-12.5-3.8-22.5c0-10,1.3-17.5,3.8-22.5c2.6-5,6.4-7.5,11.5-7.5c5.1,0,8.9,2.5,11.5,7.5c2.6,5,3.8,12.5,3.8,22.5
								c0,10-1.3,17.5-3.8,22.5C108.4,47.5,104.5,50,99.4,50z M99.4,57.8c8.2,0,14.4-3.2,18.7-9.7c4.3-6.5,6.5-15.8,6.5-28.1
								c0-12.3-2.2-21.6-6.5-28.1c-4.3-6.5-10.6-9.7-18.7-9.7c-8.2,0-14.4,3.2-18.7,9.7C76.4-1.7,74.2,7.7,74.2,20
								c0,12.3,2.2,21.7,6.5,28.1C85,54.6,91.2,57.8,99.4,57.8z"/>
						</g>
						<g>
							<path id="DejaVuSans-31_00000109006855080148033290000008555216412394090129_" d="M143.7-8.1h16.1v55.6L142.2,44v9l17.4,3.5
								h9.9V-8.1h16.1v-8.3h-42V-8.1z"/>
						</g>
						<g>
							<path id="DejaVuSans-34_00000137109854382510062920000009044731745627531140_" d="M232.7,47.9L207.8,9h24.9V47.9z
								 M230.1,56.5h12.4V9h10.4V0.8h-10.4v-17.2h-9.8V0.8h-32.9v9.5L230.1,56.5z"/>
						</g>
					</g>
				</g>
			</g>
			<g id="xtick_9">
				<g id="line2d_9">
					<g>
						<g>
							<path id="m7f69441156_00000062871069088959807740000017898191134920584879_" class="st1" d="M696.8,319.7v3.5"/>
						</g>
					</g>
				</g>
				<g id="text_9">
					<g transform="translate(683.695 332.638438) scale(0.1 -0.1)">
						<g>
							<path id="DejaVuSans-32_00000044165045038672910290000016198620558646562980_" d="M23.2-8.1h34.4v-8.3H11.3v8.3
								C15.1-4.2,20.2,1,26.6,7.5c6.5,6.5,10.5,10.7,12.2,12.6c3.2,3.5,5.4,6.5,6.6,9c1.3,2.5,1.9,4.9,1.9,7.2c0,3.9-1.4,7-4.1,9.5
								c-2.7,2.4-6.3,3.7-10.6,3.7c-3.1,0-6.4-0.5-9.8-1.6c-3.4-1.1-7.1-2.7-11-4.9v10c4,1.6,7.7,2.8,11.1,3.6
								c3.5,0.8,6.6,1.2,9.5,1.2c7.6,0,13.6-1.9,18.1-5.7c4.5-3.8,6.7-8.8,6.7-15.1c0-3-0.6-5.8-1.7-8.5c-1.1-2.7-3.2-5.8-6.1-9.5
								c-0.8-0.9-3.4-3.7-7.8-8.2C37.3,6.3,31.1,0,23.2-8.1z"/>
						</g>
						<g>
							<path id="DejaVuSans-30_00000170273883397366103780000016739712854492223386_" d="M99.4,50c-5.1,0-8.9-2.5-11.5-7.5
								c-2.6-5-3.8-12.5-3.8-22.5c0-10,1.3-17.5,3.8-22.5c2.6-5,6.4-7.5,11.5-7.5c5.1,0,8.9,2.5,11.5,7.5c2.6,5,3.8,12.5,3.8,22.5
								c0,10-1.3,17.5-3.8,22.5C108.4,47.5,104.5,50,99.4,50z M99.4,57.8c8.2,0,14.4-3.2,18.7-9.7c4.3-6.5,6.5-15.8,6.5-28.1
								c0-12.3-2.2-21.6-6.5-28.1c-4.3-6.5-10.6-9.7-18.7-9.7c-8.2,0-14.4,3.2-18.7,9.7C76.4-1.7,74.2,7.7,74.2,20
								c0,12.3,2.2,21.7,6.5,28.1C85,54.6,91.2,57.8,99.4,57.8z"/>
						</g>
						<g>
							<path id="DejaVuSans-31_00000096044527576950270080000012197975183714067351_" d="M143.7-8.1h16.1v55.6L142.2,44v9l17.4,3.5
								h9.9V-8.1h16.1v-8.3h-42V-8.1z"/>
						</g>
						<g>
							<path id="DejaVuSans-36_00000174565183870587297160000004232774249561154460_" d="M227.9,24c-4.4,0-7.9-1.5-10.5-4.5
								c-2.6-3-3.9-7.2-3.9-12.4c0-5.2,1.3-9.4,3.9-12.4c2.6-3,6.1-4.6,10.5-4.6c4.4,0,7.9,1.5,10.5,4.6c2.6,3.1,3.9,7.2,3.9,12.4
								c0,5.3-1.3,9.4-3.9,12.4C235.8,22.4,232.3,24,227.9,24z M247.5,54.9v-9c-2.5,1.2-5,2.1-7.5,2.7c-2.5,0.6-5,0.9-7.5,0.9
								c-6.5,0-11.5-2.2-14.9-6.6c-3.4-4.4-5.4-11-5.9-19.9c1.9,2.8,4.3,5,7.2,6.5c2.9,1.5,6.1,2.3,9.6,2.3c7.3,0,13.1-2.2,17.4-6.7
								c4.2-4.4,6.4-10.5,6.4-18.1c0-7.5-2.2-13.5-6.6-18c-4.4-4.5-10.3-6.8-17.7-6.8c-8.4,0-14.9,3.2-19.3,9.7
								c-4.5,6.5-6.7,15.8-6.7,28.1c0,11.5,2.7,20.7,8.2,27.6s12.8,10.3,22,10.3c2.5,0,5-0.2,7.5-0.7S244.7,55.8,247.5,54.9z"/>
						</g>
					</g>
				</g>
			</g>
			<g id="text_10">
				<g transform="translate(359.9525 346.316563) scale(0.1 -0.1)">
					<g>
						<path id="DejaVuSans-59" d="M3.8,56.5h10.6l20.2-30l20.1,30h10.6L39.5,18.3v-34.7h-9.9v34.7L3.8,56.5z"/>
					</g>
					<g>
						<path id="DejaVuSans-65" d="M108,13.2V8.8H66.7C67.1,2.6,69-2.1,72.3-5.4c3.3-3.2,8-4.9,13.9-4.9c3.4,0,6.8,0.4,10,1.3
							c3.2,0.8,6.5,2.1,9.7,3.8v-8.5c-3.2-1.4-6.5-2.4-9.9-3.1c-3.4-0.7-6.8-1.1-10.3-1.1c-8.7,0-15.6,2.5-20.7,7.6
							c-5.1,5.1-7.6,12-7.6,20.6c0,8.9,2.4,16,7.2,21.3c4.8,5.3,11.4,7.9,19.6,7.9c7.4,0,13.2-2.4,17.5-7.1
							C105.9,27.7,108,21.3,108,13.2z M99.1,15.8c-0.1,4.9-1.4,8.8-4.1,11.8c-2.7,2.9-6.2,4.4-10.7,4.4c-5,0-9-1.4-12-4.2
							c-3-2.8-4.7-6.8-5.2-12L99.1,15.8z"/>
					</g>
					<g>
						<path id="DejaVuSans-61" d="M147.6,11.1c-7.3,0-12.3-0.8-15.1-2.5c-2.8-1.7-4.2-4.5-4.2-8.5c0-3.2,1.1-5.7,3.2-7.6
							c2.1-1.9,5-2.8,8.6-2.8c5,0,9,1.8,12,5.3s4.5,8.2,4.5,14.1v2H147.6z M165.6,14.8v-31.2h-9v8.3c-2.1-3.3-4.6-5.8-7.7-7.3
							s-6.8-2.4-11.2-2.4c-5.6,0-10,1.6-13.4,4.7c-3.3,3.1-5,7.4-5,12.6c0,6.1,2.1,10.8,6.2,13.9c4.1,3.1,10.3,4.7,18.4,4.7h12.6V19
							c0,4.1-1.4,7.3-4.1,9.6S146,32,141.1,32c-3.1,0-6.2-0.4-9.1-1.1c-3-0.8-5.8-1.9-8.5-3.4v8.3c3.3,1.3,6.5,2.2,9.6,2.8
							c3.1,0.6,6.1,1,9,1c7.9,0,13.8-2.1,17.7-6.2C163.6,29.3,165.6,23.1,165.6,14.8z"/>
					</g>
					<g>
						<path id="DejaVuSans-72" d="M215.8,29.9c-1,0.6-2.1,1-3.3,1.3c-1.2,0.3-2.5,0.4-3.9,0.4c-5.1,0-9-1.7-11.7-5s-4.1-8-4.1-14.2
							v-28.8h-9v54.7h9v-8.5c1.9,3.3,4.4,5.8,7.4,7.4c3,1.6,6.7,2.4,11,2.4c0.6,0,1.3,0,2-0.1c0.8-0.1,1.6-0.2,2.5-0.4L215.8,29.9z"
							/>
					</g>
				</g>
			</g>
		</g>
		<g id="matplotlib.axis_2">
			<g id="ytick_1">
				<g id="line2d_10">
					<g>
						<g>
							<path id="m922995492f" class="st1" d="M45.1,315.6h-3.5"/>
						</g>
					</g>
				</g>
				<g id="text_11">
					<g transform="translate(24.935 317.751938) scale(0.1 -0.1)">
						<g>
							<path id="DejaVuSans-34_00000066480036192242552370000017370833517618768274_" d="M41.8,47.9L16.9,9h24.9V47.9z M39.2,56.5
								h12.4V9H62V0.8H51.6v-17.2h-9.8V0.8H8.9v9.5L39.2,56.5z"/>
						</g>
						<g>
							<path id="DejaVuSans-30_00000055669566199380567570000013958783813371890861_" d="M99.4,50c-5.1,0-8.9-2.5-11.5-7.5
								c-2.6-5-3.8-12.5-3.8-22.5c0-10,1.3-17.5,3.8-22.5c2.6-5,6.4-7.5,11.5-7.5c5.1,0,8.9,2.5,11.5,7.5c2.6,5,3.8,12.5,3.8,22.5
								c0,10-1.3,17.5-3.8,22.5C108.4,47.5,104.5,50,99.4,50z M99.4,57.8c8.2,0,14.4-3.2,18.7-9.7c4.3-6.5,6.5-15.8,6.5-28.1
								c0-12.3-2.2-21.6-6.5-28.1c-4.3-6.5-10.6-9.7-18.7-9.7c-8.2,0-14.4,3.2-18.7,9.7C76.4-1.7,74.2,7.7,74.2,20
								c0,12.3,2.2,21.7,6.5,28.1C85,54.6,91.2,57.8,99.4,57.8z"/>
						</g>
					</g>
				</g>
			</g>
			<g id="ytick_2">
				<g id="line2d_11">
					<g>
						<g>
							<path id="m922995492f_00000104678988570653809690000007699684098502480523_" class="st1" d="M45.1,257.2h-3.5"/>
						</g>
					</g>
				</g>
				<g id="text_12">
					<g transform="translate(24.935 259.362217) scale(0.1 -0.1)">
						<g>
							<path id="DejaVuSans-35" d="M14.8,56.5h38.7v-8.3H23.8V30.3c1.4,0.5,2.9,0.9,4.3,1.1c1.4,0.2,2.9,0.4,4.3,0.4
								c8.1,0,14.6-2.2,19.3-6.7c4.8-4.5,7.1-10.5,7.1-18.1c0-7.8-2.4-13.9-7.3-18.3c-4.9-4.3-11.8-6.5-20.7-6.5
								c-3.1,0-6.2,0.3-9.4,0.8c-3.2,0.5-6.4,1.3-9.8,2.3v9.9c2.9-1.6,6-2.8,9.1-3.6s6.4-1.2,9.9-1.2c5.6,0,10.1,1.5,13.4,4.4
								c3.3,3,4.9,7,4.9,12.1c0,5.1-1.6,9.1-4.9,12c-3.3,3-7.7,4.5-13.4,4.5c-2.6,0-5.3-0.3-7.9-0.9c-2.6-0.6-5.3-1.5-8-2.7V56.5z"
								/>
						</g>
						<g>
							<path id="DejaVuSans-30_00000078018018676057251070000014299110047456537217_" d="M99.4,50c-5.1,0-8.9-2.5-11.5-7.5
								c-2.6-5-3.8-12.5-3.8-22.5c0-10,1.3-17.5,3.8-22.5c2.6-5,6.4-7.5,11.5-7.5c5.1,0,8.9,2.5,11.5,7.5c2.6,5,3.8,12.5,3.8,22.5
								c0,10-1.3,17.5-3.8,22.5C108.4,47.5,104.5,50,99.4,50z M99.4,57.8c8.2,0,14.4-3.2,18.7-9.7c4.3-6.5,6.5-15.8,6.5-28.1
								c0-12.3-2.2-21.6-6.5-28.1c-4.3-6.5-10.6-9.7-18.7-9.7c-8.2,0-14.4,3.2-18.7,9.7C76.4-1.7,74.2,7.7,74.2,20
								c0,12.3,2.2,21.7,6.5,28.1C85,54.6,91.2,57.8,99.4,57.8z"/>
						</g>
					</g>
				</g>
			</g>
			<g id="ytick_3">
				<g id="line2d_12">
					<g>
						<g>
							<path id="m922995492f_00000168103273832611758460000003363044359893492899_" class="st1" d="M45.1,198.8h-3.5"/>
						</g>
					</g>
				</g>
				<g id="text_13">
					<g transform="translate(24.935 200.972495) scale(0.1 -0.1)">
						<g>
							<path id="DejaVuSans-36_00000132050596486651674680000005630887557470454677_" d="M37,24c-4.4,0-7.9-1.5-10.5-4.5
								c-2.6-3-3.9-7.2-3.9-12.4c0-5.2,1.3-9.4,3.9-12.4c2.6-3,6.1-4.6,10.5-4.6S45-8.5,47.5-5.5c2.6,3.1,3.9,7.2,3.9,12.4
								c0,5.3-1.3,9.4-3.9,12.4C45,22.4,41.4,24,37,24z M56.6,54.9v-9c-2.5,1.2-5,2.1-7.5,2.7c-2.5,0.6-5,0.9-7.5,0.9
								c-6.5,0-11.5-2.2-14.9-6.6c-3.4-4.4-5.4-11-5.9-19.9c1.9,2.8,4.3,5,7.2,6.5c2.9,1.5,6.1,2.3,9.6,2.3c7.3,0,13.1-2.2,17.4-6.7
								c4.2-4.4,6.4-10.5,6.4-18.1c0-7.5-2.2-13.5-6.6-18c-4.4-4.5-10.3-6.8-17.7-6.8c-8.4,0-14.9,3.2-19.3,9.7
								C13.2-1.7,11,7.7,11,20c0,11.5,2.7,20.7,8.2,27.6s12.8,10.3,22,10.3c2.5,0,5-0.2,7.5-0.7S53.9,55.8,56.6,54.9z"/>
						</g>
						<g>
							<path id="DejaVuSans-30_00000032630980900851831910000001997245380310987658_" d="M99.4,50c-5.1,0-8.9-2.5-11.5-7.5
								c-2.6-5-3.8-12.5-3.8-22.5c0-10,1.3-17.5,3.8-22.5c2.6-5,6.4-7.5,11.5-7.5c5.1,0,8.9,2.5,11.5,7.5c2.6,5,3.8,12.5,3.8,22.5
								c0,10-1.3,17.5-3.8,22.5C108.4,47.5,104.5,50,99.4,50z M99.4,57.8c8.2,0,14.4-3.2,18.7-9.7c4.3-6.5,6.5-15.8,6.5-28.1
								c0-12.3-2.2-21.6-6.5-28.1c-4.3-6.5-10.6-9.7-18.7-9.7c-8.2,0-14.4,3.2-18.7,9.7C76.4-1.7,74.2,7.7,74.2,20
								c0,12.3,2.2,21.7,6.5,28.1C85,54.6,91.2,57.8,99.4,57.8z"/>
						</g>
					</g>
				</g>
			</g>
			<g id="ytick_4">
				<g id="line2d_13">
					<g>
						<g>
							<path id="m922995492f_00000015333576668805641400000003939398830453661352_" class="st1" d="M45.1,140.4h-3.5"/>
						</g>
					</g>
				</g>
				<g id="text_14">
					<g transform="translate(24.935 142.582773) scale(0.1 -0.1)">
						<g>
							<path id="DejaVuSans-37" d="M12.2,56.5h46.9v-4.2L32.6-16.4H22.3l24.9,64.6h-35V56.5z"/>
						</g>
						<g>
							<path id="DejaVuSans-30_00000048489134745261843700000007019225277521981091_" d="M99.4,50c-5.1,0-8.9-2.5-11.5-7.5
								c-2.6-5-3.8-12.5-3.8-22.5c0-10,1.3-17.5,3.8-22.5c2.6-5,6.4-7.5,11.5-7.5c5.1,0,8.9,2.5,11.5,7.5c2.6,5,3.8,12.5,3.8,22.5
								c0,10-1.3,17.5-3.8,22.5C108.4,47.5,104.5,50,99.4,50z M99.4,57.8c8.2,0,14.4-3.2,18.7-9.7c4.3-6.5,6.5-15.8,6.5-28.1
								c0-12.3-2.2-21.6-6.5-28.1c-4.3-6.5-10.6-9.7-18.7-9.7c-8.2,0-14.4,3.2-18.7,9.7C76.4-1.7,74.2,7.7,74.2,20
								c0,12.3,2.2,21.7,6.5,28.1C85,54.6,91.2,57.8,99.4,57.8z"/>
						</g>
					</g>
				</g>
			</g>
			<g id="ytick_5">
				<g id="line2d_14">
					<g>
						<g>
							<path id="m922995492f_00000162332020972520799360000006524770738850445233_" class="st1" d="M45.1,82h-3.5"/>
						</g>
					</g>
				</g>
				<g id="text_15">
					<g transform="translate(24.935 84.193052) scale(0.1 -0.1)">
						<g>
							<path id="DejaVuSans-38_00000152986658212982254940000011220950237024630186_" d="M35.8,18.2c-4.7,0-8.4-1.3-11.1-3.8
								c-2.7-2.5-4-6-4-10.3c0-4.4,1.3-7.8,4-10.4c2.7-2.5,6.4-3.8,11.1-3.8s8.4,1.3,11.1,3.8c2.7,2.5,4.1,6,4.1,10.3
								c0,4.4-1.3,7.8-4,10.3C44.2,17,40.5,18.2,35.8,18.2z M25.9,22.4c-4.2,1-7.5,3-9.9,5.9c-2.4,2.9-3.5,6.4-3.5,10.6
								c0,5.8,2.1,10.4,6.2,13.8c4.2,3.4,9.8,5.1,17.1,5.1c7.3,0,13-1.7,17.1-5.1s6.2-8,6.2-13.8c0-4.2-1.2-7.7-3.5-10.6
								c-2.4-2.9-5.6-4.9-9.8-5.9c4.8-1.1,8.4-3.3,11.1-6.5c2.7-3.2,4-7.2,4-11.8c0-7.1-2.2-12.5-6.5-16.3
								C50-16,43.8-17.8,35.8-17.8c-8,0-14.2,1.9-18.5,5.7C12.9-8.4,10.8-3,10.8,4.1c0,4.6,1.3,8.6,4,11.8
								C17.5,19.1,21.2,21.3,25.9,22.4z M22.3,38c0-3.8,1.2-6.7,3.5-8.8c2.4-2.1,5.7-3.2,9.9-3.2c4.2,0,7.6,1.1,9.9,3.2
								c2.4,2.1,3.6,5.1,3.6,8.8c0,3.8-1.2,6.7-3.6,8.8C43.3,48.9,40,50,35.8,50c-4.3,0-7.6-1.1-9.9-3.2
								C23.5,44.7,22.3,41.8,22.3,38z"/>
						</g>
						<g>
							<path id="DejaVuSans-30_00000078042205017958379600000016302273644423503780_" d="M99.4,50c-5.1,0-8.9-2.5-11.5-7.5
								c-2.6-5-3.8-12.5-3.8-22.5c0-10,1.3-17.5,3.8-22.5c2.6-5,6.4-7.5,11.5-7.5c5.1,0,8.9,2.5,11.5,7.5c2.6,5,3.8,12.5,3.8,22.5
								c0,10-1.3,17.5-3.8,22.5C108.4,47.5,104.5,50,99.4,50z M99.4,57.8c8.2,0,14.4-3.2,18.7-9.7c4.3-6.5,6.5-15.8,6.5-28.1
								c0-12.3-2.2-21.6-6.5-28.1c-4.3-6.5-10.6-9.7-18.7-9.7c-8.2,0-14.4,3.2-18.7,9.7C76.4-1.7,74.2,7.7,74.2,20
								c0,12.3,2.2,21.7,6.5,28.1C85,54.6,91.2,57.8,99.4,57.8z"/>
						</g>
					</g>
				</g>
			</g>
			<g id="text_16">
				<g transform="translate(18.855313 221.321094) rotate(-90) scale(0.1 -0.1)">
					<g>
						<path id="DejaVuSans-4c" d="M-6.6,68.9h9.9V4.3h35.5V-4H-6.6V68.9z"/>
					</g>
					<g>
						<path id="DejaVuSans-69" d="M48.7,50.7h9V-4h-9V50.7z M48.7,72h9V60.6h-9V72z"/>
					</g>
					<g>
						<path id="DejaVuSans-66" d="M104.2,72v-7.5h-8.6c-3.2,0-5.5-0.7-6.7-2c-1.2-1.3-1.9-3.6-1.9-7v-4.8h14.8v-7H87V-4h-9v47.7
							h-8.6v7H78v3.8c0,6.1,1.4,10.5,4.2,13.3c2.8,2.8,7.3,4.2,13.5,4.2H104.2z"/>
					</g>
					<g>
						<path id="DejaVuSans-65_00000038407982196989955980000000548465361015291547_" d="M158.5,25.6v-4.4h-41.3
							c0.4-6.2,2.3-10.9,5.6-14.1c3.3-3.2,8-4.9,13.9-4.9c3.4,0,6.8,0.4,10,1.3c3.2,0.8,6.5,2.1,9.7,3.8v-8.5
							c-3.2-1.4-6.5-2.4-9.9-3.1c-3.4-0.7-6.8-1.1-10.3-1.1c-8.7,0-15.6,2.5-20.7,7.6c-5.1,5.1-7.6,12-7.6,20.6
							c0,8.9,2.4,16,7.2,21.3c4.8,5.3,11.4,7.9,19.6,7.9c7.4,0,13.2-2.4,17.5-7.1C156.3,40.2,158.5,33.7,158.5,25.6z M149.5,28.2
							c-0.1,4.9-1.4,8.8-4.1,11.8c-2.7,2.9-6.2,4.4-10.7,4.4c-5,0-9-1.4-12-4.2c-3-2.8-4.7-6.8-5.2-12L149.5,28.2z"/>
					</g>
					<g>
						<path id="DejaVuSans-20" d="M163.8-4"/>
					</g>
					<g>
						<path id="DejaVuSans-45" d="M205.4,68.9h46.1v-8.3h-36.2V39H250v-8.3h-34.7V4.3h37.1V-4h-47V68.9z"/>
					</g>
					<g>
						<path id="DejaVuSans-78" d="M313.7,50.7l-19.8-26.6L314.7-4h-10.6l-15.9,21.5L272.3-4h-10.6l21.2,28.6l-19.4,26.1h10.6
							l14.5-19.5l14.5,19.5H313.7z"/>
					</g>
					<g>
						<path id="DejaVuSans-70" d="M336.1,4.2v-29h-9v75.5h9v-8.3c1.9,3.2,4.3,5.7,7.2,7.2c2.9,1.6,6.3,2.4,10.3,2.4
							c6.6,0,12-2.6,16.2-7.9c4.2-5.3,6.2-12.2,6.2-20.8s-2.1-15.5-6.2-20.8c-4.1-5.3-9.5-7.9-16.2-7.9c-4,0-7.4,0.8-10.3,2.4
							C340.3-1.5,338,0.9,336.1,4.2z M366.6,23.3c0,6.6-1.4,11.8-4.1,15.5s-6.5,5.6-11.2,5.6c-4.8,0-8.5-1.9-11.2-5.6
							s-4.1-8.9-4.1-15.5s1.4-11.8,4.1-15.5s6.5-5.6,11.2-5.6c4.8,0,8.5,1.9,11.2,5.6S366.6,16.7,366.6,23.3z"/>
					</g>
					<g>
						<path id="DejaVuSans-65_00000061468801272345333570000001749940470442904231_" d="M437.6,25.6v-4.4h-41.3
							c0.4-6.2,2.3-10.9,5.6-14.1c3.3-3.2,8-4.9,13.9-4.9c3.4,0,6.8,0.4,10,1.3c3.2,0.8,6.5,2.1,9.7,3.8v-8.5
							c-3.2-1.4-6.5-2.4-9.9-3.1c-3.4-0.7-6.8-1.1-10.3-1.1c-8.7,0-15.6,2.5-20.7,7.6c-5.1,5.1-7.6,12-7.6,20.6
							c0,8.9,2.4,16,7.2,21.3c4.8,5.3,11.4,7.9,19.6,7.9c7.4,0,13.2-2.4,17.5-7.1C435.5,40.2,437.6,33.7,437.6,25.6z M428.7,28.2
							c-0.1,4.9-1.4,8.8-4.1,11.8c-2.7,2.9-6.2,4.4-10.7,4.4c-5,0-9-1.4-12-4.2c-3-2.8-4.7-6.8-5.2-12L428.7,28.2z"/>
					</g>
					<g>
						<path id="DejaVuSans-63" d="M491.7,48.6v-8.4c-2.5,1.4-5.1,2.5-7.6,3.2c-2.6,0.7-5.1,1-7.7,1c-5.8,0-10.4-1.8-13.6-5.5
							c-3.2-3.7-4.8-8.9-4.8-15.5s1.6-11.9,4.8-15.6c3.2-3.7,7.8-5.5,13.6-5.5c2.6,0,5.2,0.3,7.7,1c2.6,0.7,5.1,1.7,7.6,3.2v-8.3
							c-2.5-1.2-5.1-2-7.8-2.6c-2.7-0.6-5.5-0.9-8.6-0.9c-8.2,0-14.8,2.6-19.6,7.8c-4.8,5.2-7.3,12.2-7.3,21c0,8.9,2.4,15.9,7.3,21
							c4.9,5.1,11.6,7.7,20.2,7.7c2.8,0,5.5-0.3,8.1-0.9C486.7,50.6,489.3,49.7,491.7,48.6z"/>
					</g>
					<g>
						<path id="DejaVuSans-74" d="M516.2,66.2V50.7h18.5v-7h-18.5V14c0-4.5,0.6-7.3,1.8-8.6s3.7-1.9,7.5-1.9h9.2V-4h-9.2
							c-6.9,0-11.7,1.3-14.4,3.9c-2.6,2.6-4,7.3-4,14.1v29.7h-6.6v7h6.6v15.5H516.2z"/>
					</g>
					<g>
						<path id="DejaVuSans-61_00000016784187962086226650000017192167044308452008_" d="M571.4,23.5c-7.3,0-12.3-0.8-15.1-2.5
							c-2.8-1.7-4.2-4.5-4.2-8.5c0-3.2,1.1-5.7,3.2-7.6c2.1-1.9,5-2.8,8.6-2.8c5,0,9,1.8,12,5.3c3,3.5,4.5,8.2,4.5,14.1v2H571.4z
							 M589.3,27.2V-4h-9v8.3c-2.1-3.3-4.6-5.8-7.7-7.3s-6.8-2.4-11.2-2.4c-5.6,0-10,1.6-13.4,4.7c-3.3,3.1-5,7.4-5,12.6
							c0,6.1,2.1,10.8,6.2,13.9c4.1,3.1,10.3,4.7,18.4,4.7h12.6v0.9c0,4.1-1.4,7.3-4.1,9.6s-6.5,3.4-11.5,3.4
							c-3.1,0-6.2-0.4-9.1-1.1c-3-0.8-5.8-1.9-8.5-3.4v8.3c3.3,1.3,6.5,2.2,9.6,2.8c3.1,0.6,6.1,1,9,1c7.9,0,13.8-2.1,17.7-6.2
							C587.4,41.7,589.3,35.5,589.3,27.2z"/>
					</g>
					<g>
						<path id="DejaVuSans-6e" d="M653.3,29V-4h-9v32.7c0,5.2-1,9-3,11.6c-2,2.6-5,3.9-9.1,3.9c-4.9,0-8.7-1.5-11.5-4.6
							c-2.8-3.1-4.2-7.3-4.2-12.6V-4h-9v54.7h9v-8.5c2.2,3.3,4.7,5.8,7.6,7.4c2.9,1.6,6.3,2.4,10.1,2.4c6.3,0,11-1.9,14.2-5.8
							C651.7,42.3,653.3,36.6,653.3,29z"/>
					</g>
					<g>
						<path id="DejaVuSans-63_00000009584629195307077720000010919160325392307086_" d="M710.6,48.6v-8.4c-2.5,1.4-5.1,2.5-7.6,3.2
							c-2.6,0.7-5.1,1-7.7,1c-5.8,0-10.4-1.8-13.6-5.5c-3.2-3.7-4.8-8.9-4.8-15.5s1.6-11.9,4.8-15.6c3.2-3.7,7.8-5.5,13.6-5.5
							c2.6,0,5.2,0.3,7.7,1c2.6,0.7,5.1,1.7,7.6,3.2v-8.3c-2.5-1.2-5.1-2-7.8-2.6c-2.7-0.6-5.5-0.9-8.6-0.9
							c-8.2,0-14.8,2.6-19.6,7.8c-4.8,5.2-7.3,12.2-7.3,21c0,8.9,2.4,15.9,7.3,21c4.9,5.1,11.6,7.7,20.2,7.7c2.8,0,5.5-0.3,8.1-0.9
							C705.5,50.6,708.1,49.7,710.6,48.6z"/>
					</g>
					<g>
						<path id="DejaVuSans-79" d="M749-9.1c-2.5-6.5-5-10.8-7.4-12.7c-2.4-2-5.6-3-9.7-3h-7.2v7.5h5.3c2.5,0,4.4,0.6,5.8,1.8
							c1.4,1.2,2.9,3.9,4.5,8.3l1.6,4.1l-22.1,53.8h9.5l17.1-42.8l17.1,42.8h9.5L749-9.1z"/>
					</g>
				</g>
			</g>
		</g>
		<g id="line2d_15">
			<g>
				<defs>
					<rect id="SVGID_1_" x="45.1" y="47" width="651.8" height="272.7"/>
				</defs>
				<clipPath id="SVGID_00000176001974649289223010000010404701904743545532_">
					<use xlink:href="#SVGID_1_"  style="overflow:visible;"/>
				</clipPath>
				
					<path style="clip-path:url(#SVGID_00000176001974649289223010000010404701904743545532_);fill:none;stroke:#1F77B4;stroke-width:1.5;stroke-linecap:square;stroke-linejoin:round;" d="
					M83.4,97.8h38.3l38.3-2.9l38.3-0.6l38.3-0.6l38.3-2.3l38.3-2.9h38.3l38.3-4.1l38.3,1.8l38.3,1.2l38.3-4.1l38.3-0.6l38.3-1.2
					l38.3-1.2l38.3-1.2"/>
			</g>
		</g>
		<g id="line2d_16">
			<g>
				<defs>
					<rect id="SVGID_00000013908129769815061540000001003297725083657386_" x="45.1" y="47" width="651.8" height="272.7"/>
				</defs>
				<clipPath id="SVGID_00000060030514966748097230000004427039222776771519_">
					<use xlink:href="#SVGID_00000013908129769815061540000001003297725083657386_"  style="overflow:visible;"/>
				</clipPath>
				
					<path style="clip-path:url(#SVGID_00000060030514966748097230000004427039222776771519_);fill:none;stroke:#FF7F0E;stroke-width:1.5;stroke-linecap:square;stroke-linejoin:round;" d="
					M83.4,130.5l38.3-2.9l38.3-2.9l38.3-2.3l38.3-2.3l38.3-2.3l38.3-1.8l38.3-1.2l38.3-0.6l38.3-2.3l38.3-0.6l38.3-1.2l38.3-1.2
					l38.3-1.2l38.3-1.2l38.3-1.8"/>
			</g>
		</g>
		<g id="line2d_17">
			<g>
				<defs>
					<rect id="SVGID_00000183963894411445872560000000574122041638991017_" x="45.1" y="47" width="651.8" height="272.7"/>
				</defs>
				<clipPath id="SVGID_00000056392400531090485810000007970263031950709908_">
					<use xlink:href="#SVGID_00000183963894411445872560000000574122041638991017_"  style="overflow:visible;"/>
				</clipPath>
				
					<path style="clip-path:url(#SVGID_00000056392400531090485810000007970263031950709908_);fill:none;stroke:#2CA02C;stroke-width:1.5;stroke-linecap:square;stroke-linejoin:round;" d="
					M83.4,93.7l38.3-1.8l38.3-0.6l38.3-0.6l38.3-3.5l38.3-0.6l38.3-2.3l38.3-1.2l38.3-0.6l38.3-0.6l38.3-0.6l38.3-2.3l38.3-0.6h38.3
					l38.3-1.8l38.3-0.6"/>
			</g>
		</g>
		<g id="line2d_18">
			<g>
				<defs>
					<rect id="SVGID_00000067215704789779550810000016875967004391368077_" x="45.1" y="47" width="651.8" height="272.7"/>
				</defs>
				<clipPath id="SVGID_00000079482599679591608660000008849841782196824977_">
					<use xlink:href="#SVGID_00000067215704789779550810000016875967004391368077_"  style="overflow:visible;"/>
				</clipPath>
				
					<path style="clip-path:url(#SVGID_00000079482599679591608660000008849841782196824977_);fill:none;stroke:#D62728;stroke-width:1.5;stroke-linecap:square;stroke-linejoin:round;" d="
					M83.4,112.4l38.3-1.2h38.3h38.3l38.3-2.3l38.3,0.6l38.3-2.9l38.3-1.2l38.3,2.3l38.3-0.6l38.3,0.6l38.3-2.9l38.3-1.2l38.3-1.8
					h38.3l38.3-0.6"/>
			</g>
		</g>
		<g id="line2d_19">
			<g>
				<defs>
					<rect id="SVGID_00000006708767529136118980000017835387972140232088_" x="45.1" y="47" width="651.8" height="272.7"/>
				</defs>
				<clipPath id="SVGID_00000141452061579699546780000008283826534589776302_">
					<use xlink:href="#SVGID_00000006708767529136118980000017835387972140232088_"  style="overflow:visible;"/>
				</clipPath>
				
					<path style="clip-path:url(#SVGID_00000141452061579699546780000008283826534589776302_);fill:none;stroke:#9467BD;stroke-width:1.5;stroke-linecap:square;stroke-linejoin:round;" d="
					M83.4,100.7l38.3-0.6l38.3-0.6l38.3-1.2l38.3-1.8h38.3l38.3-1.8l38.3-1.8l38.3-0.6l38.3-1.8l38.3-1.2h38.3l38.3-0.6l38.3-0.6
					l38.3-1.2l38.3-1.2"/>
			</g>
		</g>
		<g id="line2d_20">
			<g>
				<defs>
					<rect id="SVGID_00000039835084897946191430000005623909080560095617_" x="45.1" y="47" width="651.8" height="272.7"/>
				</defs>
				<clipPath id="SVGID_00000064344062330343195440000016180170133281977481_">
					<use xlink:href="#SVGID_00000039835084897946191430000005623909080560095617_"  style="overflow:visible;"/>
				</clipPath>
				
					<path style="clip-path:url(#SVGID_00000064344062330343195440000016180170133281977481_);fill:none;stroke:#8C564B;stroke-width:1.5;stroke-linecap:square;stroke-linejoin:round;" d="
					M83.4,280.6l38.3,4.1l38.3,2.9l38.3,1.8l38.3,1.2l38.3-1.8l38.3-4.7l38.3-7l38.3-9.3l38.3-10.5l38.3-14l38.3-14.6l38.3-9.9
					l38.3-8.2l38.3-7l38.3-8.8"/>
			</g>
		</g>
		<g id="patch_3">
			<path class="st8" d="M45.1,319.7V47"/>
		</g>
		<g id="patch_4">
			<path class="st8" d="M696.8,319.7V47"/>
		</g>
		<g id="patch_5">
			<path class="st8" d="M45.1,319.7h651.8"/>
		</g>
		<g id="patch_6">
			<path class="st8" d="M45.1,47h651.8"/>
		</g>
	</g>
	<g id="text_23">
		<g transform="translate(114.105 25.43625) scale(0.24 -0.24)">
			<g>
				<path id="DejaVuSans-4c_00000033335318097368571300000004481898666364709814_" d="M11.5,66.1h9.9V1.5h35.5v-8.3H11.5V66.1z"/>
			</g>
			<g>
				<path id="DejaVuSans-69_00000176728301509315296110000014172354165673574029_" d="M66.8,47.8h9V-6.8h-9V47.8z M66.8,69.1h9V57.8
					h-9V69.1z"/>
			</g>
			<g>
				<path id="DejaVuSans-66_00000169517202260518184780000002382885351375656377_" d="M122.3,69.1v-7.5h-8.6c-3.2,0-5.5-0.7-6.7-2
					c-1.2-1.3-1.9-3.6-1.9-7v-4.8h14.8v-7h-14.8V-6.8h-9v47.7h-8.6v7h8.6v3.8c0,6.1,1.4,10.5,4.2,13.3c2.8,2.8,7.3,4.2,13.5,4.2
					H122.3z"/>
			</g>
			<g>
				<path id="DejaVuSans-65_00000157288309239416618550000011112778228514128046_" d="M176.6,22.8v-4.4h-41.3
					c0.4-6.2,2.3-10.9,5.6-14.1c3.3-3.2,8-4.9,13.9-4.9c3.4,0,6.8,0.4,10,1.3c3.2,0.8,6.5,2.1,9.7,3.8v-8.5
					c-3.2-1.4-6.5-2.4-9.9-3.1c-3.4-0.7-6.8-1.1-10.3-1.1c-8.7,0-15.6,2.5-20.7,7.6c-5.1,5.1-7.6,12-7.6,20.6c0,8.9,2.4,16,7.3,21.3
					c4.8,5.3,11.4,7.9,19.6,7.9c7.4,0,13.2-2.4,17.5-7.1C174.4,37.3,176.6,30.9,176.6,22.8z M167.6,25.4c-0.1,4.9-1.4,8.8-4.1,11.8
					c-2.7,2.9-6.2,4.4-10.7,4.4c-5,0-9-1.4-12-4.2c-3-2.8-4.7-6.8-5.2-12L167.6,25.4z"/>
			</g>
			<g>
				<path id="DejaVuSans-20_00000071526250301119868200000012771829016855369126_" d="M181.9-6.8"/>
			</g>
			<g>
				<path id="DejaVuSans-45_00000054238238638944887080000012785677543361226402_" d="M223.5,66.1h46.1v-8.3h-36.2V36.2h34.7v-8.3
					h-34.7V1.5h37.1v-8.3h-47V66.1z"/>
			</g>
			<g>
				<path id="DejaVuSans-78_00000002367065319984146220000016426207558454939319_" d="M331.8,47.8L312,21.2l20.8-28.1h-10.6
					l-15.9,21.5L290.3-6.8h-10.6L301,21.8l-19.4,26.1h10.6l14.5-19.5l14.5,19.5H331.8z"/>
			</g>
			<g>
				<path id="DejaVuSans-70_00000134220758846232544350000016984224640869064080_" d="M354.2,1.4v-29h-9v75.5h9v-8.3
					c1.9,3.2,4.3,5.7,7.2,7.2c2.9,1.6,6.3,2.4,10.3,2.4c6.6,0,12-2.6,16.2-7.9c4.2-5.3,6.2-12.2,6.2-20.8S392,4.9,387.8-0.4
					c-4.1-5.3-9.5-7.9-16.2-7.9c-4,0-7.4,0.8-10.3,2.4C358.4-4.3,356-1.9,354.2,1.4z M384.7,20.5c0,6.6-1.4,11.8-4.1,15.5
					s-6.5,5.6-11.2,5.6c-4.8,0-8.5-1.9-11.2-5.6s-4.1-8.9-4.1-15.5s1.4-11.8,4.1-15.5s6.5-5.6,11.2-5.6c4.8,0,8.5,1.9,11.2,5.6
					S384.7,13.9,384.7,20.5z"/>
			</g>
			<g>
				<path id="DejaVuSans-65_00000094617990447228846170000012326211476465142439_" d="M455.7,22.8v-4.4h-41.3
					c0.4-6.2,2.3-10.9,5.6-14.1s8-4.9,13.9-4.9c3.4,0,6.8,0.4,10,1.3s6.5,2.1,9.7,3.8v-8.5c-3.2-1.4-6.5-2.4-9.9-3.1
					s-6.8-1.1-10.3-1.1c-8.7,0-15.6,2.5-20.7,7.6c-5.1,5.1-7.6,12-7.6,20.6c0,8.9,2.4,16,7.2,21.3c4.8,5.3,11.4,7.9,19.6,7.9
					c7.4,0,13.2-2.4,17.5-7.1C453.6,37.3,455.7,30.9,455.7,22.8z M446.7,25.4c-0.1,4.9-1.4,8.8-4.1,11.8c-2.7,2.9-6.2,4.4-10.7,4.4
					c-5,0-9-1.4-12-4.2s-4.7-6.8-5.2-12L446.7,25.4z"/>
			</g>
			<g>
				<path id="DejaVuSans-63_00000103976772403627998290000012480556338267482257_" d="M509.8,45.8v-8.4c-2.5,1.4-5.1,2.5-7.6,3.2
					s-5.1,1-7.7,1c-5.8,0-10.4-1.8-13.6-5.5c-3.2-3.7-4.8-8.9-4.8-15.5s1.6-11.9,4.8-15.6c3.2-3.7,7.8-5.5,13.6-5.5
					c2.6,0,5.2,0.3,7.7,1s5.1,1.8,7.6,3.2v-8.3c-2.5-1.2-5.1-2-7.8-2.6c-2.7-0.6-5.5-0.9-8.6-0.9c-8.2,0-14.8,2.6-19.6,7.8
					c-4.8,5.2-7.3,12.2-7.3,21c0,8.9,2.4,15.9,7.3,21c4.9,5.1,11.6,7.7,20.2,7.7c2.8,0,5.5-0.3,8.1-0.9
					C504.8,47.7,507.3,46.9,509.8,45.8z"/>
			</g>
			<g>
				<path id="DejaVuSans-74_00000029026306764040418080000012732375837034066843_" d="M534.3,63.4V47.8h18.5v-7h-18.5V11.2
					c0-4.5,0.6-7.3,1.8-8.6s3.7-1.9,7.5-1.9h9.2v-7.5h-9.2c-6.9,0-11.7,1.3-14.4,3.9c-2.6,2.6-4,7.3-4,14.1v29.7h-6.6v7h6.6v15.5
					H534.3z"/>
			</g>
			<g>
				<path id="DejaVuSans-61_00000157998447113452500740000005394789849223322763_" d="M589.5,20.6c-7.3,0-12.3-0.8-15.1-2.5
					s-4.2-4.5-4.2-8.5c0-3.2,1.1-5.7,3.2-7.6c2.1-1.9,5-2.8,8.6-2.8c5,0,9,1.8,12,5.3s4.5,8.2,4.5,14.1v2H589.5z M607.4,24.4V-6.8
					h-9v8.3c-2.1-3.3-4.6-5.8-7.7-7.3s-6.8-2.4-11.2-2.4c-5.6,0-10,1.6-13.4,4.7c-3.3,3.1-5,7.4-5,12.6c0,6.1,2.1,10.8,6.2,13.9
					c4.1,3.1,10.3,4.7,18.4,4.7h12.6v0.9c0,4.1-1.4,7.3-4.1,9.6s-6.5,3.4-11.5,3.4c-3.1,0-6.2-0.4-9.1-1.1c-3-0.8-5.8-1.9-8.5-3.4
					v8.3c3.3,1.3,6.5,2.2,9.6,2.8c3.1,0.6,6.1,1,9,1c7.9,0,13.8-2.1,17.7-6.2C605.5,38.9,607.4,32.7,607.4,24.4z"/>
			</g>
			<g>
				<path id="DejaVuSans-6e_00000162342470411824230400000008097090108551665323_" d="M671.4,26.2v-33h-9v32.7c0,5.2-1,9-3,11.6
					c-2,2.6-5,3.9-9.1,3.9c-4.9,0-8.7-1.5-11.5-4.6c-2.8-3.1-4.2-7.3-4.2-12.6V-6.8h-9v54.7h9v-8.5c2.2,3.3,4.7,5.8,7.6,7.4
					c2.9,1.6,6.3,2.4,10.1,2.4c6.3,0,11-1.9,14.2-5.8C669.8,39.4,671.4,33.7,671.4,26.2z"/>
			</g>
			<g>
				<path id="DejaVuSans-63_00000166654675014321883070000004575729791397384586_" d="M728.7,45.8v-8.4c-2.5,1.4-5.1,2.5-7.6,3.2
					s-5.1,1-7.7,1c-5.8,0-10.4-1.8-13.6-5.5c-3.2-3.7-4.8-8.9-4.8-15.5s1.6-11.9,4.8-15.6c3.2-3.7,7.8-5.5,13.6-5.5
					c2.6,0,5.2,0.3,7.7,1s5.1,1.8,7.6,3.2v-8.3c-2.5-1.2-5.1-2-7.8-2.6c-2.7-0.6-5.5-0.9-8.6-0.9c-8.2,0-14.8,2.6-19.6,7.8
					c-4.8,5.2-7.3,12.2-7.3,21c0,8.9,2.4,15.9,7.3,21c4.9,5.1,11.6,7.7,20.2,7.7c2.8,0,5.5-0.3,8.1-0.9
					C723.6,47.7,726.2,46.9,728.7,45.8z"/>
			</g>
			<g>
				<path id="DejaVuSans-79_00000093143813938619898150000006806385882330491790_" d="M767-11.9c-2.5-6.5-5-10.8-7.4-12.7
					c-2.4-2-5.6-3-9.7-3h-7.2v7.5h5.3c2.5,0,4.4,0.6,5.8,1.8c1.4,1.2,2.9,3.9,4.5,8.3L760-6l-22.1,53.8h9.5l17.1-42.8l17.1,42.8h9.5
					L767-11.9z"/>
			</g>
			<g>
				<path id="DejaVuSans-20_00000065061106780735651450000013293611011946258837_" d="M794.1-6.8"/>
			</g>
			<g>
				<path id="DejaVuSans-62_00000072262764553332925600000002485045687148295597_" d="M874.5,20.5c0,6.6-1.4,11.8-4.1,15.5
					s-6.5,5.6-11.2,5.6c-4.8,0-8.5-1.9-11.2-5.6s-4.1-8.9-4.1-15.5s1.4-11.8,4.1-15.5s6.5-5.6,11.2-5.6c4.8,0,8.5,1.9,11.2,5.6
					S874.5,13.9,874.5,20.5z M843.9,39.5c1.9,3.2,4.3,5.7,7.2,7.2c2.9,1.6,6.3,2.4,10.3,2.4c6.6,0,12-2.6,16.2-7.9
					c4.2-5.3,6.2-12.2,6.2-20.8s-2.1-15.5-6.2-20.8c-4.1-5.3-9.5-7.9-16.2-7.9c-4,0-7.4,0.8-10.3,2.4c-2.9,1.6-5.3,4-7.2,7.2v-8.2
					h-9v76h9V39.5z"/>
			</g>
			<g>
				<path id="DejaVuSans-65_00000094577057227820496970000011324845740120155822_" d="M945.5,22.8v-4.4h-41.3
					c0.4-6.2,2.3-10.9,5.6-14.1s8-4.9,13.9-4.9c3.4,0,6.8,0.4,10,1.3s6.5,2.1,9.7,3.8v-8.5c-3.2-1.4-6.5-2.4-9.9-3.1
					s-6.8-1.1-10.3-1.1c-8.7,0-15.6,2.5-20.7,7.6c-5.1,5.1-7.6,12-7.6,20.6c0,8.9,2.4,16,7.2,21.3c4.8,5.3,11.4,7.9,19.6,7.9
					c7.4,0,13.2-2.4,17.5-7.1C943.4,37.3,945.5,30.9,945.5,22.8z M936.5,25.4c-0.1,4.9-1.4,8.8-4.1,11.8c-2.7,2.9-6.2,4.4-10.7,4.4
					c-5,0-9-1.4-12-4.2s-4.7-6.8-5.2-12L936.5,25.4z"/>
			</g>
			<g>
				<path id="DejaVuSans-74_00000156568436594974361550000010074489116987759783_" d="M969.2,63.4V47.8h18.5v-7h-18.5V11.2
					c0-4.5,0.6-7.3,1.8-8.6s3.7-1.9,7.5-1.9h9.2v-7.5h-9.2c-6.9,0-11.7,1.3-14.4,3.9c-2.6,2.6-4,7.3-4,14.1v29.7h-6.6v7h6.6v15.5
					H969.2z"/>
			</g>
			<g>
				<path id="DejaVuSans-77_00000146487824041612683440000012893350051669831814_" d="M994.3,47.8h9l11.2-42.7l11.2,42.7h10.6
					l11.2-42.7l11.2,42.7h9l-14.3-54.7h-10.6L1031,38l-11.8-44.8h-10.6L994.3,47.8z"/>
			</g>
			<g>
				<path id="DejaVuSans-65_00000162312036667999913540000012610174794589148072_" d="M1128,22.8v-4.4h-41.3
					c0.4-6.2,2.3-10.9,5.6-14.1s8-4.9,13.9-4.9c3.4,0,6.8,0.4,10,1.3s6.5,2.1,9.7,3.8v-8.5c-3.2-1.4-6.5-2.4-9.9-3.1
					s-6.8-1.1-10.3-1.1c-8.7,0-15.6,2.5-20.7,7.6c-5.1,5.1-7.6,12-7.6,20.6c0,8.9,2.4,16,7.2,21.3c4.8,5.3,11.4,7.9,19.6,7.9
					c7.4,0,13.2-2.4,17.5-7.1C1125.9,37.3,1128,30.9,1128,22.8z M1119.1,25.4c-0.1,4.9-1.4,8.8-4.1,11.8c-2.7,2.9-6.2,4.4-10.7,4.4
					c-5,0-9-1.4-12-4.2s-4.7-6.8-5.2-12L1119.1,25.4z"/>
			</g>
			<g>
				<path id="DejaVuSans-65_00000154422240361141789650000015156002997346181521_" d="M1189.6,22.8v-4.4h-41.3
					c0.4-6.2,2.3-10.9,5.6-14.1s8-4.9,13.9-4.9c3.4,0,6.8,0.4,10,1.3s6.5,2.1,9.7,3.8v-8.5c-3.2-1.4-6.5-2.4-9.9-3.1
					s-6.8-1.1-10.3-1.1c-8.7,0-15.6,2.5-20.7,7.6c-5.1,5.1-7.6,12-7.6,20.6c0,8.9,2.4,16,7.2,21.3c4.8,5.3,11.4,7.9,19.6,7.9
					c7.4,0,13.2-2.4,17.5-7.1C1187.4,37.3,1189.6,30.9,1189.6,22.8z M1180.6,25.4c-0.1,4.9-1.4,8.8-4.1,11.8
					c-2.7,2.9-6.2,4.4-10.7,4.4c-5,0-9-1.4-12-4.2s-4.7-6.8-5.2-12L1180.6,25.4z"/>
			</g>
			<g>
				<path id="DejaVuSans-6e_00000101809369533178152480000015162445450902423951_" d="M1249.8,26.2v-33h-9v32.7c0,5.2-1,9-3,11.6
					c-2,2.6-5,3.9-9.1,3.9c-4.9,0-8.7-1.5-11.5-4.6c-2.8-3.1-4.2-7.3-4.2-12.6V-6.8h-9v54.7h9v-8.5c2.2,3.3,4.7,5.8,7.6,7.4
					c2.9,1.6,6.3,2.4,10.1,2.4c6.3,0,11-1.9,14.2-5.8C1248.2,39.4,1249.8,33.7,1249.8,26.2z"/>
			</g>
			<g>
				<path id="DejaVuSans-20_00000068660535931925362750000003366888786906763403_" d="M1258.3-6.8"/>
			</g>
			<g>
				<path id="DejaVuSans-32_00000091701891544661016000000003479154218911953832_" d="M1309.2,1.5h34.4v-8.3h-46.3v8.3
					c3.7,3.9,8.8,9.1,15.3,15.6c6.5,6.5,10.5,10.7,12.2,12.6c3.2,3.5,5.4,6.5,6.6,9c1.3,2.5,1.9,4.9,1.9,7.2c0,3.9-1.4,7-4.1,9.5
					c-2.7,2.4-6.3,3.7-10.6,3.7c-3.1,0-6.4-0.5-9.8-1.6c-3.4-1.1-7.1-2.7-11-4.9v10c4,1.6,7.7,2.8,11.1,3.6c3.5,0.8,6.6,1.2,9.5,1.2
					c7.6,0,13.6-1.9,18.1-5.7c4.5-3.8,6.7-8.8,6.7-15.1c0-3-0.6-5.8-1.7-8.5c-1.1-2.7-3.2-5.8-6.1-9.5c-0.8-0.9-3.4-3.7-7.8-8.2
					C1323.3,15.9,1317.2,9.6,1309.2,1.5z"/>
			</g>
			<g>
				<path id="DejaVuSans-30_00000085247560830624064560000014376810298672992668_" d="M1385.5,59.6c-5.1,0-8.9-2.5-11.5-7.5
					c-2.6-5-3.8-12.5-3.8-22.5c0-10,1.3-17.5,3.8-22.5c2.6-5,6.4-7.5,11.5-7.5c5.1,0,8.9,2.5,11.5,7.5c2.6,5,3.8,12.5,3.8,22.5
					c0,10-1.3,17.5-3.8,22.5C1394.4,57.1,1390.6,59.6,1385.5,59.6z M1385.5,67.4c8.2,0,14.4-3.2,18.7-9.7c4.3-6.5,6.5-15.8,6.5-28.1
					c0-12.3-2.2-21.6-6.5-28.1c-4.3-6.5-10.6-9.7-18.7-9.7c-8.2,0-14.4,3.2-18.7,9.7c-4.3,6.5-6.5,15.8-6.5,28.1
					c0,12.3,2.2,21.7,6.5,28.1C1371,64.1,1377.3,67.4,1385.5,67.4z"/>
			</g>
			<g>
				<path id="DejaVuSans-30_00000107546548751580176980000007904906193976921986_" d="M1449.1,59.6c-5.1,0-8.9-2.5-11.5-7.5
					c-2.6-5-3.8-12.5-3.8-22.5c0-10,1.3-17.5,3.8-22.5c2.6-5,6.4-7.5,11.5-7.5c5.1,0,8.9,2.5,11.5,7.5c2.6,5,3.8,12.5,3.8,22.5
					c0,10-1.3,17.5-3.8,22.5C1458,57.1,1454.2,59.6,1449.1,59.6z M1449.1,67.4c8.2,0,14.4-3.2,18.7-9.7c4.3-6.5,6.5-15.8,6.5-28.1
					c0-12.3-2.2-21.6-6.5-28.1c-4.3-6.5-10.6-9.7-18.7-9.7c-8.2,0-14.4,3.2-18.7,9.7c-4.3,6.5-6.5,15.8-6.5,28.1
					c0,12.3,2.2,21.7,6.5,28.1C1434.7,64.1,1440.9,67.4,1449.1,67.4z"/>
			</g>
			<g>
				<path id="DejaVuSans-30_00000057120805398065749210000017770795762715506083_" d="M1512.7,59.6c-5.1,0-8.9-2.5-11.5-7.5
					c-2.6-5-3.8-12.5-3.8-22.5c0-10,1.3-17.5,3.8-22.5c2.6-5,6.4-7.5,11.5-7.5c5.1,0,8.9,2.5,11.5,7.5c2.6,5,3.8,12.5,3.8,22.5
					c0,10-1.3,17.5-3.8,22.5C1521.6,57.1,1517.8,59.6,1512.7,59.6z M1512.7,67.4c8.2,0,14.4-3.2,18.7-9.7c4.3-6.5,6.5-15.8,6.5-28.1
					c0-12.3-2.2-21.6-6.5-28.1c-4.3-6.5-10.6-9.7-18.7-9.7c-8.2,0-14.4,3.2-18.7,9.7c-4.3,6.5-6.5,15.8-6.5,28.1
					c0,12.3,2.2,21.7,6.5,28.1C1498.3,64.1,1504.5,67.4,1512.7,67.4z"/>
			</g>
			<g>
				<path id="DejaVuSans-20_00000117677001086743659680000005607923818052735656_" d="M1544.5-6.8"/>
			</g>
			<g>
				<path id="DejaVuSans-61_00000003802928640586106930000010506961604080375443_" d="M1610.6,20.6c-7.3,0-12.3-0.8-15.1-2.5
					c-2.8-1.7-4.2-4.5-4.2-8.5c0-3.2,1.1-5.7,3.2-7.6c2.1-1.9,5-2.8,8.6-2.8c5,0,9,1.8,12,5.3c3,3.5,4.5,8.2,4.5,14.1v2H1610.6z
					 M1628.5,24.4V-6.8h-9v8.3c-2.1-3.3-4.6-5.8-7.7-7.3s-6.8-2.4-11.2-2.4c-5.6,0-10,1.6-13.4,4.7c-3.3,3.1-5,7.4-5,12.6
					c0,6.1,2.1,10.8,6.2,13.9c4.1,3.1,10.3,4.7,18.4,4.7h12.6v0.9c0,4.1-1.4,7.3-4.1,9.6s-6.5,3.4-11.5,3.4c-3.1,0-6.2-0.4-9.1-1.1
					c-3-0.8-5.8-1.9-8.5-3.4v8.3c3.3,1.3,6.5,2.2,9.6,2.8c3.1,0.6,6.1,1,9,1c7.9,0,13.8-2.1,17.7-6.2
					C1626.6,38.9,1628.5,32.7,1628.5,24.4z"/>
			</g>
			<g>
				<path id="DejaVuSans-6e_00000163060170531376174370000006356838948697556096_" d="M1692.5,26.2v-33h-9v32.7c0,5.2-1,9-3,11.6
					c-2,2.6-5,3.9-9.1,3.9c-4.9,0-8.7-1.5-11.5-4.6c-2.8-3.1-4.2-7.3-4.2-12.6V-6.8h-9v54.7h9v-8.5c2.2,3.3,4.7,5.8,7.6,7.4
					c2.9,1.6,6.3,2.4,10.1,2.4c6.3,0,11-1.9,14.2-5.8C1690.9,39.4,1692.5,33.7,1692.5,26.2z"/>
			</g>
			<g>
				<path id="DejaVuSans-64" d="M1746.4,39.5v29.6h9v-76h-9v8.2c-1.9-3.2-4.3-5.7-7.2-7.2c-2.9-1.6-6.3-2.4-10.4-2.4
					c-6.6,0-12,2.6-16.1,7.9c-4.1,5.3-6.2,12.2-6.2,20.8s2.1,15.5,6.2,20.8c4.2,5.3,9.5,7.9,16.1,7.9c4,0,7.5-0.8,10.4-2.4
					C1742.1,45.2,1744.5,42.8,1746.4,39.5z M1715.8,20.5c0-6.6,1.4-11.8,4.1-15.5s6.5-5.6,11.2-5.6s8.5,1.9,11.2,5.6
					c2.7,3.8,4.1,8.9,4.1,15.5s-1.4,11.8-4.1,15.5c-2.7,3.8-6.5,5.6-11.2,5.6s-8.5-1.9-11.2-5.6S1715.8,27.1,1715.8,20.5z"/>
			</g>
			<g>
				<path id="DejaVuSans-20_00000103982246229812804960000011342132129206641327_" d="M1764.5-6.8"/>
			</g>
			<g>
				<path id="DejaVuSans-32_00000170966484424559791320000003502872524620635310_" d="M1815.4,1.5h34.4v-8.3h-46.3v8.3
					c3.7,3.9,8.8,9.1,15.3,15.6c6.5,6.5,10.5,10.7,12.2,12.6c3.2,3.5,5.4,6.5,6.6,9c1.3,2.5,1.9,4.9,1.9,7.2c0,3.9-1.4,7-4.1,9.5
					c-2.7,2.4-6.3,3.7-10.6,3.7c-3.1,0-6.4-0.5-9.8-1.6c-3.4-1.1-7.1-2.7-11-4.9v10c4,1.6,7.7,2.8,11.1,3.6c3.5,0.8,6.6,1.2,9.5,1.2
					c7.6,0,13.6-1.9,18.1-5.7c4.5-3.8,6.7-8.8,6.7-15.1c0-3-0.6-5.8-1.7-8.5c-1.1-2.7-3.2-5.8-6.1-9.5c-0.8-0.9-3.4-3.7-7.8-8.2
					C1829.5,15.9,1823.4,9.6,1815.4,1.5z"/>
			</g>
			<g>
				<path id="DejaVuSans-30_00000055706326990275868850000011519738806962102661_" d="M1891.7,59.6c-5.1,0-8.9-2.5-11.5-7.5
					c-2.6-5-3.8-12.5-3.8-22.5c0-10,1.3-17.5,3.8-22.5c2.6-5,6.4-7.5,11.5-7.5c5.1,0,8.9,2.5,11.5,7.5c2.6,5,3.8,12.5,3.8,22.5
					c0,10-1.3,17.5-3.8,22.5C1900.6,57.1,1896.8,59.6,1891.7,59.6z M1891.7,67.4c8.2,0,14.4-3.2,18.7-9.7c4.3-6.5,6.5-15.8,6.5-28.1
					c0-12.3-2.2-21.6-6.5-28.1c-4.3-6.5-10.6-9.7-18.7-9.7c-8.2,0-14.4,3.2-18.7,9.7c-4.3,6.5-6.5,15.8-6.5,28.1
					c0,12.3,2.2,21.7,6.5,28.1C1877.2,64.1,1883.5,67.4,1891.7,67.4z"/>
			</g>
			<g>
				<path id="DejaVuSans-31_00000142879775518096666440000005120139865133581719_" d="M1935.9,1.5h16.1v55.6l-17.5-3.5v9l17.4,3.5
					h9.9V1.5h16.1v-8.3h-42V1.5z"/>
			</g>
			<g>
				<path id="DejaVuSans-35_00000178171556390718617020000014018207252482747047_" d="M1997.9,66.1h38.7v-8.3h-29.7V39.9
					c1.4,0.5,2.9,0.9,4.3,1.1c1.4,0.2,2.9,0.4,4.3,0.4c8.1,0,14.6-2.2,19.3-6.7c4.8-4.5,7.1-10.5,7.1-18.1c0-7.8-2.4-13.9-7.3-18.3
					c-4.9-4.3-11.8-6.5-20.7-6.5c-3.1,0-6.2,0.3-9.4,0.8c-3.2,0.5-6.4,1.3-9.8,2.3v9.9c2.9-1.6,6-2.8,9.1-3.6s6.4-1.2,9.9-1.2
					c5.6,0,10.1,1.5,13.4,4.4c3.3,3,4.9,7,4.9,12.1c0,5.1-1.6,9.1-4.9,12c-3.3,3-7.7,4.5-13.4,4.5c-2.6,0-5.3-0.3-7.9-0.9
					c-2.6-0.6-5.3-1.5-8-2.7V66.1z"/>
			</g>
		</g>
	</g>
	<rect x="720.4" y="1.6" class="st0" width="37.2" height="360"/>
	<rect x="693.6" y="44.2" class="st0" width="8.6" height="275.1"/>
	<rect x="45.5" y="44.8" class="st0" width="648.1" height="4.1"/>
	<rect x="660.2" y="123.5" class="st9" width="46.7" height="16"/>
	<rect x="663.6" y="61.1" class="st9" width="93.7" height="124.7"/>
	<text transform="matrix(1 0 0 1 663.5526 69.6486)"><tspan x="0" y="0" class="st10 st11 st12">Germany</tspan><tspan x="0" y="11" class="st13 st11 st12">Chile</tspan><tspan x="0" y="22" class="st14 st11 st12">USA</tspan><tspan x="0" y="33" class="st15 st11 st12">Mexico</tspan><tspan x="0" y="44" class="st16 st11 st12">China</tspan></text>
	<rect x="663.2" y="189.8" class="st9" width="72.3" height="21.7"/>
	<text transform="matrix(1 0 0 1 663.1926 198.3286)" class="st11 st12">Zimbabwe</text>
</g>
</svg>
